<svg width="851" height="301" viewBox="0 0 851 301" fill="none" xmlns="http://www.w3.org/2000/svg">
<path d="M10.498 165.577C9.1681 163.686 8.50323 161.794 11.828 160.139C20.4724 158.011 21.1373 156.593 13.8228 153.283C10.498 149.972 17.1476 147.372 17.1476 144.298C26.4569 141.461 26.4569 140.988 20.4723 137.205C20.4723 136.023 21.1375 135.077 21.1375 133.895C26.4571 133.186 27.7871 131.767 27.7871 129.876C27.7871 127.511 27.122 125.147 36.4314 124.201C40.4211 123.965 39.7559 122.546 35.7662 121.837C33.1064 121.364 29.7818 121.364 26.4571 121.6C23.7973 119 24.4622 116.162 26.4571 113.562C37.7613 110.961 37.7612 110.488 25.1271 107.887C25.1271 107.414 25.1271 107.178 25.1271 106.705C33.7715 104.814 33.7716 104.577 27.7871 102.213C27.1221 101.74 25.7922 101.503 24.4623 101.031C24.4623 86.3717 15.1529 71.7127 17.8127 57.0538C19.1427 48.7786 9.83298 41.2127 12.4928 33.174C14.4877 26.0809 14.4878 18.9879 15.1528 11.8949C15.1528 9.05766 18.4776 7.63906 26.4571 6.69333C43.7459 4.32898 61.6996 4.09255 79.6534 5.51116C92.9525 6.69333 105.586 5.984 118.221 4.5654C132.185 2.91036 147.478 2.67392 162.107 3.85609C175.406 4.80182 188.706 4.80185 201.34 4.32898C225.278 3.14681 248.551 3.61967 271.825 3.61967C283.794 3.61967 296.428 2.91036 308.397 4.5654C309.727 4.80183 311.722 4.5654 313.052 4.5654C336.325 1.49175 360.929 2.20107 384.867 1.25533C418.78 -0.163274 452.693 0.546022 486.605 0.546022C504.559 0.546022 523.177 1.72818 541.131 1.49174C571.719 1.25531 602.307 2.20106 632.895 0.546022C652.844 -0.399715 674.122 0.073153 694.736 0.546022C702.715 0.782456 710.03 -0.163274 718.009 0.0731602C741.947 1.0189 765.221 1.49175 789.159 2.20105C795.809 2.43749 802.458 1.01888 809.108 2.20105C810.438 3.14679 812.432 3.8561 815.092 2.91036C817.752 2.91036 820.412 3.14681 822.407 3.14681C824.402 3.38325 826.396 3.61965 828.391 3.85609C838.366 5.27469 839.031 5.27469 835.706 9.76694C834.376 11.1855 837.036 11.8949 839.031 12.8406C842.356 14.7321 841.025 17.8057 835.041 18.515C831.051 18.9879 828.391 19.4608 826.396 20.8794C823.072 23.2437 832.381 23.0073 832.381 23.953C831.716 28.9181 839.696 27.2631 846.345 26.7902C846.345 28.2088 846.345 29.8639 846.345 31.2825C839.031 36.7205 839.031 36.7204 829.056 38.1391C831.051 40.267 838.366 38.3755 841.026 40.267C839.696 40.9763 838.365 41.922 837.036 42.3949C831.716 44.2864 829.056 46.1778 833.046 49.015C835.706 50.9065 830.386 51.3794 827.726 52.5616C823.737 54.6895 837.036 53.9802 833.046 56.3445C832.381 56.8174 831.051 57.2902 830.386 57.7631C825.066 59.6546 823.072 62.0189 824.402 64.6197C827.726 70.767 826.397 76.9143 832.381 82.8251C833.711 83.7709 835.041 85.1895 830.386 85.4259C829.056 85.4259 827.062 84.2438 824.402 83.298C825.067 86.1352 821.077 88.0267 819.082 90.1546C817.752 91.1003 817.087 92.9918 819.747 92.9918C832.381 92.9918 821.742 97.2476 828.391 98.1934C822.407 101.74 830.386 101.031 835.041 100.558C839.695 100.085 843.02 98.6662 848.34 99.8484C850.335 101.267 850.335 102.686 849.67 104.341C843.02 105.759 838.366 107.414 842.356 110.488C843.685 111.434 842.355 111.907 840.36 112.143C837.036 112.616 833.046 112.616 831.051 114.271C835.706 115.217 842.355 113.798 845.015 115.926C843.02 117.108 837.036 116.872 839.696 119.236C843.02 122.546 843.685 126.329 848.34 129.403C848.34 129.876 847.675 130.112 847.01 130.348C842.355 131.058 841.025 132.713 837.036 133.895C827.061 136.259 827.061 138.624 834.376 141.697C837.036 142.643 841.025 142.879 843.02 144.298C833.046 146.662 839.696 151.628 831.051 154.465C830.386 154.701 831.051 155.647 832.381 155.883C838.366 158.484 835.041 160.376 829.056 162.267C823.737 163.922 819.082 165.577 828.391 167.469C831.716 168.178 831.716 169.124 830.386 170.542C829.056 171.724 827.726 172.907 831.716 174.325C835.706 172.907 837.036 169.36 846.345 170.542C847.675 171.724 847.675 172.67 845.68 173.616C825.067 177.635 825.066 177.635 835.041 184.019C835.706 184.255 835.706 184.728 835.706 185.201C834.376 185.438 833.711 185.674 835.041 185.674C835.041 185.674 835.706 185.438 835.706 185.201C838.366 185.201 841.025 185.201 843.685 185.201C843.685 185.911 843.685 186.62 843.685 187.329C840.36 187.566 835.706 187.329 835.706 189.221C835.706 190.876 839.03 191.821 843.685 192.058C843.02 192.767 843.02 193.476 842.356 194.186C839.031 194.659 836.371 195.131 836.371 196.55C836.371 197.732 840.361 197.732 842.356 197.732C844.35 199.151 844.35 200.569 841.69 202.224C838.366 202.697 837.036 203.17 839.696 204.352C842.355 209.317 841.69 214.519 839.696 219.484C837.036 227.759 836.371 236.035 842.356 244.073C843.02 245.019 843.685 245.965 843.685 246.911C838.365 258.496 845.68 269.608 847.675 280.957C847.675 282.139 847.675 283.321 847.675 284.267C849.005 293.015 844.35 297.035 817.752 298.217C814.427 298.453 810.437 299.399 807.113 299.399C769.21 298.69 732.638 301.763 694.736 300.818C670.797 300.108 646.194 301.054 622.256 300.108C609.621 299.635 596.987 300.581 584.353 298.926C579.034 298.217 573.049 298.926 567.064 299.162C542.461 299.635 517.193 299.872 492.59 299.635C478.626 299.635 464.662 300.581 450.698 300.345C416.12 300.108 381.543 301.29 346.965 298.69C330.341 297.507 313.052 298.217 296.428 298.453C288.449 298.453 281.799 298.453 273.82 297.744C257.861 296.325 240.572 295.616 223.948 295.143C198.015 294.434 171.417 293.725 145.484 294.197C120.215 294.67 96.2771 292.306 71.6738 292.779C65.0243 293.015 59.0396 292.542 52.39 293.015C46.4054 293.488 41.0861 293.961 36.4314 291.833C35.7664 291.36 33.7713 291.124 32.4414 291.124C13.1577 289.469 9.83306 287.341 7.17324 280.011C5.84333 275.283 3.1836 270.79 1.85369 266.062C-0.806122 258.969 -0.806041 252.112 3.18368 245.255C11.1631 244.783 19.8074 246.201 27.1219 244.073C20.4723 241 11.8281 240.29 3.18368 239.345C2.51873 237.453 1.18882 235.562 3.18368 233.67C7.17341 233.67 11.8278 233.67 15.8176 233.434C20.4722 233.197 23.1323 232.015 19.8075 230.833C13.8229 228.705 17.1478 227.287 21.1375 225.631C25.7922 223.74 27.1218 221.612 25.7919 219.011C23.797 216.647 24.462 213.81 23.7971 211.209C23.7971 210.027 22.4673 209.081 19.8075 208.372C17.1477 212.628 17.1475 212.628 5.84325 211.918C5.84325 210.736 5.84333 209.554 7.17324 208.372C9.83306 207.426 13.8229 206.48 8.50323 205.062C8.50323 199.387 8.50307 193.713 9.16802 188.038C13.1577 186.856 18.4774 185.91 9.16802 184.728C9.16802 184.019 9.83322 183.31 9.83322 182.6C17.8127 182.6 21.1375 181.182 21.1375 178.345C21.1375 176.217 20.4726 174.325 21.1375 172.197C22.4674 168.178 19.1424 166.286 10.498 165.577ZM50.3952 150.918C54.385 151.155 54.3851 154.228 56.38 153.283C60.3697 151.391 63.0293 131.531 62.3643 129.639C61.6994 128.93 61.0344 128.457 59.0396 128.457C57.7097 128.457 55.715 128.457 55.05 128.93C53.0551 129.876 51.0604 130.821 51.0604 131.767C49.0656 135.55 49.7305 139.333 44.4109 142.879C43.081 143.589 43.0807 145.007 45.7405 145.48C53.7199 146.899 49.0653 149.263 50.3952 150.918C49.0653 151.155 48.4005 151.391 49.7305 151.391C49.7305 151.391 50.3952 151.155 50.3952 150.918ZM378.883 174.798C370.903 169.833 376.223 164.868 379.547 159.666C384.202 160.612 380.213 162.74 385.532 162.976C388.192 162.504 386.862 161.794 386.862 161.085C386.862 159.43 388.857 157.538 382.207 157.066C376.223 156.593 372.233 157.775 368.908 159.43C364.919 161.085 366.913 162.976 367.578 164.868C367.578 167.705 366.249 169.833 356.939 170.069C356.274 170.069 356.274 170.779 355.609 171.252C360.929 171.724 366.914 171.724 363.589 175.034C361.594 176.926 365.583 179.29 367.578 181.418C376.888 179.763 380.213 177.872 378.883 174.798C381.542 174.562 384.202 174.798 383.537 173.379C383.537 173.143 382.872 173.143 382.872 172.907C379.547 172.907 379.548 174.089 378.883 174.798ZM580.364 99.3755C580.364 97.7205 580.364 97.0112 580.364 96.3019C580.364 95.829 580.364 95.5926 580.364 95.1197C579.699 94.174 578.369 93.4647 575.044 93.4647C572.384 93.4647 571.719 94.174 571.054 94.8833C567.729 101.503 570.389 108.124 567.729 114.744C567.729 115.217 568.394 115.926 569.059 116.162C573.049 117.345 571.719 118.527 569.724 119.945C567.065 122.31 561.745 124.201 558.42 126.093C549.776 131.058 570.389 132.003 571.054 136.023C571.054 137.205 574.379 137.914 578.369 137.678C579.699 137.678 580.364 137.441 581.694 137.441C586.348 137.205 588.343 138.151 589.673 139.569C590.338 140.752 589.673 141.934 590.338 142.879C590.338 143.589 591.003 144.298 593.663 144.534C596.987 144.771 598.317 144.062 599.647 143.116C602.307 140.752 603.637 138.387 602.972 136.023C602.307 132.713 599.647 129.639 605.632 126.329C608.956 124.438 605.632 121.6 602.972 119.236C600.312 117.345 590.338 115.69 585.683 116.635C579.698 117.817 577.704 116.635 576.374 115.217C573.714 111.197 577.704 107.178 577.704 103.158C577.039 102.449 580.364 100.321 580.364 99.3755ZM604.302 65.329C612.946 67.4569 612.946 67.6933 610.951 70.767C610.286 71.9492 611.616 72.422 613.611 73.1313C615.606 73.8406 615.606 74.7864 613.611 75.7321C606.962 78.0965 608.956 79.2786 617.601 79.5151C618.931 79.5151 620.926 80.2244 619.596 80.6972C610.287 84.7166 624.25 85.4259 626.91 87.7902C630.235 86.3716 627.575 84.2438 633.56 83.5345C638.215 85.6624 648.189 87.081 643.534 91.1003C642.869 91.8096 644.199 92.9918 646.859 93.4647C650.849 93.9376 652.179 92.9918 654.839 92.0461C658.163 90.8639 656.168 89.6817 654.839 88.4996C652.844 86.1352 649.519 83.5344 652.178 81.4065C649.519 79.5151 645.529 81.4065 642.869 80.2244C646.194 78.8058 649.519 77.3872 652.178 75.7321C656.833 73.1313 654.173 71.4763 645.529 71.2398C640.874 71.0034 636.22 70.767 631.565 70.2941C625.581 69.5848 623.585 68.4026 628.905 66.7476C631.565 66.0383 634.225 65.329 634.225 64.1468C634.225 63.2011 634.89 62.2553 632.23 61.7825C629.57 61.3096 628.24 62.0189 626.91 62.4918C624.915 63.2011 622.255 65.329 620.926 64.8561C614.276 62.2554 609.621 66.2747 604.302 65.329ZM606.297 10.9491C591.668 7.87547 577.704 12.8406 563.74 10.7127C542.461 13.077 519.188 10.0034 496.58 13.3135C516.528 15.2049 588.343 13.5499 606.297 10.9491ZM817.087 282.139C811.767 282.612 807.113 282.849 803.788 284.267C802.458 284.976 801.793 285.686 803.788 286.159C810.437 287.577 813.098 290.178 819.082 291.597C821.742 292.306 823.737 291.833 825.066 290.887C826.396 289.942 822.407 282.849 820.412 282.376C819.082 282.376 817.752 282.139 817.087 282.139ZM268.5 12.6042C259.191 12.6042 252.541 12.6042 245.892 12.6042C240.572 12.6042 235.252 13.077 233.258 15.2049C232.593 15.6778 233.923 16.3871 234.588 16.6236C239.907 17.5693 245.892 18.9879 252.541 17.5693C254.536 17.0964 257.196 16.6235 257.861 15.6778C258.526 13.7863 263.845 14.2592 268.5 12.6042ZM53.0552 126.565C58.3749 126.093 63.6945 126.093 63.0295 123.492C62.3646 122.073 60.3695 121.6 57.0448 121.6C51.7252 121.6 47.7355 122.546 48.4005 124.674C47.7355 125.856 49.7305 126.802 53.0552 126.565ZM329.676 41.2127C330.341 39.7941 327.016 39.7941 324.356 39.5577C321.032 39.0848 317.707 39.3212 316.377 40.5034C315.047 41.6856 317.707 42.1585 320.367 42.6313C325.021 43.1042 327.681 42.3949 329.676 41.2127ZM826.396 31.7553C822.407 30.5732 818.417 30.3368 814.427 31.5189C813.762 31.7554 813.762 32.7011 814.427 32.9375C818.417 34.5925 821.742 32.7011 825.732 32.7011C825.732 32.9375 825.732 32.2282 826.396 31.7553ZM834.376 107.178C832.381 106.469 832.381 104.814 827.726 104.814C825.067 104.814 824.402 105.523 825.066 106.232C826.396 107.414 827.061 108.833 831.716 108.833C833.711 108.596 834.376 107.887 834.376 107.178ZM342.31 40.0305C342.975 39.7941 342.975 39.5577 343.64 39.3212C342.975 39.3212 342.31 39.0848 342.31 39.3212C341.645 39.5577 340.315 39.5577 340.315 39.7941C340.315 40.267 340.98 40.267 342.31 40.0305ZM824.402 114.507C823.737 114.271 822.407 114.034 821.742 114.034C821.077 114.034 820.412 114.744 820.412 114.98C820.412 115.217 822.407 115.453 823.072 115.453C823.737 115.217 824.402 114.744 824.402 114.507ZM834.376 32.4646C834.376 32.7011 834.376 32.7011 834.376 32.7011C834.376 32.7011 835.041 32.9375 835.706 32.7011C836.371 32.4647 836.371 32.2282 835.706 32.2282C835.041 32.2282 835.041 32.2282 834.376 32.4646Z" fill="#85A865"/>
<path d="M849.005 98.9029C844.351 97.7207 840.361 98.9028 835.706 99.6121C831.052 100.321 823.072 100.794 829.057 97.2478C822.407 96.302 833.046 92.0462 820.412 92.0462C817.752 92.0462 818.417 90.1548 819.747 89.209C821.742 87.0811 825.732 85.1897 825.067 82.3525C827.727 83.2982 829.722 84.7168 831.052 84.4803C835.706 84.2439 834.376 82.8253 833.046 81.8796C827.062 75.9687 828.392 69.8214 825.067 63.6741C823.737 61.3098 825.067 58.709 831.052 56.8175C832.381 56.3447 833.046 55.8718 833.711 55.3989C837.701 53.0346 824.402 53.7439 828.392 51.616C830.386 50.4338 836.371 49.7245 833.711 48.0695C829.721 45.4687 832.381 43.3408 837.701 41.4493C839.696 40.74 840.361 40.0307 841.691 39.3214C838.366 37.4299 831.716 39.3214 829.722 37.1935C839.696 35.7749 839.696 35.7749 847.01 30.3369C852.995 33.1741 848.34 36.4842 849.005 39.5578C851.665 57.5268 851 75.4958 850.335 93.2284C851 95.5928 849.67 97.2478 849.005 98.9029Z" fill="#9BB982"/>
<path d="M846.345 169.36C837.035 168.178 836.37 171.725 831.716 173.143C827.726 171.725 829.056 170.542 830.386 169.36C831.716 168.178 831.051 166.996 828.391 166.287C819.082 164.395 824.402 162.74 829.056 161.085C835.041 159.194 837.701 157.302 832.381 154.701C831.716 154.229 831.051 153.283 831.051 153.283C839.03 150.446 833.046 145.717 843.02 143.116C841.69 141.698 837.036 141.698 834.376 140.515C827.061 137.442 827.726 134.841 837.035 132.713C841.025 131.767 842.355 129.876 847.01 129.167C850.334 142.88 847.675 156.12 846.345 169.36Z" fill="#9BB982"/>
<path d="M5.84346 211.209C17.1477 211.918 17.1479 211.918 19.8077 207.663C23.1325 208.372 23.7973 209.318 23.7973 210.5C24.4623 213.101 23.7972 215.701 25.7921 218.302C27.7869 220.903 25.7924 223.031 21.1377 224.922C17.148 226.577 13.8232 227.996 19.8077 230.124C23.1325 231.306 20.4724 232.488 15.8178 232.725C11.828 232.961 7.17361 232.725 3.18389 232.961C2.51893 225.395 1.85374 218.302 5.84346 211.209Z" fill="#9BB982"/>
<path d="M847.675 26.3176C841.026 26.7905 832.381 28.4455 833.711 23.4804C833.711 22.5347 825.067 22.7711 827.727 20.4067C829.722 19.2246 832.381 18.5153 836.371 18.0424C841.691 17.3331 843.685 14.4959 840.361 12.368C839.031 11.4223 836.371 10.713 837.036 9.29435C840.361 5.03853 839.696 5.03853 829.722 3.38349C827.727 3.14706 825.732 2.91062 823.737 2.67418C832.381 0.78271 841.691 1.9649 845.015 5.27497C847.675 7.63932 848.34 10.4765 848.34 13.0773C848.34 17.806 847.675 22.0618 847.675 26.3176Z" fill="#9BB982"/>
<path d="M849.005 128.458C844.35 125.147 844.35 121.601 840.36 118.291C837.701 115.927 844.35 116.163 845.68 114.981C842.356 112.853 835.706 114.035 831.716 113.326C833.711 111.907 837.701 111.671 841.026 111.198C843.02 110.961 844.35 110.489 843.02 109.543C839.031 106.469 843.685 104.814 850.335 103.396C850.335 110.725 851 118.054 851 125.384C851 126.566 851 127.748 849.005 128.458Z" fill="#9BB982"/>
<path d="M10.4974 165.577C19.1418 166.286 22.4667 167.942 21.8017 171.252C21.1368 173.38 21.8017 175.271 21.8017 177.399C21.8017 180.236 18.4769 181.655 10.4974 181.655C4.51285 176.453 9.83248 171.015 10.4974 165.577Z" fill="#9BB982"/>
<path d="M835.706 183.783C835.706 183.31 835.706 183.073 835.041 182.6C825.066 176.217 825.067 176.217 845.68 172.197C850.335 176.217 844.35 180 843.685 183.783C841.025 184.019 838.366 184.019 835.706 183.783Z" fill="#9BB982"/>
<path d="M3.18371 238.399C11.8281 239.345 20.4723 240.054 27.1219 243.128C19.1424 245.019 10.4982 243.837 3.18371 244.31C1.8538 242.182 1.8538 240.29 3.18371 238.399Z" fill="#9BB982"/>
<path d="M26.4568 121.6C29.7815 121.6 32.4411 121.364 35.7659 121.837C39.0906 122.546 39.7558 123.964 36.4311 124.201C27.1217 125.147 27.7867 127.511 27.7867 129.875C27.7867 131.767 26.4568 133.185 21.1372 133.895C22.4671 129.875 20.4722 125.619 26.4568 121.6Z" fill="#9BB982"/>
<path d="M25.1275 107.887C37.7617 110.488 37.7617 110.961 26.4575 113.562C23.1328 111.907 20.4729 110.015 25.1275 107.887Z" fill="#9BB982"/>
<path d="M13.8228 153.283C20.4724 156.593 20.4725 158.248 11.8281 160.139C7.83834 157.775 13.1579 155.647 13.8228 153.283Z" fill="#9BB982"/>
<path d="M20.472 137.206C26.4566 140.752 26.4566 141.461 17.1473 144.299C13.8225 141.698 19.1421 139.57 20.472 137.206Z" fill="#9BB982"/>
<path d="M25.1266 101.031C26.4565 101.504 27.1215 101.74 28.4514 102.213C34.436 104.577 34.4358 104.577 25.7914 106.705C23.7965 104.814 20.4719 102.922 25.1266 101.031Z" fill="#9BB982"/>
<path d="M843.685 190.639C839.03 190.403 835.706 189.457 835.706 187.802C835.706 185.911 839.695 186.147 843.685 185.911C845.68 187.566 845.015 189.221 843.685 190.639Z" fill="#9BB982"/>
<path d="M843.02 196.55C840.36 196.313 837.035 196.55 837.035 195.368C837.035 193.949 839.695 193.476 843.02 193.003C844.35 194.186 844.35 195.368 843.02 196.55Z" fill="#9BB982"/>
<path d="M9.83311 184.019C18.4775 185.201 13.8228 186.147 9.83311 187.329C5.84339 186.147 5.84339 184.965 9.83311 184.019Z" fill="#9BB982"/>
<path d="M9.16761 204.353C13.8223 205.771 10.4978 206.717 7.83803 207.663C6.50812 206.48 6.5078 205.298 9.16761 204.353Z" fill="#9BB982"/>
<path d="M840.36 202.934C837.7 201.751 839.696 201.279 842.355 200.806C843.685 201.751 843.685 202.697 840.36 202.934Z" fill="#9BB982"/>
<path d="M815.757 2.91001C813.097 3.85574 811.102 3.38287 809.772 2.2007C812.432 1.72783 814.427 1.72784 815.757 2.91001Z" fill="#9BB982"/>
<path d="M580.364 99.376C580.364 100.322 577.039 102.45 577.039 103.632C577.039 107.651 573.049 111.671 575.709 115.69C577.039 117.109 579.034 118.291 585.019 117.109C589.673 116.163 600.312 117.818 602.307 119.709C604.967 122.074 608.292 124.674 604.967 126.802C598.983 130.112 601.642 133.186 602.307 136.496C602.972 138.86 601.642 141.461 598.983 143.589C597.653 144.535 596.323 145.244 592.998 145.008C590.338 144.771 589.673 144.062 589.673 143.353C589.008 142.171 589.673 140.988 589.008 140.043C588.343 138.624 586.348 137.678 581.029 137.915C579.699 137.915 579.034 138.151 577.704 138.151C573.714 138.388 571.055 137.442 570.39 136.496C569.725 132.477 549.111 131.767 557.755 126.566C561.08 124.438 566.4 122.783 569.06 120.419C570.39 118.764 572.385 117.818 568.395 116.636C567.065 116.399 566.4 115.69 567.065 115.217C569.06 108.597 567.065 101.977 570.39 95.3566C571.055 94.6473 571.719 93.938 574.379 93.938C577.704 93.938 579.034 94.6473 579.699 95.593C579.699 96.0659 579.699 96.3023 579.699 96.7752C580.364 97.0116 580.364 97.7209 580.364 99.376Z" fill="#9BB982"/>
<path d="M604.302 65.3288C610.286 66.0381 614.941 62.0187 620.925 65.0924C621.59 65.5653 624.25 63.4373 626.91 62.728C628.24 62.2552 630.235 61.5459 632.23 62.0187C634.889 62.4916 634.889 63.4373 634.224 64.3831C633.559 65.5652 630.9 66.2746 628.905 66.9839C623.585 68.6389 625.58 69.8211 631.565 70.5304C636.22 71.0033 640.874 71.4761 645.529 71.4761C654.173 71.7125 656.168 73.3676 652.178 75.9683C649.518 77.6234 646.194 79.042 642.869 80.4606C645.529 81.6428 649.518 79.7513 652.178 81.6428C649.518 83.7707 652.843 86.135 654.838 88.7358C656.168 89.918 658.163 91.1002 654.838 92.2823C652.843 92.9916 650.848 94.1738 646.859 93.7009C644.199 93.228 642.204 92.0459 643.534 91.3366C648.189 87.3172 638.214 85.8986 633.56 83.7707C626.91 84.48 630.235 86.6079 626.91 88.0265C624.25 85.6622 610.286 84.9529 619.596 80.9335C620.926 80.4606 619.595 79.7513 617.601 79.7513C608.956 79.2784 606.961 78.0963 613.611 75.9683C615.606 75.259 615.606 74.3133 613.611 73.3676C612.281 72.6583 610.286 72.1854 610.951 71.0032C612.946 67.6932 612.946 67.6931 604.302 65.3288Z" fill="#9BB982"/>
<path d="M378.883 174.798C379.548 177.635 376.888 179.763 368.244 181.182C365.584 179.054 362.259 176.69 364.254 174.798C367.579 171.488 361.594 171.488 356.274 171.015C356.939 170.542 356.939 169.833 357.604 169.833C366.914 169.36 368.244 167.469 368.244 164.631C368.244 162.74 365.584 161.085 369.573 159.194C372.898 157.538 377.553 156.356 382.873 156.829C389.522 157.302 387.527 159.193 387.527 160.849C387.527 161.558 388.857 162.267 386.197 162.74C380.878 162.504 384.868 160.376 380.213 159.43C376.223 164.868 371.569 169.833 378.883 174.798Z" fill="#9BB982"/>
<path d="M50.3949 150.918C49.065 149.027 53.7196 146.662 45.7401 145.48C43.0803 145.007 43.0806 143.589 44.4105 142.879C49.7302 139.333 49.0652 135.55 51.0601 131.767C51.725 130.821 53.7197 129.639 55.0496 128.93C55.7146 128.693 57.7093 128.457 59.0392 128.457C61.0341 128.457 61.699 128.93 62.364 129.639C63.6939 131.531 60.3694 151.391 56.3796 153.283C54.3848 154.465 54.3846 151.391 50.3949 150.918Z" fill="#9BB982"/>
<path d="M606.297 10.9494C588.343 13.7866 517.193 15.2052 496.58 13.3138C519.188 10.0037 542.461 12.8409 563.74 10.713C577.039 12.8409 591.668 7.63933 606.297 10.9494Z" fill="#9BB982"/>
<path d="M817.087 282.139C817.752 282.139 819.747 282.376 820.412 282.612C822.407 283.085 826.396 290.178 825.066 291.124C823.737 292.069 821.742 292.542 819.082 291.833C813.098 290.414 810.437 287.577 803.788 286.395C801.793 285.922 802.458 285.213 803.788 284.504C807.113 282.848 811.767 282.612 817.087 282.139Z" fill="#9BB982"/>
<path d="M268.5 12.6045C263.845 14.0231 258.526 13.7866 257.196 15.6781C256.531 16.6238 253.871 17.0967 251.876 17.5696C245.226 18.9882 239.907 17.3332 233.922 16.6239C233.257 16.3874 231.927 15.6781 232.592 15.2052C234.587 13.0773 239.907 12.8409 245.226 12.6045C253.206 12.6045 259.855 12.6045 268.5 12.6045Z" fill="#9BB982"/>
<path d="M53.0551 126.566C49.7304 126.802 47.7356 125.856 47.7356 124.674C47.7356 122.546 51.0603 121.601 56.3799 121.601C59.7047 121.601 62.3643 122.073 62.3643 123.492C63.6942 126.093 58.3748 126.093 53.0551 126.566Z" fill="#9BB982"/>
<path d="M329.675 41.212C327.016 42.3942 324.356 43.1035 320.366 42.6306C317.707 42.1577 315.047 41.6848 316.376 40.5027C317.706 39.3205 321.031 39.0841 324.356 39.557C327.016 39.7934 330.34 40.0298 329.675 41.212Z" fill="#9BB982"/>
<path d="M826.396 31.7551C825.731 32.2279 825.731 32.7008 825.066 32.7008C821.077 32.7008 817.752 34.5923 813.762 32.9372C813.097 32.7008 813.097 31.7551 813.762 31.5187C818.417 30.3365 822.407 30.8093 826.396 31.7551Z" fill="#9BB982"/>
<path d="M834.376 107.178C834.376 108.124 833.711 108.597 832.381 108.597C827.727 108.597 827.062 107.178 825.732 105.996C825.067 105.287 825.067 104.578 828.391 104.578C832.381 104.814 832.381 106.469 834.376 107.178Z" fill="#9BB982"/>
<path d="M342.31 40.0311C340.98 40.2675 340.315 40.0311 340.315 39.7947C340.315 39.5582 341.645 39.3218 342.31 39.3218C342.975 39.3218 342.975 39.3218 343.64 39.3218C342.975 39.5582 342.975 39.7947 342.31 40.0311Z" fill="#9BB982"/>
<path d="M824.402 114.508C823.737 114.744 823.737 115.217 823.072 115.453C822.407 115.453 821.077 115.217 820.412 114.98C820.412 114.744 821.077 114.271 821.742 114.035C822.407 114.035 823.737 114.271 824.402 114.508Z" fill="#9BB982"/>
<path d="M378.883 174.798C379.548 173.852 379.548 172.906 382.872 173.143C383.537 173.143 383.538 173.379 383.538 173.616C384.203 174.798 381.543 174.798 378.883 174.798Z" fill="#9BB982"/>
<path d="M834.376 32.4645C835.041 32.4645 835.041 32.228 835.706 32.228C837.036 32.228 837.036 32.4645 835.706 32.7009C835.706 32.7009 835.041 32.7009 834.376 32.7009V32.4645Z" fill="#9BB982"/>
<path d="M50.3954 150.918C50.3954 151.154 49.7306 151.391 49.7306 151.391C48.4007 151.391 49.0655 151.154 50.3954 150.918Z" fill="#9BB982"/>
<path d="M835.706 184.019C835.706 184.256 835.041 184.492 835.041 184.492C833.711 184.256 833.711 184.019 835.706 184.019Z" fill="#9BB982"/>
</svg>
