<svg width="591" height="460" viewBox="0 0 591 460" fill="none" xmlns="http://www.w3.org/2000/svg">
<path d="M77.4496 50.7858C77.4496 50.7858 141.622 467.621 443.514 304.056C512.051 -50.3855 77.4496 50.7858 77.4496 50.7858Z" fill="#6C9251"/>
<path d="M507.875 345.832C508.208 344.784 508.132 343.667 507.666 342.717C507.199 341.768 506.378 341.061 505.376 340.748C505.116 340.654 480.082 332.883 445.886 301.567C321.66 187.658 208.285 129.521 207.12 128.973C206.655 128.724 206.14 128.577 205.607 128.542C205.074 128.506 204.533 128.582 204.018 128.765C203.503 128.948 203.025 129.235 202.612 129.607C202.2 129.979 201.862 130.43 201.618 130.93C201.093 131.924 200.965 133.07 201.264 134.115C201.562 135.16 202.262 136.02 203.209 136.505C204.335 137.111 316.9 194.774 440.271 307.92C449.018 316.004 458.307 323.465 468.077 330.255C488.588 344.446 501.946 348.526 502.671 348.77C503.683 349.054 504.784 348.918 505.74 348.391C506.697 347.865 507.434 346.988 507.795 345.949L507.875 345.832Z" fill="#6C9251"/>
</svg>
