<svg width="364" height="275" viewBox="0 0 364 275" fill="none" xmlns="http://www.w3.org/2000/svg">
<g clip-path="url(#clip0_5_119)">
<path d="M364 0H189.583C84.9333 0 0 64.1667 0 143.229V275H174.417C279.067 275 364 210.833 364 131.771V0Z" fill="#316E54"/>
<path d="M364 0H182C133.731 0 87.4382 14.4866 53.3066 40.2728C19.1749 66.0591 0 101.033 0 137.5L0 275H182C230.269 275 276.562 260.513 310.693 234.727C344.825 208.941 364 173.967 364 137.5V0ZM273 137.5C273 155.734 263.413 173.22 246.347 186.114C229.281 199.007 206.135 206.25 182 206.25H91V137.5C91 119.266 100.587 101.78 117.653 88.8864C134.719 75.9933 157.865 68.75 182 68.75H273V137.5ZM364 0H182C133.731 0 87.4382 14.4866 53.3066 40.2728C19.1749 66.0591 0 101.033 0 137.5L0 275H182C230.269 275 276.562 260.513 310.693 234.727C344.825 208.941 364 173.967 364 137.5V0ZM273 137.5C273 155.734 263.413 173.22 246.347 186.114C229.281 199.007 206.135 206.25 182 206.25H91V137.5C91 119.266 100.587 101.78 117.653 88.8864C134.719 75.9933 157.865 68.75 182 68.75H273V137.5Z" fill="#316E54"/>
</g>
<defs>
<clipPath id="clip0_5_119">
<rect width="364" height="275" fill="white"/>
</clipPath>
</defs>
</svg>
