<svg width="180" height="170" viewBox="0 0 180 170" fill="none" xmlns="http://www.w3.org/2000/svg">
<g clip-path="url(#clip0_5_109)">
<path d="M135 102.602C151.275 102.602 167.587 96.7229 180 85C174.097 79.4112 167.082 74.9792 159.36 71.9585C151.637 68.9377 143.359 67.3879 135 67.3979C140.918 61.8225 145.61 55.1977 148.809 47.9042C152.007 40.6107 153.648 32.7922 153.638 24.8979C136.05 24.8979 120.15 31.6271 108.638 42.5C108.638 27.1292 102.412 11.7229 90 0C84.0825 5.57546 79.3897 12.2002 76.1913 19.4937C72.9929 26.7872 71.3519 34.6057 71.3625 42.5C65.4591 36.9112 58.4446 32.4792 50.7221 29.4585C42.9995 26.4377 34.7212 24.8879 26.3625 24.8979C26.3625 41.4729 33.4875 56.525 45 67.3979C28.725 67.3979 12.4125 73.2771 0 85C5.90343 90.5888 12.9179 95.0208 20.6404 98.0415C28.3629 101.062 36.6413 102.612 45 102.602C39.0825 108.178 34.3897 114.802 31.1913 122.096C27.9929 129.389 26.3519 137.208 26.3625 145.102C43.9125 145.102 59.85 138.373 71.3625 127.5C71.3625 142.871 77.5875 158.277 90 170C95.9175 164.425 100.61 157.8 103.809 150.506C107.007 143.213 108.648 135.394 108.638 127.5C114.541 133.089 121.555 137.521 129.278 140.542C137 143.562 145.279 145.112 153.638 145.102C153.638 128.492 146.512 113.475 135 102.602Z" fill="#E49E61"/>
</g>
<defs>
<clipPath id="clip0_5_109">
<rect width="180" height="170" fill="white"/>
</clipPath>
</defs>
</svg>
