<svg width="316" height="312" viewBox="0 0 316 312" fill="none" xmlns="http://www.w3.org/2000/svg">
<g clip-path="url(#clip0_5_106)">
<path d="M218 164C218 191.614 193.376 214 163 214C132.624 214 108 191.614 108 164C108 136.386 132.624 114 163 114C193.376 114 218 136.386 218 164Z" fill="#FEEE96"/>
<path d="M316 156C305.636 145.743 293.322 137.609 279.765 132.065C266.207 126.521 251.674 123.677 237 123.695C247.389 113.462 255.627 101.304 261.242 87.9183C266.857 74.5325 269.738 60.1833 269.719 45.695C238.843 45.695 210.93 58.045 190.719 78C190.719 49.79 179.791 21.515 158 0C147.611 10.2326 139.373 22.391 133.758 35.7767C128.143 49.1624 125.262 63.5117 125.281 78C114.917 67.743 102.603 59.6089 89.0454 54.065C75.4881 48.521 60.9549 45.6766 46.2808 45.695C46.2808 76.115 58.7892 103.74 79 123.695C50.4283 123.695 21.7908 134.485 0 156C10.3638 166.257 22.6781 174.391 36.2354 179.935C49.7927 185.479 64.3259 188.323 79 188.305C68.6115 198.538 60.3731 210.696 54.7581 224.082C49.1431 237.467 46.2622 251.817 46.2808 266.305C77.0908 266.305 105.07 253.955 125.281 234C125.281 262.21 136.209 290.485 158 312C168.389 301.767 176.627 289.609 182.242 276.223C187.857 262.838 190.738 248.488 190.719 234C201.083 244.257 213.397 252.391 226.955 257.935C240.512 263.479 255.045 266.323 269.719 266.305C269.719 235.82 257.211 208.26 237 188.305C265.572 188.305 294.209 177.515 316 156ZM158 195C147.524 195 137.477 190.891 130.069 183.577C122.662 176.263 118.5 166.343 118.5 156C118.5 145.657 122.662 135.737 130.069 128.423C137.477 121.109 147.524 117 158 117C168.476 117 178.523 121.109 185.931 128.423C193.338 135.737 197.5 145.657 197.5 156C197.5 166.343 193.338 176.263 185.931 183.577C178.523 190.891 168.476 195 158 195Z" fill="#E49E61"/>
</g>
<defs>
<clipPath id="clip0_5_106">
<rect width="316" height="312" fill="white"/>
</clipPath>
</defs>
</svg>
