<svg width="320" height="330" viewBox="0 0 320 330" fill="none" xmlns="http://www.w3.org/2000/svg">
<path d="M7.58675 133.743C6.66563 132.286 4.82332 131.315 5.51417 129.13C8.7381 128.402 6.6656 125.731 7.12616 123.789C8.27757 120.633 6.20503 119.419 3.44165 119.662C2.75081 117.476 4.3628 115.777 5.05365 113.835C6.66562 113.106 6.43535 111.65 6.43535 110.436C7.81704 110.679 9.42896 109.707 10.3501 111.407C10.8106 112.135 9.65923 113.592 11.2712 113.349C12.4226 113.106 13.1135 111.893 12.6529 110.679C11.2712 107.28 12.6529 104.124 12.8832 100.967C17.0283 98.7823 20.9431 96.8401 25.779 97.3256C27.3909 97.5684 29.0029 97.0829 30.1543 95.6262C23.9367 85.9149 23.9367 74.9897 28.7726 65.5213C36.1416 50.9544 49.2676 47.5555 64.4662 51.1972C63.3148 44.8849 64.2359 39.5437 65.8479 33.9597C67.9204 27.1618 76.2105 22.3062 81.9676 21.8206C87.9549 21.3351 93.4816 23.2773 98.7781 25.7051C102.232 27.4046 102.002 27.1618 103.844 23.2773C107.068 16.4794 110.522 9.68154 117.201 5.31148C125.721 -0.0297137 135.162 1.427 141.38 9.92435C141.841 10.6527 142.532 11.381 143.222 11.8666C144.143 12.5949 145.525 12.8377 145.986 11.381C146.907 7.73929 149.67 6.28262 152.203 4.34037C154.276 4.58315 155.658 3.36925 157.5 2.6409C158.421 2.15534 159.572 1.18422 160.493 1.427C164.869 2.39812 169.244 3.12645 172.008 7.25374C172.929 8.71042 173.389 9.68156 175.462 9.19599C176.843 8.71043 177.304 9.92432 177.304 11.381C177.074 12.5949 175.922 13.8089 177.304 15.5083C178.916 15.2655 180.988 14.5372 182.831 14.78C184.212 15.9939 184.443 17.6933 184.443 19.3928C183.291 19.6356 181.679 18.9072 181.219 20.6067C180.528 22.549 182.14 22.7917 183.291 23.0345C184.903 23.5201 186.055 24.9768 187.897 24.4912C188.818 22.7918 187.206 21.5778 187.436 20.1212C189.509 16.965 191.812 14.0516 194.575 11.381C204.707 1.66976 218.755 3.85479 226.124 16.2366C228.657 20.3639 231.19 24.734 232.111 30.318C236.026 27.8902 239.25 25.9479 242.934 24.9768C248 23.5201 253.066 23.2773 257.672 26.919C261.817 30.318 264.581 34.4453 264.12 40.272C263.89 43.4282 264.12 46.8271 263.199 49.9833C262.508 51.9255 262.969 53.3822 265.502 53.3822C268.035 53.1394 270.798 53.625 273.101 52.6538C278.628 50.7116 283.924 52.1683 289.221 54.1105C295.438 56.2956 299.123 63.579 298.202 70.3769C297.05 79.117 294.978 87.3716 288.53 93.6839C288.069 94.1695 287.609 94.8978 287.609 95.6262C287.839 96.8401 288.99 96.5973 289.911 96.8401C294.517 97.3256 298.892 98.2968 303.268 99.5107C311.328 101.696 313.17 108.736 312.709 115.777C312.249 121.118 310.867 126.217 307.643 130.829C304.88 134.714 305.34 135.685 309.025 138.598C317.545 144.911 320.769 153.894 319.848 164.819C319.618 167.975 319.388 170.888 318.927 174.045C317.315 184.241 311.097 191.282 303.268 196.623C302.577 197.109 301.656 197.352 301.195 198.565C301.426 200.508 302.807 201.964 303.728 203.664C307.873 210.462 309.485 218.231 309.025 225.757C308.564 235.225 303.268 242.023 295.208 246.393C289.911 249.307 284.154 250.521 278.167 250.278C277.016 251.492 277.476 252.949 277.937 254.405C279.319 261.446 278.397 267.758 276.095 274.556C273.561 281.839 268.495 286.452 262.969 290.094C259.745 292.036 255.139 293.25 250.764 291.551C247.77 290.337 244.776 289.608 242.013 288.395C239.71 287.423 238.789 287.909 238.098 290.337C236.947 294.707 236.026 299.32 232.802 302.719C231.19 302.476 230.269 303.204 230.269 304.904C228.657 304.904 227.505 305.875 226.584 307.089C224.972 308.545 222.9 309.517 221.057 309.031C217.833 308.06 215.3 308.545 213.688 311.216C211.846 310.002 214.379 307.574 211.846 307.331C210.234 307.089 207.931 306.36 207.471 308.545C206.319 313.158 204.707 311.459 201.944 310.002C200.102 309.031 198.26 308.545 196.878 307.089C195.266 305.147 193.424 305.389 191.351 306.36C191.812 303.933 191.351 301.748 188.588 301.505C186.285 301.262 186.055 302.961 186.055 304.904C185.824 305.632 185.594 306.36 185.364 307.331C182.831 308.06 181.219 309.274 182.6 312.43C182.831 313.158 182.831 313.887 182.831 314.615C181.91 317.771 179.837 319.713 177.074 321.413C174.771 321.413 173.619 323.112 172.698 325.055C172.008 325.055 171.086 324.812 170.626 325.297C167.632 327.24 164.638 327.968 160.954 326.511C158.881 325.783 157.27 326.754 156.118 328.939C149.67 329.425 144.834 326.268 140.459 321.898C137.465 318.985 134.472 315.586 133.551 310.973C133.32 309.517 131.939 309.274 131.017 310.488C129.866 311.459 129.175 312.916 128.254 314.129C127.333 315.343 126.412 316.8 125.26 317.528C120.194 320.685 114.207 320.927 108.91 320.927C104.075 320.927 99.9295 317.286 96.7055 312.673C92.7908 307.332 90.488 301.262 89.3366 294.707C89.1063 293.25 89.1063 291.551 87.7246 290.094C84.5006 292.522 80.8161 293.493 77.1316 294.464C61.012 298.834 45.3529 286.452 47.6557 269.7C48.3465 264.845 49.7282 260.717 51.8007 256.59C52.031 255.862 52.4916 255.134 51.8007 254.405C51.1099 253.677 50.419 253.92 49.7282 254.162C44.662 256.833 39.3655 257.319 33.8388 256.105C27.1606 254.648 22.0945 251.249 17.9494 245.422C8.96844 233.526 14.9558 210.947 29.4635 203.664C29.924 203.421 30.3846 203.178 31.536 202.45C26.2395 200.751 21.6339 199.051 16.5677 197.837C9.65927 196.38 4.59309 191.525 1.59943 185.455C-1.16395 179.629 -0.0125531 172.588 2.52054 166.276C5.28392 158.992 9.88951 153.408 15.8768 149.038C18.6402 147.096 18.4099 147.096 15.8768 144.182C14.7254 142.726 13.574 141.269 12.4226 139.812C11.2712 137.142 10.8107 134.471 7.58675 133.743ZM8.50787 116.505C7.58674 116.748 6.66559 116.748 6.89587 117.962C6.89587 118.205 7.12616 118.205 7.12616 118.448C8.27757 118.205 8.27758 117.234 8.50787 116.505C8.96843 116.263 9.19872 116.02 8.73816 116.02C8.73816 116.02 8.50787 116.263 8.50787 116.505Z" fill="#FA9768"/>
<path d="M190.66 306.603C192.733 305.632 194.575 305.632 196.187 307.332C197.569 309.031 199.641 309.274 201.253 310.245C203.786 311.702 205.629 313.158 206.78 308.788C207.241 306.603 209.543 307.332 211.155 307.574C213.458 307.817 211.155 310.488 212.998 311.459C214.609 308.545 217.143 308.06 220.367 309.274C222.209 309.759 224.281 308.788 225.893 307.332C227.045 306.36 227.966 305.146 229.578 305.146C229.578 305.389 229.578 305.632 229.347 305.632C225.893 310.73 214.149 315.586 208.392 314.858C203.556 314.129 198.95 313.158 194.805 310.73C193.193 309.517 191.121 308.788 190.66 306.603Z" fill="#FAA57B"/>
<path d="M182.831 15.2655C180.758 15.0227 178.916 15.7511 177.304 15.9939C175.922 14.2944 177.074 13.0805 177.304 11.8666C177.534 10.4099 176.844 9.19597 175.462 9.68153C173.389 10.1671 172.929 8.95318 172.008 7.73927C169.244 3.36921 164.639 2.64088 160.494 1.91253C159.573 1.66975 158.421 2.64088 157.5 3.12644C155.888 3.85478 154.276 5.06868 152.203 4.8259C153.815 1.42696 157.039 0.941391 159.803 0.455829C165.329 -0.515297 171.087 -0.272486 175.232 4.58314C178.456 7.7393 181.219 10.8954 182.831 15.2655Z" fill="#FAA57B"/>
<path d="M12.8834 101.21C12.6531 104.366 11.2714 107.765 12.6531 110.921C13.1137 112.135 12.4228 113.349 11.2714 113.592C9.65943 113.835 10.5806 112.378 10.3503 111.65C9.42916 109.95 7.81723 110.921 6.43555 110.678C7.35667 106.551 9.19889 103.152 12.8834 101.21Z" fill="#FAA57B"/>
<path d="M155.427 328.697C156.579 326.754 158.421 325.54 160.263 326.269C163.717 327.725 166.941 326.997 169.935 325.055C170.395 324.812 171.317 324.812 172.007 324.812C171.777 325.298 171.777 326.269 171.547 326.269C166.481 329.182 161.184 331.124 155.427 328.697Z" fill="#FAA57B"/>
<path d="M3.44168 119.904C6.43533 119.661 8.2776 120.875 7.12619 124.031C6.43535 125.731 8.73813 128.644 5.5142 129.373C3.67195 126.459 3.2114 123.303 3.44168 119.904Z" fill="#FAA57B"/>
<path d="M187.436 20.6065C187.206 22.0632 188.818 23.2771 187.897 24.9766C186.055 25.4622 184.903 24.0055 183.291 23.5199C182.14 23.2771 180.528 23.0343 181.219 21.0921C181.679 19.3926 183.291 19.8782 184.443 19.8782C185.364 20.6065 186.055 21.3349 187.436 20.6065Z" fill="#FAA57B"/>
<path d="M182.14 314.615C182.14 313.887 182.14 313.159 181.91 312.43C180.528 309.274 182.14 308.06 184.673 307.332C185.364 310.488 184.443 312.673 182.14 314.615Z" fill="#FAA57B"/>
<path d="M185.364 304.904C185.364 303.204 185.594 301.505 187.897 301.505C190.891 301.748 191.121 303.69 190.66 306.361C188.818 306.118 187.436 304.175 185.364 304.904Z" fill="#FAA57B"/>
<path d="M7.58667 133.743C10.8106 134.228 11.5014 136.899 11.7317 139.812C9.19861 138.598 7.81695 136.899 7.58667 133.743Z" fill="#FAA57B"/>
<path d="M172.008 324.812C172.929 322.869 174.08 321.413 176.383 321.17C175.922 323.841 174.311 324.812 172.008 324.812Z" fill="#FAA57B"/>
<path d="M6.20521 110.679C6.20521 112.135 6.43548 113.592 4.82351 114.078C4.13267 112.378 4.82352 111.407 6.20521 110.679Z" fill="#FAA57B"/>
<path d="M229.578 305.147C229.578 303.447 230.499 302.719 232.111 302.962C231.65 304.175 230.96 305.147 229.578 305.147Z" fill="#FAA57B"/>
<path d="M8.50789 116.505C8.27761 117.234 8.2776 118.448 7.12619 118.205C6.89591 118.205 6.8959 117.962 6.8959 117.719C6.66562 116.505 7.58677 116.505 8.50789 116.505Z" fill="#FAA57B"/>
<path d="M8.50781 116.506C8.50781 116.263 8.73811 116.02 8.73811 116.02C9.19867 116.02 8.96837 116.263 8.50781 116.506Z" fill="#FAA57B"/>
</svg>
