<svg width="315" height="309" viewBox="0 0 315 309" fill="none" xmlns="http://www.w3.org/2000/svg">
<path d="M213 151C213 178.614 188.376 201 158 201C127.624 201 103 178.614 103 151C103 123.386 127.624 101 158 101C188.376 101 213 123.386 213 151Z" fill="#FEEE96"/>
<path d="M229.245 177.867L265.118 189.586C270.808 191.461 276.871 191.981 282.807 191.101C288.742 190.222 294.379 187.969 299.253 184.528C304.126 181.087 308.096 176.557 310.834 171.313C313.572 166.068 315 160.259 315 154.366C315 148.472 313.572 142.664 310.834 137.419C308.096 132.175 304.126 127.645 299.253 124.204C294.379 120.763 288.742 118.51 282.807 117.63C276.871 116.751 270.808 117.271 265.118 119.146L229.245 130.865C223.533 132.77 217.437 133.3 211.473 132.41C214.817 127.903 219.342 124.039 225.113 121.142L258.953 104.53C264.34 101.914 269.015 98.0765 272.59 93.3343C276.166 88.592 278.54 83.0818 279.516 77.2597C280.491 71.4377 280.04 65.4712 278.2 59.8542C276.36 54.2373 273.184 49.1314 268.934 44.9592C264.685 40.787 259.484 37.6686 253.763 35.8621C248.042 34.0555 241.965 33.6128 236.035 34.5705C230.105 35.5283 224.493 37.859 219.663 41.3697C214.833 44.8804 210.924 49.4701 208.259 54.7589L191.34 87.9827C188.661 93.2846 184.725 97.8776 179.863 101.375C178.956 95.5191 179.496 89.5347 181.437 83.9263L193.373 48.7065C195.245 43.1351 195.744 37.207 194.829 31.4093C193.914 25.6116 191.612 20.1097 188.11 15.3555C184.609 10.6014 180.008 6.73064 174.687 4.06125C169.366 1.39186 163.476 0 157.5 0C151.524 0 145.634 1.39186 140.313 4.06125C134.992 6.73064 130.391 10.6014 126.89 15.3555C123.388 20.1097 121.086 25.6116 120.171 31.4093C119.256 37.207 119.755 43.1351 121.628 48.7065L133.563 83.9263C135.504 89.5347 136.044 95.5191 135.137 101.375C130.273 97.8794 126.337 93.286 123.66 87.9827L106.741 54.7589C104.076 49.4701 100.167 44.8804 95.3373 41.3697C90.5072 37.859 84.8948 35.5283 78.9649 34.5705C73.0349 33.6128 66.9578 34.0555 61.2368 35.8621C55.5157 37.6686 50.3152 40.787 46.0657 44.9592C41.8162 49.1314 38.64 54.2373 36.8 59.8542C34.9599 65.4712 34.509 71.4377 35.4845 77.2597C36.46 83.0818 38.8339 88.592 42.4097 93.3343C45.9854 98.0765 50.6602 101.914 56.047 104.53L89.821 121.142C95.2688 123.754 99.9934 127.62 103.593 132.41C97.8874 133.311 91.7884 132.861 85.755 130.865L49.8825 119.146C44.1919 117.271 38.1286 116.751 32.1932 117.63C26.2578 118.51 20.6206 120.763 15.7473 124.204C10.8739 127.645 6.90429 132.175 4.16616 137.419C1.42804 142.664 0 148.472 0 154.366C0 160.259 1.42804 166.068 4.16616 171.313C6.90429 176.557 10.8739 181.087 15.7473 184.528C20.6206 187.969 26.2578 190.222 32.1932 191.101C38.1286 191.981 44.1919 191.461 49.8825 189.586L85.755 177.867C91.4674 175.961 97.5627 175.431 103.527 176.322C99.9667 181.098 95.2882 184.962 89.8866 187.59L56.047 204.202C50.6602 206.817 45.9854 210.655 42.4097 215.397C38.8339 220.14 36.46 225.65 35.4845 231.472C34.509 237.294 34.9599 243.261 36.8 248.877C38.64 254.494 41.8162 259.6 46.0657 263.773C50.3152 267.945 55.5157 271.063 61.2368 272.87C66.9578 274.676 73.0349 275.119 78.9649 274.161C84.8948 273.203 90.5072 270.873 95.3373 267.362C100.167 263.851 104.076 259.262 106.741 253.973L123.66 220.813C126.321 215.465 130.258 210.826 135.137 207.292C136.055 212.894 135.596 218.882 133.563 224.805L121.628 260.025C119.717 265.612 119.188 271.565 120.084 277.393C120.98 283.22 123.274 288.755 126.779 293.539C130.284 298.324 134.897 302.221 140.239 304.91C145.581 307.598 151.497 309 157.5 309C163.503 309 169.419 307.598 174.761 304.91C180.103 302.221 184.716 298.324 188.221 293.539C191.726 288.755 194.02 283.22 194.916 277.393C195.812 271.565 195.283 265.612 193.373 260.025L181.437 224.805C179.496 219.197 178.956 213.213 179.863 207.356C184.454 210.64 188.388 215.083 191.34 220.813L208.259 253.973C210.939 259.241 214.855 263.808 219.686 267.298C224.516 270.788 230.122 273.1 236.042 274.045C241.962 274.989 248.026 274.539 253.733 272.731C259.441 270.922 264.629 267.808 268.87 263.645C273.11 259.481 276.282 254.387 278.124 248.783C279.966 243.18 280.425 237.226 279.462 231.415C278.5 225.603 276.145 220.098 272.59 215.356C269.036 210.613 264.384 206.768 259.019 204.137L225.179 187.59C219.731 184.977 215.007 181.112 211.407 176.322C217.113 175.42 223.212 175.871 229.245 177.867ZM157.5 192.998C147.064 192.998 137.056 188.928 129.677 181.683C122.297 174.438 118.152 164.612 118.152 154.366C118.152 144.12 122.297 134.294 129.677 127.049C137.056 119.804 147.064 115.734 157.5 115.734C167.936 115.734 177.944 119.804 185.323 127.049C192.703 134.294 196.848 144.12 196.848 154.366C196.848 164.612 192.703 174.438 185.323 181.683C177.944 188.928 167.936 192.998 157.5 192.998Z" fill="#EC9395"/>
</svg>
