<svg width="134" height="205" viewBox="0 0 134 205" fill="none" xmlns="http://www.w3.org/2000/svg">
<path d="M61.8346 106.488C59.8134 106.488 57.7923 106.307 55.9957 106.307C50.3813 106.488 46.1144 104.137 42.5211 101.061C31.2923 91.1121 20.962 80.4393 12.8772 68.8619C7.71196 61.6261 3.66938 54.0284 1.42362 45.7072C-0.822144 37.5669 -0.597513 29.4266 3.44486 21.4671C6.58892 15.3167 12.6524 13.1459 20.5126 15.3167C25.2287 16.583 29.9448 17.6683 33.7626 20.5627C34.8855 18.9346 34.8857 17.3065 35.3348 15.6785C37.5806 9.528 41.3984 4.28203 48.8094 1.38769C54.4238 -0.96396 60.2628 -0.0594906 65.6526 2.11126C71.267 4.28201 74.1862 8.08084 75.5337 12.6032C76.2074 14.9549 77.3305 15.4976 80.25 14.9549C90.5805 12.7841 97.9915 18.0301 100.686 24.5424C101.809 27.4367 103.83 29.9693 104.504 33.0445C106.974 43.7174 107.199 54.3902 104.729 64.8822C103.157 71.5753 99.3389 77.9067 95.072 84.0572C92.1525 88.3987 89.6821 93.102 85.1906 96.7199C80.0253 100.881 74.4109 104.318 67.2245 105.765C65.4279 105.584 63.4067 105.041 61.8346 106.488Z" fill="#E56D6A"/>
<path d="M17.144 159.31C16.6949 158.587 16.0212 158.044 15.5721 157.32C15.3475 157.139 14.8983 156.778 14.6737 156.597C14 156.054 13.5508 155.511 13.7754 154.788C15.572 153.341 13.1017 152.074 13.3263 150.627C14.2246 150.446 15.1228 150.627 14.8982 149.542C14.8982 149.361 14.6737 149.361 14.6737 149.18C13.5508 149.18 13.5509 149.904 13.3263 150.446C12.428 150.808 11.7543 151.17 10.856 151.532C10.6315 151.17 10.4067 150.627 10.4067 150.265C11.0805 148.999 12.8772 147.733 10.856 146.467C9.73316 145.743 7.4874 145.562 10.856 145.019C12.2035 144.839 11.5297 143.753 11.0806 143.391C8.8348 140.316 6.36452 137.241 4.11876 134.166C4.11876 133.985 3.89402 133.985 3.66944 133.985C3.44487 132.357 4.34339 130.91 5.01712 129.462C8.61033 121.322 19.39 121.322 25.229 125.844C31.0679 130.367 34.8856 135.975 39.1526 141.402C41.6229 144.477 43.6441 147.914 45.8899 151.17C45.6653 157.32 46.5635 158.768 53.0762 160.938C53.5253 161.662 53.9746 162.566 54.6484 163.29C54.8729 164.918 55.0975 166.727 58.017 166.908C57.5679 169.983 56.2204 172.877 60.2628 175.229C61.3857 175.953 62.7331 176.314 63.8559 176.857C65.2034 177.581 66.5509 179.028 65.8772 180.113C64.9789 181.56 63.4069 180.294 62.284 179.751C61.6103 179.39 60.9364 179.209 60.4873 179.751C60.0381 180.475 60.4874 181.018 61.1611 181.56C63.6315 183.188 66.5508 183.008 69.4703 183.188C74.1864 183.731 76.4323 182.284 78.2289 179.209C81.8221 176.314 83.1696 172.335 85.8645 168.898C89.6823 164.194 93.4999 159.129 97.7669 154.607C101.136 150.989 104.953 147.552 109.67 145.019C114.161 142.487 119.102 141.04 124.491 141.04C131.004 141.04 132.801 145.019 133.699 149.542C135.046 155.692 131.678 160.757 127.411 165.461C124.716 168.536 122.47 171.792 119.102 174.325C114.61 177.762 110.568 181.56 106.301 184.997C103.831 186.987 100.911 188.796 98.4407 190.786C94.3983 193.861 90.1314 196.756 84.9661 198.384C81.1483 199.65 78.6779 202.544 75.3093 204.534C73.9618 204.534 73.2881 203.811 72.839 203.087C70.3686 199.831 66.7753 197.298 63.1821 195.128C53.7499 189.52 45.4406 183.008 37.1313 176.495C30.1695 171.249 24.1059 165.461 18.0424 159.672C17.5932 159.672 17.3686 159.491 17.144 159.31ZM28.3728 147.19C28.1482 147.914 27.0255 148.456 27.9238 148.999C28.5975 149.361 29.2711 148.637 29.4957 148.276C30.394 147.371 29.4957 147.19 28.3728 147.19C28.822 146.286 27.0255 145.2 29.0466 144.477C31.0678 143.934 30.8433 142.849 29.945 141.763C29.0467 140.678 28.5974 139.231 27.2499 138.507C24.3304 137.06 22.7585 134.889 21.1865 132.538C20.0636 133.08 20.2881 133.623 20.5126 134.166C20.9618 136.156 18.716 138.145 20.5126 139.954C21.8601 141.582 25.0042 142.487 23.8813 145.2C23.8813 145.381 25.0043 145.924 25.4535 146.105C26.3518 146.647 27.4745 146.828 28.3728 147.19ZM31.9662 146.286C32.1908 147.914 29.9448 149.361 31.7414 151.351C33.9872 153.522 35.784 155.873 40.0509 156.597C38.4789 152.255 34.6612 149.542 31.9662 146.286ZM14.8982 144.839C15.572 142.306 14.8984 139.954 12.2034 137.603C12.2034 140.678 12.2033 143.03 14.8982 144.839ZM25.229 150.446C25.229 149.904 25.0043 149.542 24.3306 149.542C23.2077 149.723 22.3094 150.085 22.3094 151.17C22.3094 151.713 22.534 152.074 23.2077 152.074C24.5552 152.074 24.7798 151.17 25.229 150.446ZM69.6949 186.806C69.9194 186.626 70.144 186.264 69.9194 186.083C69.9194 185.902 69.4704 185.902 69.0213 185.721C68.7967 185.902 68.5719 186.264 68.7965 186.445C69.0211 186.626 69.4703 186.626 69.6949 186.806ZM45.216 163.652C44.9914 163.471 44.9915 163.109 44.767 163.109C44.5424 163.109 44.0931 163.29 44.0931 163.471C43.8686 163.833 44.0932 164.194 44.767 164.194C44.9915 164.194 44.9914 163.833 45.216 163.652ZM18.7162 131.271C18.4916 130.91 18.4915 130.729 18.2669 130.548C18.0423 130.91 17.5934 131.09 17.3688 131.452C17.1442 131.814 17.3686 132.357 18.0424 132.176C18.2669 131.995 18.4916 131.452 18.7162 131.271ZM42.9703 160.034C42.7457 160.215 42.5212 160.396 42.5212 160.576C42.5212 160.757 42.7457 160.938 42.9703 161.3C43.1948 161.119 43.4196 160.938 43.4196 160.757C43.4196 160.396 43.1948 160.215 42.9703 160.034Z" fill="#89AB69"/>
<path d="M78.0041 179.389C76.2075 182.464 73.9617 183.911 69.2456 183.369C66.3261 183.007 63.4065 183.369 60.9361 181.741C60.0378 181.198 59.5889 180.655 60.2626 179.932C60.7117 179.208 61.6099 179.57 62.059 179.932C63.1819 180.474 64.7542 181.741 65.6525 180.294C66.3262 179.208 64.9787 177.761 63.6312 177.037C62.5083 176.314 61.1609 176.133 60.0381 175.409C55.9957 173.058 57.3431 169.982 57.7923 167.088C62.2838 171.249 64.9786 176.495 69.4701 181.017C69.4701 177.58 69.9193 174.505 69.4701 171.43C68.3473 163.651 68.3472 155.873 67.4489 148.094C66.7752 142.848 66.3262 137.421 65.6525 132.175C67.6736 132.175 69.6946 132.175 72.1649 132.175C69.9192 130.728 67.6734 130.366 65.4277 130.547C64.7539 129.643 64.305 128.919 64.7541 127.834C65.6524 127.834 67.2244 127.653 66.9999 127.291C65.4278 124.578 68.1228 123.311 70.144 122.045C67.2245 119.512 66.326 122.769 64.3048 122.769C62.7328 117.342 62.2836 111.734 62.059 106.307C63.6311 105.041 65.6523 105.403 67.4489 105.583C68.7964 111.01 70.3684 116.618 71.7159 122.045C73.2879 128.376 74.1862 134.708 75.0845 141.22C76.8812 152.797 76.8812 164.375 78.2287 175.952C78.2287 177.218 78.0041 178.304 78.0041 179.389ZM70.8175 129.1C71.2667 129.1 71.2666 128.919 71.0421 128.557C71.0421 128.557 70.8176 128.557 70.593 128.557C70.8176 128.919 70.8175 129.1 70.8175 129.1Z" fill="#9BB982"/>
<path d="M3.66957 134.166C3.89414 134.166 4.11888 134.346 4.11888 134.346C6.36464 137.422 8.83493 140.497 11.0807 143.572C11.5298 144.115 12.2036 145.019 10.8562 145.2C7.48752 145.743 9.50871 145.924 10.8562 146.647C12.8773 147.914 11.0806 149.18 10.4068 150.446C4.3433 145.924 1.42381 140.678 3.66957 134.166Z" fill="#9BB982"/>
<path d="M52.8514 161.119C46.5633 158.948 45.4405 157.501 45.6651 151.351C48.8092 154.426 51.504 157.501 52.8514 161.119Z" fill="#9BB982"/>
<path d="M64.3049 122.95C66.3261 123.131 67.2246 119.875 70.1441 122.227C68.1229 123.493 65.428 124.578 67 127.473C67.2246 128.015 65.6525 128.015 64.7542 128.015C64.0805 126.387 63.8558 124.578 64.3049 122.95Z" fill="#89AB69"/>
<path d="M65.2032 130.728C67.449 130.547 69.6948 130.909 71.9405 132.356C69.4702 132.356 67.449 132.356 65.4278 132.356C65.4278 131.813 65.4278 131.271 65.2032 130.728Z" fill="#89AB69"/>
<path d="M13.3262 150.626C13.1017 152.074 15.3473 153.34 13.7753 154.787C11.9787 154.244 11.3051 152.978 10.856 151.531C11.7543 151.35 12.6525 150.988 13.3262 150.626Z" fill="#9BB982"/>
<path d="M57.7925 167.089C54.873 166.908 54.6484 165.28 54.4238 163.471C56.445 164.194 56.8942 165.641 57.7925 167.089Z" fill="#9BB982"/>
<path d="M17.1439 159.31C17.3685 159.491 17.5932 159.672 17.8178 159.853C17.3686 159.853 17.1439 159.672 17.1439 159.31Z" fill="#9BB982"/>
<path d="M14.6737 156.596C14.8983 156.777 15.3475 157.139 15.5721 157.32C14.8983 157.32 14.6737 157.139 14.6737 156.596Z" fill="#9BB982"/>
<path d="M28.3728 147.19C27.4745 146.828 26.3518 146.647 25.4535 146.285C24.7798 146.105 23.6567 145.562 23.8813 145.381C25.0042 142.668 22.0847 141.763 20.5127 140.135C18.716 138.145 20.9618 136.155 20.5127 134.346C20.2881 133.804 20.0636 133.261 21.1865 132.718C22.7585 135.07 24.3304 137.241 27.2499 138.688C28.3728 139.231 29.0467 140.678 29.945 141.944C30.8433 143.029 31.0678 144.115 29.0467 144.657C27.0255 145.2 28.822 146.285 28.3728 147.19Z" fill="#9BB982"/>
<path d="M31.9663 146.285C34.6612 149.541 38.4789 152.255 40.2755 156.596C36.0085 155.873 33.9875 153.521 31.9663 151.35C29.9451 149.36 32.1909 147.913 31.9663 146.285Z" fill="#9BB982"/>
<path d="M14.8982 144.838C12.2033 142.849 12.4279 140.497 12.2034 137.603C14.8983 139.954 15.3473 142.306 14.8982 144.838Z" fill="#9BB982"/>
<path d="M25.2289 150.446C25.0043 151.35 24.5551 152.074 23.2077 152.074C22.534 152.074 22.3093 151.712 22.3093 151.17C22.3093 150.084 23.2077 149.722 24.3306 149.542C24.7797 149.542 25.2289 149.903 25.2289 150.446Z" fill="#94B278"/>
<path d="M28.5974 147.189C29.4957 147.37 30.6186 147.37 29.7203 148.456C29.2711 148.818 28.5972 149.541 28.1481 149.179C27.0252 148.456 28.3728 147.913 28.5974 147.189Z" fill="#9BB982"/>
<path d="M69.6949 186.806C69.4703 186.625 69.0211 186.625 68.7965 186.444C68.7965 186.263 69.0213 185.902 69.0213 185.721C69.2459 185.902 69.6948 185.902 69.9194 186.082C70.144 186.263 69.9194 186.444 69.6949 186.806Z" fill="#9BB982"/>
<path d="M45.216 163.652C44.9914 163.832 44.767 164.194 44.5425 164.194C43.8687 164.194 43.644 163.832 43.8686 163.471C43.8686 163.29 44.3179 163.109 44.5425 163.109C44.9916 163.109 44.9914 163.471 45.216 163.652Z" fill="#9BB982"/>
<path d="M13.3263 150.627C13.5509 149.903 13.5508 149.18 14.6737 149.361C14.8983 149.361 14.8982 149.541 14.8982 149.722C15.1228 150.627 14.2246 150.627 13.3263 150.627Z" fill="#9BB982"/>
<path d="M18.7162 131.271C18.4916 131.452 18.2669 131.995 18.0424 131.995C17.3686 132.176 17.1442 131.633 17.3688 131.271C17.5934 130.909 18.0423 130.728 18.2669 130.367C18.4914 130.728 18.4916 130.909 18.7162 131.271Z" fill="#9BB982"/>
<path d="M42.9703 160.034C43.1949 160.215 43.4196 160.395 43.4196 160.757C43.4196 160.938 43.1949 161.119 42.9703 161.3C42.7457 161.119 42.5212 160.938 42.5212 160.576C42.5212 160.395 42.9703 160.215 42.9703 160.034Z" fill="#9BB982"/>
<path d="M70.8178 129.1C70.8178 128.919 70.8178 128.919 70.5933 128.739C70.8178 128.739 71.0423 128.558 71.0423 128.739C71.4915 129.1 71.2669 129.281 70.8178 129.1Z" fill="#89AB69"/>
</svg>
