<svg width="182" height="65" viewBox="0 0 182 65" fill="none" xmlns="http://www.w3.org/2000/svg">
<path d="M172.178 18.8904C173.994 18.7252 175.81 19.7159 177.46 20.0461C180.762 20.7065 181.422 23.1831 181.918 25.8248C182.248 27.3107 181.587 28.7967 179.937 29.292C177.295 30.2826 175.314 32.0988 172.343 32.9243C172.838 34.5754 173.829 35.7311 174.654 37.052C176.8 39.8588 178.121 42.9958 175.315 46.2979C175.149 46.6281 174.819 46.9583 174.819 47.2885C174.819 52.737 170.692 52.737 166.896 53.0672C165.08 53.0672 164.749 53.8927 165.74 55.3787C165.74 55.7089 165.905 55.874 165.905 56.2042C164.584 56.5344 162.934 56.6995 162.769 58.5157C162.603 58.6808 162.438 58.6808 162.273 58.6808C161.448 58.6808 160.457 58.3506 159.632 58.6808C157.486 59.3412 154.845 59.3412 154.184 62.3131C153.689 62.6433 153.194 62.6433 152.534 62.4782C152.203 62.148 151.873 61.4876 151.543 61.3225C148.242 60.8271 144.775 60.1667 141.638 61.6527C140.648 61.9829 139.988 61.1574 139.162 60.8272C138.997 60.662 138.667 60.3318 138.502 60.1667C140.978 57.6901 144.115 56.0391 146.591 53.3974C149.067 50.9208 151.543 48.4442 154.184 46.1328C160.787 40.189 167.226 34.4103 173.333 27.9712C175.48 25.8248 175.15 24.5039 172.673 23.018C169.867 21.3669 169.867 21.3669 167.556 23.5133C165.245 25.6597 162.934 27.806 160.622 29.9524C156 34.4103 151.543 39.1983 146.756 43.326C142.134 47.2885 137.841 51.4161 134.375 56.5344C133.219 58.1855 132.724 59.6714 132.889 61.6527C132.394 61.6527 131.733 61.6527 131.238 61.6527C131.073 61.3225 131.073 60.8272 130.908 60.8272C130.413 60.8272 130.413 61.3225 130.413 61.6527C123.314 61.4876 116.216 62.4782 109.118 62.3131C109.283 60.6621 110.603 59.8365 111.759 58.8459C117.867 53.0672 123.81 47.1234 129.918 41.5098C134.375 37.5473 137.346 32.2639 141.803 28.1363C144.114 26.155 145.765 23.5133 148.076 21.6971C152.203 18.5601 155.505 14.5976 159.302 11.1304C160.787 9.80956 161.613 8.32361 161.283 6.34234C161.613 6.34234 161.778 6.34234 162.108 6.34234L162.273 6.67254L162.438 6.50744L162.108 6.34234C163.099 5.1866 164.089 4.85638 165.41 6.01212C165.905 6.34233 166.4 6.34233 166.73 5.84702C168.216 5.51681 169.537 6.01212 170.692 6.67254C171.353 8.3236 171.848 9.80955 169.041 9.64445C168.381 9.64445 167.556 10.1398 166.896 10.3049C166.73 9.80956 166.73 8.98402 165.905 9.14913C165.74 9.14913 165.74 9.31424 165.575 9.47935C165.41 10.3049 166.235 10.3049 166.73 10.47C167.391 11.4606 165.575 12.9466 167.226 13.607C168.381 14.1023 168.546 14.5976 168.711 15.9185C169.207 17.2393 170.032 19.0555 172.178 18.8904Z" fill="#FAC95D"/>
<path d="M122.654 2.87522C125.626 2.2148 128.432 3.04033 131.238 3.04033C131.568 3.37054 131.734 3.70075 132.064 3.86585C136.521 4.52628 141.143 3.70075 145.6 4.85648C148.242 3.20543 150.388 5.84712 152.864 5.68201C153.029 5.68201 153.359 6.34243 153.524 6.67264C151.708 8.4888 149.727 10.1399 147.911 11.956C143.785 16.0837 139.327 19.8811 135.696 24.3389C130.578 30.4478 124.8 35.8963 119.353 41.5099C114.235 46.7933 108.788 51.7464 103.505 56.8647C101.689 58.6809 100.864 60.8273 101.194 63.3038C94.9209 64.2945 88.6479 64.6247 82.3749 64.4596C79.8987 64.4596 77.4225 65.12 74.9463 64.4596C75.4415 63.7991 75.9368 63.3038 76.432 62.6434C78.2479 60.497 80.8892 59.3413 82.54 57.0298C86.1717 52.0767 91.2892 48.2792 95.086 43.4912C97.8923 40.024 101.359 37.2172 104.33 33.9151C110.604 26.6504 116.546 19.2207 123.315 12.4513C126.286 9.47944 126.286 8.15859 123.315 5.18669C122.984 4.19606 122.819 3.70075 122.654 2.87522Z" fill="#FAC95D"/>
<path d="M12.0508 11.2956C13.7016 7.49817 16.8381 5.1867 20.6349 5.3518C24.2667 5.3518 27.8984 5.5169 31.5301 6.34243C35.1619 7.33306 39.1238 6.67264 42.5905 7.99349C43.2508 8.15859 44.2413 8.15858 44.9016 7.66327C47.708 5.682 50.6793 4.69137 54.146 5.02158C55.6317 5.18669 57.1174 3.70074 58.7682 4.19605C58.438 5.682 57.7777 6.83775 56.7872 7.99349C49.6888 14.9279 43.5809 22.853 36.8127 30.1176C30.3746 37.2172 24.5968 44.812 18.3238 52.0767C15.6825 55.0486 15.8476 56.2043 18.4889 59.3413C18.8191 59.6715 18.9841 60.0017 19.1492 60.3319C15.6825 60.3319 12.3809 60.3319 8.91422 60.1668C5.9428 60.1668 4.62218 59.1762 4.29202 57.36C3.96186 55.2137 5.94282 51.5813 7.59361 50.7558C9.40948 49.9303 11.5556 50.2605 13.5365 48.4443C9.40954 45.8026 4.62222 44.3167 1.65079 40.3542C1.65079 38.2078 2.14603 36.0614 0 34.5755C0.660317 29.6223 1.81585 28.6317 7.09839 28.3015C8.41903 28.4666 9.57458 28.4666 9.57458 26.6504C9.57458 25.1645 9.90474 23.8436 11.2254 22.853C12.0508 22.3577 11.8857 21.2019 11.8857 20.3764C12.7111 20.7066 13.5365 21.367 14.3619 20.3764C15.0222 19.5509 15.8476 19.3858 16.673 20.3764C17.1682 21.0368 17.1683 21.6972 16.5079 22.5228C14.8571 24.6691 15.0222 24.6691 17.3333 25.4947C19.3143 26.1551 21.2952 26.1551 23.1111 25.8249C26.5778 25.1645 27.5682 23.1832 26.9079 18.5602C26.0825 22.3577 22.946 18.5602 21.6254 20.8717L20.9651 20.7066C20.8 19.0556 18.4889 18.3951 18.4889 16.9092C18.3238 14.4326 16.8381 13.6071 14.8571 13.1118C13.5365 13.1118 12.7111 12.1211 12.0508 11.2956ZM31.8603 29.7874C31.3651 29.2921 30.8698 28.9619 30.3745 28.4666C29.5491 27.8062 28.7238 27.4759 28.0635 28.4666C27.5683 29.4572 27.4031 30.6129 28.2285 31.4385C28.8888 32.0989 29.5492 31.6036 30.2095 30.9432C30.7047 30.4478 31.2 30.1176 31.8603 29.7874Z" fill="#FAC95D"/>
<path d="M113.245 2.37977C114.07 2.21466 114.895 2.37976 115.556 2.70997C115.721 3.37039 115.886 3.86572 116.711 3.86572C117.702 3.86572 117.867 3.20529 118.032 2.54487C118.857 2.37976 119.683 2.37976 120.508 2.70997C120.673 4.36103 119.518 5.51677 118.692 6.5074C111.594 14.7627 104.33 22.8529 97.0668 30.943C91.289 37.3821 85.1811 43.491 79.2382 49.5999C77.0922 51.7463 74.9461 53.8927 72.8001 56.0391C70.8191 58.1854 69.1684 60.662 70.6541 63.799C69.6636 63.9641 68.508 64.1292 67.5175 63.9641C60.9144 63.1386 54.3112 63.1386 47.708 62.9735C48.0382 60.9922 50.5144 62.148 51.0096 60.662C52.1652 57.1948 57.2827 56.3693 56.9525 51.9114C56.9525 51.7463 57.6128 51.4161 57.9429 51.4161C58.9334 51.0859 59.7588 50.2604 60.4191 49.4348C65.0414 44.4817 69.4985 39.3634 73.9557 34.08C79.5684 27.1456 85.3462 20.5414 91.6192 14.1023C92.9398 12.7814 94.5906 11.6257 95.7462 9.97462C98.5525 6.01209 98.7176 6.1772 97.0668 2.04956C102.019 2.21467 107.137 2.37977 112.089 2.37977C112.254 3.3704 112.749 3.20529 113.245 2.37977Z" fill="#FAC95D"/>
<path d="M44.4065 63.3038C38.9589 63.4689 33.8414 62.6434 28.724 60.6621C26.4129 59.6715 23.7716 60.6621 21.2954 60.1668C24.1018 56.6996 26.4129 52.9021 29.7145 49.7651C32.6859 47.1234 34.6669 43.6562 37.4733 40.8494C41.2701 36.8869 43.416 31.4384 48.5335 28.6316C49.3589 28.1363 49.8541 27.3108 50.1843 26.4852C50.8446 24.9993 51.8351 23.8436 52.9907 22.6878C57.4478 18.5602 61.2446 13.7721 65.3716 9.47939C66.8573 7.82833 68.5081 6.34238 69.0034 4.0309C70.4891 3.04027 72.305 3.20537 73.9558 3.37047C77.0923 3.37047 80.2288 3.20537 83.0351 1.88452C86.0066 1.88452 88.978 2.04964 91.9495 2.04964C89.8034 5.68196 86.5018 8.32364 83.6955 11.4606C80.3939 15.2581 76.7621 18.5602 73.4605 22.3576C68.8383 27.9712 64.3811 33.5848 59.5938 38.8682C54.6415 44.3166 49.8541 49.9302 45.2319 55.5438C43.5811 58.0204 42.0954 60.497 44.4065 63.3038Z" fill="#FAC95D"/>
<path d="M101.358 63.1387C101.193 60.6621 101.854 58.5157 103.67 56.6996C108.952 51.5813 114.4 46.6281 119.517 41.3448C124.965 35.7312 130.743 30.2827 135.86 24.1738C139.492 19.7159 143.949 15.9185 148.076 11.7909C149.892 9.97471 151.873 8.15856 153.689 6.5075C157.155 4.19603 157.155 4.19603 160.457 6.3424C160.787 6.50751 161.117 6.5075 161.612 6.5075C161.943 8.48877 161.117 9.97472 159.632 11.2956C155.835 14.7628 152.533 18.7253 148.406 21.8623C146.095 23.6785 144.279 26.3202 142.133 28.3014C137.676 32.264 134.704 37.5473 130.247 41.675C123.974 47.2886 118.031 53.2324 112.089 59.0111C111.098 60.0017 109.778 60.8272 109.447 62.4783C106.971 65.4502 104.165 63.9642 101.358 63.1387Z" fill="#FACF71"/>
<path d="M44.4062 63.3039C42.2602 60.4971 43.5809 58.0206 45.3968 55.7091C50.019 49.9304 54.8063 44.4819 59.7587 39.0334C64.546 33.75 69.0031 27.9713 73.6253 22.5229C76.7618 18.7254 80.5587 15.4233 83.8602 11.6259C86.6666 8.48889 89.9682 5.84721 92.1142 2.21489C93.5999 1.71957 95.2507 1.55447 96.7364 2.21489C98.3872 6.34253 98.2221 6.34252 95.4158 10.1399C94.2602 11.791 92.6094 12.9467 91.2888 14.2676C85.1809 20.7067 79.4031 27.476 73.6253 34.2454C69.3332 39.5287 64.711 44.647 60.0888 49.6002C59.4285 50.4257 58.7681 51.2512 57.6126 51.5814C57.2824 51.7465 56.6222 51.9116 56.6222 52.0767C56.9523 56.5346 51.8349 57.3601 50.6793 60.8273C50.1841 62.4784 47.7079 61.3227 47.3778 63.1388C46.3873 63.469 45.3967 63.6341 44.4062 63.3039Z" fill="#FACF71"/>
<path d="M70.4887 63.9643C69.003 60.8273 70.6538 58.3507 72.6347 56.2043C74.6157 53.8928 76.9267 51.9116 79.0728 49.7652C85.0156 43.4912 91.1237 37.3823 96.9014 31.1083C104.165 23.0181 111.428 14.9279 118.527 6.67266C119.517 5.68203 120.508 4.5263 120.343 2.87524C121.168 2.87524 121.828 2.87524 122.489 2.87524C122.489 3.70077 122.819 4.36119 123.479 4.85651C126.451 7.8284 126.451 9.14925 123.479 12.1211C116.711 18.8905 110.768 26.3202 104.495 33.5849C101.524 36.887 98.057 39.6938 95.2506 43.161C91.4538 47.949 86.3363 51.7465 82.7045 56.6996C81.0538 58.846 78.4125 60.1669 76.5966 62.3132C76.1014 62.9736 75.6062 63.469 75.1109 64.1294C73.6252 65.4502 71.9744 64.9549 70.4887 63.9643Z" fill="#FACF71"/>
<path d="M69.0031 4.03093C68.5078 6.34241 66.857 7.99347 65.3713 9.47942C61.2443 13.9373 57.4475 18.7253 52.9904 22.6879C51.8348 23.8436 50.8443 24.9993 50.184 26.4853C49.8538 27.3108 49.3586 28.1363 48.5332 28.6317C43.5808 31.6036 41.2698 36.8869 37.473 40.8495C34.8317 43.6563 32.6856 47.1235 29.7142 49.7652C26.4126 52.7371 24.1015 56.6996 21.2951 60.1668C20.4697 60.497 19.8095 60.497 18.9841 60.3319C18.819 60.0017 18.6539 59.6715 18.3237 59.3413C15.6824 56.2043 15.5174 55.0485 18.1587 52.0766C24.4317 44.9771 30.2095 37.2171 36.6476 30.1176C43.4158 22.853 49.3586 14.7628 56.6221 7.99347C57.6126 7.00283 58.438 5.68198 58.6031 4.19603C59.7587 4.03093 60.5841 3.53561 61.4095 2.54498C62.2349 1.55435 64.2157 0.563714 65.0411 1.71945C66.1967 3.37051 68.0126 2.87519 69.0031 4.03093Z" fill="#FACF71"/>
<path d="M133.054 61.6527C132.889 59.8365 133.384 58.1855 134.539 56.5344C138.006 51.4162 142.298 47.4536 146.92 43.326C151.708 39.1984 156.165 34.4103 160.787 29.9524C163.098 27.8061 165.409 25.6597 167.721 23.5133C170.032 21.367 170.197 21.367 172.838 23.018C175.314 24.504 175.644 25.8248 173.498 27.9712C167.39 34.2452 160.787 40.189 154.349 46.1328C151.708 48.4443 149.232 50.9209 146.755 53.3974C144.279 56.0391 141.143 57.6902 138.666 60.1668C137.016 60.0017 135.86 60.3319 135.53 62.3131C135.035 62.3131 134.54 62.3131 134.044 62.3131C133.879 62.148 133.549 61.9829 133.384 61.8178L133.054 61.6527Z" fill="#FACF71"/>
<path d="M69.0033 4.03092C68.0128 2.87519 66.197 3.3705 65.2065 1.88455C64.3811 0.728809 62.5652 1.55434 61.5747 2.71008C60.7493 3.70071 59.9239 4.19602 58.7684 4.36113C57.1176 3.86581 55.6319 5.35176 54.1462 5.18666C50.6795 4.85645 47.7081 5.84709 44.9018 7.82836C44.4065 8.15857 43.2509 8.32367 42.5906 8.15856C38.9589 6.83772 35.162 7.49814 31.5303 6.50751C32.5207 4.69135 34.5017 4.85645 36.1525 4.69135C38.9588 4.36114 41.6001 3.53561 44.2414 2.54497C46.3874 1.71944 48.8636 1.71945 51.1748 1.55434C55.6319 1.22413 60.089 1.88455 64.5461 0.233492C64.7112 0.0683869 65.0414 -0.096716 65.3715 0.0683895C70.6541 2.54497 76.2668 0.893919 81.7144 1.55434C82.3748 1.55434 83.035 1.71945 83.5303 2.21477C80.5588 3.3705 77.5874 3.70072 74.4509 3.70072C72.3049 3.2054 70.489 3.04029 69.0033 4.03092Z" fill="#FACF71"/>
<path d="M12.0508 11.2957C12.8762 12.1212 13.5366 13.1118 14.8572 13.442C17.0032 13.9373 18.3239 14.7629 18.489 17.2395C18.654 18.7254 20.8001 19.2207 20.9652 21.0369C20.9652 21.202 21.6254 21.3671 21.6254 21.202C22.946 18.8905 25.9175 22.6879 26.908 18.8905C27.5683 23.5135 26.5778 25.3296 23.1112 26.1552C21.1302 26.4854 19.1493 26.6505 17.3334 25.8249C15.0223 24.9994 14.8572 24.9994 16.508 22.853C17.1683 22.0275 17.1683 21.5322 16.673 20.7067C16.0127 19.716 15.1874 19.716 14.362 20.7067C13.5366 21.6973 12.7112 21.0369 11.8858 20.7067C12.0509 19.0556 14.0318 19.2207 14.8572 17.8999C12.7112 16.0837 9.57464 14.7629 12.0508 11.2957Z" fill="#FACF71"/>
<path d="M161.613 6.50732C161.283 6.50732 160.787 6.50732 160.457 6.34222C157.156 4.19584 157.156 4.19584 153.689 6.50732C153.524 6.17711 153.194 5.51669 153.029 5.51669C150.552 5.68179 148.406 3.20521 145.765 4.69116C141.308 3.53542 136.686 4.36095 132.229 3.70053C131.899 3.70053 131.733 3.20521 131.403 2.875C131.733 2.04947 132.394 1.71926 133.219 1.71926C140.978 1.71926 148.737 1.55415 156.33 1.88436C159.632 2.04946 162.933 3.37031 166.235 4.19584C167.06 4.36094 167.06 5.18647 167.06 5.84689C166.73 6.34221 166.07 6.34221 165.74 6.012C164.419 4.85626 163.429 5.18648 162.438 6.34222C162.108 6.50732 161.778 6.50732 161.613 6.50732Z" fill="#FACF71"/>
<path d="M172.177 18.8905C169.866 19.0556 169.206 17.2394 168.876 15.7535C168.711 14.5977 168.546 13.9373 167.39 13.442C165.739 12.7816 167.555 11.2956 166.895 10.305L167.06 10.1399C167.885 9.97478 168.546 9.47947 169.206 9.47947C172.012 9.64458 171.517 8.15862 170.857 6.50757C175.314 6.83778 176.635 8.81904 174.489 12.4514C173.663 13.9373 173.663 16.0837 171.517 16.7441C170.857 17.2394 172.012 18.2301 172.177 18.8905Z" fill="#FACF71"/>
<path d="M141.803 61.8179C145.105 60.497 148.406 61.1575 151.708 61.4877C152.038 61.4877 152.368 62.1481 152.698 62.6434C151.873 64.2945 150.717 65.4502 148.571 64.4596C147.746 64.1294 146.756 63.9643 145.93 64.1294C143.949 64.4596 142.959 63.1387 141.803 61.8179Z" fill="#FACF71"/>
<path d="M154.349 62.4782C155.009 59.5063 157.651 59.5063 159.797 58.8459C160.622 58.5156 161.613 58.8459 162.438 58.8459C159.797 59.8365 157.651 62.6433 154.349 62.4782Z" fill="#FACF71"/>
<path d="M11.886 20.7065C11.886 21.6972 12.051 22.6878 11.2256 23.1831C9.90498 24.1738 9.57482 25.3295 9.57482 26.9806C9.57482 28.6316 8.25419 28.6316 7.09863 28.6316C8.58435 27.3108 8.41923 25.3295 8.91447 23.6784C9.4097 22.0274 10.0701 20.8716 11.886 20.7065Z" fill="#FACF71"/>
<path d="M135.365 62.4783C135.695 60.6621 137.016 60.3319 138.502 60.3319C138.667 60.497 138.997 60.8272 139.162 60.9923C138.667 63.4689 137.181 63.1387 135.365 62.4783Z" fill="#FACF71"/>
<path d="M163.098 58.6809C163.263 56.8647 164.749 56.6996 166.235 56.3694C166.07 58.1855 164.584 58.5158 163.098 58.6809Z" fill="#FACF71"/>
<path d="M118.032 2.54492C117.867 3.37045 117.702 4.03088 116.711 3.86577C115.886 3.86577 115.721 3.20534 115.556 2.71002C116.381 2.71002 117.206 2.54492 118.032 2.54492Z" fill="#FACF71"/>
<path d="M166.07 55.5439C165.079 54.0579 165.409 53.3975 167.225 53.2324C166.895 53.8928 166.895 54.8835 166.07 55.5439Z" fill="#FACF71"/>
<path d="M113.245 2.37979C112.749 3.20532 112.254 3.37042 111.594 2.37979C112.254 1.88447 112.749 1.88447 113.245 2.37979Z" fill="#FACF71"/>
<path d="M130.578 61.6528C130.578 61.3226 130.578 60.8273 131.073 60.8273C131.238 60.8273 131.238 61.4877 131.403 61.6528C131.238 61.6528 130.908 61.6528 130.578 61.6528Z" fill="#FACF71"/>
<path d="M133.219 61.8177C133.384 61.9829 133.715 62.148 133.88 62.3131C133.384 62.4782 133.219 62.3131 133.219 61.8177Z" fill="#FACF71"/>
<path d="M167.06 10.47C166.565 10.3049 165.739 10.3049 165.904 9.47939C165.904 9.31428 166.069 9.31428 166.235 9.14917C167.06 9.14917 167.06 9.8096 167.06 10.47Z" fill="#FACF71"/>
<path d="M162.438 6.50757L162.768 6.67267L162.603 6.83777L162.438 6.50757Z" fill="#FACF71"/>
<path d="M31.8601 29.7874C31.1997 30.1176 30.5394 30.4478 30.2093 30.9431C29.549 31.6035 28.8886 32.0988 28.2283 31.4384C27.4029 30.6129 27.4029 29.4572 28.0633 28.4665C28.7236 27.4759 29.714 27.8061 30.3743 28.4665C30.8695 28.9618 31.3648 29.292 31.8601 29.7874Z" fill="#FACF71"/>
<mask id="path-28-outside-1_309_3706" maskUnits="userSpaceOnUse" x="63" y="20" width="60" height="37" fill="black">
<rect fill="white" x="63" y="20" width="60" height="37"/>
<path d="M64.98 46L64.476 42.94L66.78 42.4V24.616L64.26 24.364V21.124H74.232C75.936 21.124 77.388 21.412 78.588 21.988C79.788 22.564 80.7 23.344 81.324 24.328C81.972 25.312 82.296 26.416 82.296 27.64C82.296 28.744 82.068 29.704 81.612 30.52C81.156 31.312 80.604 31.936 79.956 32.392C79.332 32.848 78.768 33.136 78.264 33.256C79.296 33.52 80.184 33.904 80.928 34.408C81.672 34.912 82.248 35.572 82.656 36.388C83.088 37.18 83.304 38.14 83.304 39.268C83.304 41.524 82.56 43.216 81.072 44.344C79.608 45.448 77.688 46 75.312 46H64.98ZM71.496 42.22H74.16C74.928 42.22 75.624 42.124 76.248 41.932C76.896 41.716 77.412 41.368 77.796 40.888C78.18 40.384 78.372 39.7 78.372 38.836C78.372 37.636 77.952 36.76 77.112 36.208C76.296 35.632 75.12 35.344 73.584 35.344H71.496V42.22ZM71.496 31.564H73.62C74.46 31.564 75.156 31.42 75.708 31.132C76.26 30.844 76.668 30.448 76.932 29.944C77.22 29.416 77.364 28.828 77.364 28.18C77.364 26.98 76.932 26.14 76.068 25.66C75.228 25.156 74.244 24.904 73.116 24.904H71.496V31.564ZM92.7253 46.144C91.5973 46.144 90.6133 45.952 89.7733 45.568C88.9333 45.184 88.2853 44.596 87.8293 43.804C87.3733 42.988 87.1453 41.968 87.1453 40.744V31.672H85.3093L84.9133 29.26L90.2413 28.288L91.5013 29.656V39.916C91.5013 40.372 91.5613 40.78 91.6813 41.14C91.8013 41.476 91.9693 41.764 92.1853 42.004C92.4013 42.244 92.6533 42.424 92.9413 42.544C93.2533 42.64 93.5893 42.688 93.9493 42.688C94.5973 42.688 95.1973 42.496 95.7493 42.112C96.3013 41.728 96.6733 41.296 96.8653 40.816V31.564L95.2453 31.672L94.8133 29.26L99.9613 28.288L101.221 29.656V42.22C101.221 42.532 101.281 42.748 101.401 42.868C101.521 42.964 101.653 43.012 101.797 43.012C101.917 43.012 102.025 43 102.121 42.976C102.217 42.952 102.277 42.94 102.301 42.94L102.985 44.956C102.841 45.124 102.517 45.364 102.013 45.676C101.533 45.988 100.921 46.144 100.177 46.144C99.5533 46.144 98.9773 46.012 98.4493 45.748C97.9453 45.484 97.5493 45.04 97.2613 44.416C96.7093 45.016 96.0133 45.46 95.1733 45.748C94.3333 46.012 93.5173 46.144 92.7253 46.144ZM109.076 55.864C108.62 55.864 107.96 55.756 107.096 55.54C106.256 55.324 105.464 54.88 104.72 54.208L106.664 51.184C106.904 51.352 107.24 51.604 107.672 51.94C108.104 52.3 108.476 52.48 108.788 52.48C109.052 52.48 109.28 52.408 109.472 52.264C109.688 52.144 109.88 51.928 110.048 51.616C110.24 51.304 110.432 50.884 110.624 50.356L111.416 48.196L105.332 31.348H103.964L103.676 28.756L109.076 28.324L113.756 41.716L117.5 31.348H115.844L115.556 28.72L120.812 28.324L121.532 29.62C121.436 29.836 121.244 30.364 120.956 31.204C120.668 32.02 120.308 33.04 119.876 34.264C119.444 35.488 118.976 36.82 118.472 38.26C117.992 39.676 117.488 41.116 116.96 42.58C116.456 44.02 115.976 45.388 115.52 46.684C115.064 47.98 114.668 49.096 114.332 50.032C113.996 50.968 113.756 51.628 113.612 52.012C113.108 53.236 112.568 54.112 111.992 54.64C111.44 55.192 110.9 55.528 110.372 55.648C109.868 55.792 109.436 55.864 109.076 55.864Z"/>
</mask>
<path d="M64.98 46L64.476 42.94L66.78 42.4V24.616L64.26 24.364V21.124H74.232C75.936 21.124 77.388 21.412 78.588 21.988C79.788 22.564 80.7 23.344 81.324 24.328C81.972 25.312 82.296 26.416 82.296 27.64C82.296 28.744 82.068 29.704 81.612 30.52C81.156 31.312 80.604 31.936 79.956 32.392C79.332 32.848 78.768 33.136 78.264 33.256C79.296 33.52 80.184 33.904 80.928 34.408C81.672 34.912 82.248 35.572 82.656 36.388C83.088 37.18 83.304 38.14 83.304 39.268C83.304 41.524 82.56 43.216 81.072 44.344C79.608 45.448 77.688 46 75.312 46H64.98ZM71.496 42.22H74.16C74.928 42.22 75.624 42.124 76.248 41.932C76.896 41.716 77.412 41.368 77.796 40.888C78.18 40.384 78.372 39.7 78.372 38.836C78.372 37.636 77.952 36.76 77.112 36.208C76.296 35.632 75.12 35.344 73.584 35.344H71.496V42.22ZM71.496 31.564H73.62C74.46 31.564 75.156 31.42 75.708 31.132C76.26 30.844 76.668 30.448 76.932 29.944C77.22 29.416 77.364 28.828 77.364 28.18C77.364 26.98 76.932 26.14 76.068 25.66C75.228 25.156 74.244 24.904 73.116 24.904H71.496V31.564ZM92.7253 46.144C91.5973 46.144 90.6133 45.952 89.7733 45.568C88.9333 45.184 88.2853 44.596 87.8293 43.804C87.3733 42.988 87.1453 41.968 87.1453 40.744V31.672H85.3093L84.9133 29.26L90.2413 28.288L91.5013 29.656V39.916C91.5013 40.372 91.5613 40.78 91.6813 41.14C91.8013 41.476 91.9693 41.764 92.1853 42.004C92.4013 42.244 92.6533 42.424 92.9413 42.544C93.2533 42.64 93.5893 42.688 93.9493 42.688C94.5973 42.688 95.1973 42.496 95.7493 42.112C96.3013 41.728 96.6733 41.296 96.8653 40.816V31.564L95.2453 31.672L94.8133 29.26L99.9613 28.288L101.221 29.656V42.22C101.221 42.532 101.281 42.748 101.401 42.868C101.521 42.964 101.653 43.012 101.797 43.012C101.917 43.012 102.025 43 102.121 42.976C102.217 42.952 102.277 42.94 102.301 42.94L102.985 44.956C102.841 45.124 102.517 45.364 102.013 45.676C101.533 45.988 100.921 46.144 100.177 46.144C99.5533 46.144 98.9773 46.012 98.4493 45.748C97.9453 45.484 97.5493 45.04 97.2613 44.416C96.7093 45.016 96.0133 45.46 95.1733 45.748C94.3333 46.012 93.5173 46.144 92.7253 46.144ZM109.076 55.864C108.62 55.864 107.96 55.756 107.096 55.54C106.256 55.324 105.464 54.88 104.72 54.208L106.664 51.184C106.904 51.352 107.24 51.604 107.672 51.94C108.104 52.3 108.476 52.48 108.788 52.48C109.052 52.48 109.28 52.408 109.472 52.264C109.688 52.144 109.88 51.928 110.048 51.616C110.24 51.304 110.432 50.884 110.624 50.356L111.416 48.196L105.332 31.348H103.964L103.676 28.756L109.076 28.324L113.756 41.716L117.5 31.348H115.844L115.556 28.72L120.812 28.324L121.532 29.62C121.436 29.836 121.244 30.364 120.956 31.204C120.668 32.02 120.308 33.04 119.876 34.264C119.444 35.488 118.976 36.82 118.472 38.26C117.992 39.676 117.488 41.116 116.96 42.58C116.456 44.02 115.976 45.388 115.52 46.684C115.064 47.98 114.668 49.096 114.332 50.032C113.996 50.968 113.756 51.628 113.612 52.012C113.108 53.236 112.568 54.112 111.992 54.64C111.44 55.192 110.9 55.528 110.372 55.648C109.868 55.792 109.436 55.864 109.076 55.864Z" fill="#54A044"/>
<path d="M64.98 46L64.4866 46.0813L64.5556 46.5H64.98V46ZM64.476 42.94L64.3619 42.4532L63.9067 42.5599L63.9826 43.0213L64.476 42.94ZM66.78 42.4L66.8941 42.8868L67.28 42.7964V42.4H66.78ZM66.78 24.616H67.28V24.1635L66.8298 24.1185L66.78 24.616ZM64.26 24.364H63.76V24.8165L64.2102 24.8615L64.26 24.364ZM64.26 21.124V20.624H63.76V21.124H64.26ZM78.588 21.988L78.8044 21.5372L78.8044 21.5372L78.588 21.988ZM81.324 24.328L80.9017 24.5958L80.9064 24.603L81.324 24.328ZM81.612 30.52L82.0453 30.7695L82.0485 30.7639L81.612 30.52ZM79.956 32.392L79.6682 31.983L79.661 31.9883L79.956 32.392ZM78.264 33.256L78.1482 32.7696L78.1401 33.7404L78.264 33.256ZM82.656 36.388L82.2088 36.6116L82.2128 36.6196L82.2171 36.6274L82.656 36.388ZM81.072 44.344L81.373 44.7432L81.3741 44.7425L81.072 44.344ZM71.496 42.22H70.996V42.72H71.496V42.22ZM76.248 41.932L76.3951 42.41L76.4061 42.4063L76.248 41.932ZM77.796 40.888L78.1865 41.2004L78.1937 41.191L77.796 40.888ZM77.112 36.208L76.8237 36.6165L76.8305 36.6213L76.8374 36.6259L77.112 36.208ZM71.496 35.344V34.844H70.996V35.344H71.496ZM71.496 31.564H70.996V32.064H71.496V31.564ZM76.932 29.944L76.493 29.7045L76.4891 29.712L76.932 29.944ZM76.068 25.66L75.8108 26.0887L75.8179 26.093L75.8252 26.0971L76.068 25.66ZM71.496 24.904V24.404H70.996V24.904H71.496ZM65.4734 45.9187L64.9694 42.8587L63.9826 43.0213L64.4866 46.0813L65.4734 45.9187ZM64.5901 43.4268L66.8941 42.8868L66.6659 41.9132L64.3619 42.4532L64.5901 43.4268ZM67.28 42.4V24.616H66.28V42.4H67.28ZM66.8298 24.1185L64.3098 23.8665L64.2102 24.8615L66.7302 25.1135L66.8298 24.1185ZM64.76 24.364V21.124H63.76V24.364H64.76ZM64.26 21.624H74.232V20.624H64.26V21.624ZM74.232 21.624C75.8814 21.624 77.2553 21.9029 78.3716 22.4388L78.8044 21.5372C77.5207 20.9211 75.9906 20.624 74.232 20.624V21.624ZM78.3716 22.4388C79.4995 22.9801 80.3347 23.7016 80.9017 24.5958L81.7463 24.0602C81.0653 22.9864 80.0765 22.1479 78.8044 21.5372L78.3716 22.4388ZM80.9064 24.603C81.4985 25.5021 81.796 26.5097 81.796 27.64H82.796C82.796 26.3223 82.4455 25.1219 81.7416 24.053L80.9064 24.603ZM81.796 27.64C81.796 28.6741 81.5829 29.5471 81.1755 30.2761L82.0485 30.7639C82.5531 29.8609 82.796 28.8139 82.796 27.64H81.796ZM81.1787 30.2705C80.7535 31.0091 80.2482 31.575 79.6683 31.9831L80.2437 32.8009C80.9598 32.297 81.5585 31.6149 82.0453 30.7695L81.1787 30.2705ZM79.661 31.9883C79.0667 32.4226 78.5639 32.6706 78.1482 32.7696L78.3798 33.7424C78.9721 33.6014 79.5973 33.2734 80.251 32.7957L79.661 31.9883ZM78.1401 33.7404C79.1263 33.9927 79.9592 34.3557 80.6476 34.822L81.2084 33.994C80.4088 33.4523 79.4657 33.0473 78.3879 32.7716L78.1401 33.7404ZM80.6476 34.822C81.3195 35.2771 81.8385 35.8711 82.2088 36.6116L83.1032 36.1644C82.6575 35.2729 82.0245 34.5469 81.2084 33.994L80.6476 34.822ZM82.2171 36.6274C82.6002 37.3298 82.804 38.2031 82.804 39.268H83.804C83.804 38.0769 83.5758 37.0302 83.0949 36.1486L82.2171 36.6274ZM82.804 39.268C82.804 41.404 82.1068 42.9321 80.7699 43.9455L81.3741 44.7425C83.0132 43.4999 83.804 41.644 83.804 39.268H82.804ZM80.771 43.9448C79.4163 44.9663 77.6116 45.5 75.312 45.5V46.5C77.7644 46.5 79.7997 45.9297 81.373 44.7432L80.771 43.9448ZM75.312 45.5H64.98V46.5H75.312V45.5ZM71.496 42.72H74.16V41.72H71.496V42.72ZM74.16 42.72C74.9693 42.72 75.7159 42.6189 76.395 42.4099L76.101 41.4541C75.5321 41.6291 74.8867 41.72 74.16 41.72V42.72ZM76.4061 42.4063C77.135 42.1634 77.7357 41.7638 78.1864 41.2003L77.4056 40.5757C77.0884 40.9722 76.657 41.2686 76.0899 41.4577L76.4061 42.4063ZM78.1937 41.191C78.6645 40.5731 78.872 39.7702 78.872 38.836H77.872C77.872 39.6298 77.6955 40.1949 77.3983 40.585L78.1937 41.191ZM78.872 38.836C78.872 37.5053 78.3961 36.4535 77.3866 35.7901L76.8374 36.6259C77.5079 37.0665 77.872 37.7667 77.872 38.836H78.872ZM77.4003 35.7995C76.4657 35.1398 75.1714 34.844 73.584 34.844V35.844C75.0686 35.844 76.1263 36.1242 76.8237 36.6165L77.4003 35.7995ZM73.584 34.844H71.496V35.844H73.584V34.844ZM70.996 35.344V42.22H71.996V35.344H70.996ZM71.496 32.064H73.62V31.064H71.496V32.064ZM73.62 32.064C74.5137 32.064 75.2954 31.9112 75.9393 31.5753L75.4767 30.6887C75.0166 30.9287 74.4063 31.064 73.62 31.064V32.064ZM75.9393 31.5753C76.5728 31.2448 77.0591 30.7789 77.3749 30.176L76.4891 29.712C76.2769 30.1171 75.9472 30.4432 75.4767 30.6887L75.9393 31.5753ZM77.3709 30.1834C77.7021 29.5763 77.864 28.905 77.864 28.18H76.864C76.864 28.751 76.7379 29.2556 76.4931 29.7046L77.3709 30.1834ZM77.864 28.18C77.864 26.8445 77.3701 25.8114 76.3108 25.2229L75.8252 26.0971C76.4939 26.4686 76.864 27.1155 76.864 28.18H77.864ZM76.3252 25.2313C75.3964 24.6739 74.3207 24.404 73.116 24.404V25.404C74.1673 25.404 75.0596 25.6381 75.8108 26.0887L76.3252 25.2313ZM73.116 24.404H71.496V25.404H73.116V24.404ZM70.996 24.904V31.564H71.996V24.904H70.996ZM89.7733 45.568L89.5654 46.0227L89.5654 46.0227L89.7733 45.568ZM87.8293 43.804L87.3928 44.0479L87.396 44.0535L87.8293 43.804ZM87.1453 31.672H87.6453V31.172H87.1453V31.672ZM85.3093 31.672L84.8159 31.753L84.8847 32.172H85.3093V31.672ZM84.9133 29.26L84.8236 28.7681L84.3403 28.8563L84.4199 29.341L84.9133 29.26ZM90.2413 28.288L90.6091 27.9493L90.4225 27.7467L90.1516 27.7961L90.2413 28.288ZM91.5013 29.656H92.0013V29.4608L91.8691 29.3173L91.5013 29.656ZM91.6813 41.14L91.2069 41.2981L91.2104 41.3082L91.6813 41.14ZM92.1853 42.004L91.8137 42.3385L91.8137 42.3385L92.1853 42.004ZM92.9413 42.544L92.749 43.0055L92.7712 43.0148L92.7943 43.0219L92.9413 42.544ZM95.7493 42.112L96.0348 42.5225L96.0348 42.5225L95.7493 42.112ZM96.8653 40.816L97.3296 41.0017L97.3653 40.9123V40.816H96.8653ZM96.8653 31.564H97.3653V31.0296L96.8321 31.0651L96.8653 31.564ZM95.2453 31.672L94.7531 31.7601L94.832 32.2007L95.2786 32.1709L95.2453 31.672ZM94.8133 29.26L94.7205 28.7687L94.2338 28.8606L94.3211 29.3481L94.8133 29.26ZM99.9613 28.288L100.329 27.9493L100.141 27.7452L99.8685 27.7967L99.9613 28.288ZM101.221 29.656H101.721V29.4608L101.589 29.3173L101.221 29.656ZM101.401 42.868L101.048 43.2216L101.067 43.2411L101.089 43.2584L101.401 42.868ZM102.121 42.976L102 42.4909L102 42.4909L102.121 42.976ZM102.301 42.94L102.775 42.7794L102.66 42.44H102.301V42.94ZM102.985 44.956L103.365 45.2814L103.55 45.0651L103.459 44.7954L102.985 44.956ZM102.013 45.676L101.75 45.2508L101.741 45.2568L102.013 45.676ZM98.4493 45.748L98.2173 46.191L98.2257 46.1952L98.4493 45.748ZM97.2613 44.416L97.7153 44.2065L97.4011 43.5256L96.8933 44.0775L97.2613 44.416ZM95.1733 45.748L95.3233 46.2252L95.3355 46.221L95.1733 45.748ZM92.7253 45.644C91.6535 45.644 90.7432 45.4616 89.9812 45.1133L89.5654 46.0227C90.4835 46.4424 91.5411 46.644 92.7253 46.644V45.644ZM89.9812 45.1133C89.2348 44.7721 88.6661 44.2553 88.2626 43.5545L87.396 44.0535C87.9045 44.9367 88.6318 45.5959 89.5654 46.0227L89.9812 45.1133ZM88.2658 43.5601C87.8624 42.8382 87.6453 41.9082 87.6453 40.744H86.6453C86.6453 42.0278 86.8842 43.1378 87.3928 44.0479L88.2658 43.5601ZM87.6453 40.744V31.672H86.6453V40.744H87.6453ZM87.1453 31.172H85.3093V32.172H87.1453V31.172ZM85.8027 31.591L85.4067 29.179L84.4199 29.341L84.8159 31.753L85.8027 31.591ZM85.003 29.7519L90.331 28.7799L90.1516 27.7961L84.8236 28.7681L85.003 29.7519ZM89.8735 28.6267L91.1335 29.9947L91.8691 29.3173L90.6091 27.9493L89.8735 28.6267ZM91.0013 29.656V39.916H92.0013V29.656H91.0013ZM91.0013 39.916C91.0013 40.4152 91.0669 40.878 91.207 41.2981L92.1557 40.9819C92.0557 40.682 92.0013 40.3288 92.0013 39.916H91.0013ZM91.2104 41.3082C91.3501 41.6991 91.5497 42.0452 91.8137 42.3385L92.557 41.6695C92.3889 41.4828 92.2526 41.2529 92.1522 40.9718L91.2104 41.3082ZM91.8137 42.3385C92.0775 42.6316 92.3901 42.856 92.749 43.0055L93.1336 42.0825C92.9165 41.992 92.7251 41.8564 92.557 41.6695L91.8137 42.3385ZM92.7943 43.0219C93.1585 43.134 93.5445 43.188 93.9493 43.188V42.188C93.6341 42.188 93.3481 42.146 93.0884 42.0661L92.7943 43.0219ZM93.9493 43.188C94.7034 43.188 95.4024 42.9624 96.0348 42.5225L95.4638 41.7015C94.9922 42.0296 94.4912 42.188 93.9493 42.188V43.188ZM96.0348 42.5225C96.6433 42.0992 97.0918 41.5961 97.3296 41.0017L96.4011 40.6303C96.2548 40.9959 95.9593 41.3568 95.4638 41.7015L96.0348 42.5225ZM97.3653 40.816V31.564H96.3653V40.816H97.3653ZM96.8321 31.0651L95.2121 31.1731L95.2786 32.1709L96.8986 32.0629L96.8321 31.0651ZM95.7375 31.5838L95.3055 29.1718L94.3211 29.3481L94.7531 31.7601L95.7375 31.5838ZM94.9061 29.7513L100.054 28.7793L99.8685 27.7967L94.7205 28.7687L94.9061 29.7513ZM99.5935 28.6267L100.854 29.9947L101.589 29.3173L100.329 27.9493L99.5935 28.6267ZM100.721 29.656V42.22H101.721V29.656H100.721ZM100.721 42.22C100.721 42.5641 100.781 42.9549 101.048 43.2216L101.755 42.5144C101.772 42.5319 101.762 42.5329 101.748 42.4822C101.734 42.431 101.721 42.347 101.721 42.22H100.721ZM101.089 43.2584C101.291 43.4202 101.532 43.512 101.797 43.512V42.512C101.775 42.512 101.751 42.5078 101.714 42.4776L101.089 43.2584ZM101.797 43.512C101.95 43.512 102.1 43.4968 102.243 43.4611L102 42.4909C101.951 42.5032 101.885 42.512 101.797 42.512V43.512ZM102.243 43.4611C102.287 43.45 102.317 43.4431 102.336 43.4393C102.346 43.4374 102.349 43.437 102.347 43.4372C102.346 43.4374 102.342 43.4379 102.336 43.4385C102.33 43.439 102.318 43.44 102.301 43.44V42.44C102.234 42.44 102.168 42.4532 102.14 42.4587C102.099 42.4669 102.052 42.478 102 42.4909L102.243 43.4611ZM101.828 43.1006L102.512 45.1166L103.459 44.7954L102.775 42.7794L101.828 43.1006ZM102.606 44.6306C102.519 44.7316 102.26 44.9351 101.75 45.2509L102.276 46.1011C102.774 45.7929 103.164 45.5164 103.365 45.2814L102.606 44.6306ZM101.741 45.2568C101.363 45.5024 100.853 45.644 100.177 45.644V46.644C100.989 46.644 101.704 46.4736 102.286 46.0952L101.741 45.2568ZM100.177 45.644C99.6264 45.644 99.1275 45.5281 98.6729 45.3008L98.2257 46.1952C98.8271 46.4959 99.4802 46.644 100.177 46.644V45.644ZM98.6813 45.3051C98.2941 45.1022 97.967 44.7518 97.7153 44.2065L96.8073 44.6255C97.1317 45.3282 97.5966 45.8658 98.2173 46.1909L98.6813 45.3051ZM96.8933 44.0775C96.4026 44.6109 95.7796 45.0116 95.0112 45.275L95.3355 46.221C96.247 45.9084 97.016 45.4211 97.6293 44.7545L96.8933 44.0775ZM95.0234 45.271C94.2265 45.5214 93.4611 45.644 92.7253 45.644V46.644C93.5735 46.644 94.4401 46.5026 95.3232 46.225L95.0234 45.271ZM107.096 55.54L106.971 56.0243L106.975 56.0251L107.096 55.54ZM104.72 54.208L104.299 53.9376L104.07 54.2946L104.385 54.5791L104.72 54.208ZM106.664 51.184L106.951 50.7744L106.524 50.4761L106.243 50.9136L106.664 51.184ZM107.672 51.94L107.992 51.5559L107.985 51.5505L107.979 51.5453L107.672 51.94ZM109.472 52.264L109.229 51.8269L109.199 51.8435L109.172 51.864L109.472 52.264ZM110.048 51.616L109.622 51.354L109.614 51.3662L109.608 51.379L110.048 51.616ZM110.624 50.356L110.154 50.1839L110.154 50.1851L110.624 50.356ZM111.416 48.196L111.885 48.3681L111.948 48.1973L111.886 48.0262L111.416 48.196ZM105.332 31.348L105.802 31.1782L105.683 30.848H105.332V31.348ZM103.964 31.348L103.467 31.4032L103.516 31.848H103.964V31.348ZM103.676 28.756L103.636 28.2576L103.122 28.2987L103.179 28.8112L103.676 28.756ZM109.076 28.324L109.548 28.159L109.421 27.7948L109.036 27.8256L109.076 28.324ZM113.756 41.716L113.284 41.8809L113.748 43.2095L114.226 41.8858L113.756 41.716ZM117.5 31.348L117.97 31.5178L118.212 30.848H117.5V31.348ZM115.844 31.348L115.347 31.4025L115.396 31.848H115.844V31.348ZM115.556 28.72L115.518 28.2214L115.002 28.2603L115.059 28.7745L115.556 28.72ZM120.812 28.324L121.249 28.0812L121.093 27.8014L120.774 27.8254L120.812 28.324ZM121.532 29.62L121.989 29.8231L122.09 29.5952L121.969 29.3772L121.532 29.62ZM120.956 31.204L121.427 31.3704L121.429 31.3662L120.956 31.204ZM118.472 38.26L118 38.0948L117.998 38.0995L118.472 38.26ZM116.96 42.58L116.489 42.4104L116.488 42.4148L116.96 42.58ZM115.52 46.684L115.991 46.85L115.991 46.85L115.52 46.684ZM114.332 50.032L113.861 49.8631L113.861 49.8631L114.332 50.032ZM113.612 52.012L114.074 52.2024L114.077 52.195L114.08 52.1876L113.612 52.012ZM111.992 54.64L111.654 54.2714L111.646 54.2788L111.638 54.2864L111.992 54.64ZM110.372 55.648L110.261 55.1604L110.248 55.1635L110.234 55.1672L110.372 55.648ZM109.076 55.364C108.683 55.364 108.071 55.2685 107.217 55.0549L106.975 56.0251C107.848 56.2435 108.557 56.364 109.076 56.364V55.364ZM107.22 55.0558C106.47 54.8628 105.748 54.4632 105.055 53.8369L104.385 54.5791C105.179 55.2968 106.042 55.7852 106.971 56.0242L107.22 55.0558ZM105.14 54.4784L107.084 51.4544L106.243 50.9136L104.299 53.9376L105.14 54.4784ZM106.377 51.5936C106.607 51.7543 106.935 52.0002 107.365 52.3347L107.979 51.5453C107.545 51.2078 107.201 50.9497 106.951 50.7744L106.377 51.5936ZM107.352 52.3241C107.809 52.7055 108.296 52.98 108.788 52.98V51.98C108.655 51.98 108.398 51.8945 107.992 51.5559L107.352 52.3241ZM108.788 52.98C109.149 52.98 109.485 52.8794 109.772 52.664L109.172 51.864C109.075 51.9366 108.955 51.98 108.788 51.98V52.98ZM109.715 52.7011C110.043 52.5186 110.293 52.2145 110.488 51.853L109.608 51.379C109.466 51.6415 109.333 51.7694 109.229 51.8269L109.715 52.7011ZM110.474 51.878C110.69 51.5263 110.896 51.0718 111.094 50.5269L110.154 50.1851C109.968 50.6962 109.789 51.0817 109.622 51.354L110.474 51.878ZM111.093 50.5281L111.885 48.3681L110.946 48.0239L110.154 50.1839L111.093 50.5281ZM111.886 48.0262L105.802 31.1782L104.862 31.5178L110.946 48.3658L111.886 48.0262ZM105.332 30.848H103.964V31.848H105.332V30.848ZM104.461 31.2928L104.173 28.7008L103.179 28.8112L103.467 31.4032L104.461 31.2928ZM103.716 29.2544L109.116 28.8224L109.036 27.8256L103.636 28.2576L103.716 29.2544ZM108.604 28.4889L113.284 41.8809L114.228 41.5511L109.548 28.159L108.604 28.4889ZM114.226 41.8858L117.97 31.5178L117.03 31.1782L113.286 41.5462L114.226 41.8858ZM117.5 30.848H115.844V31.848H117.5V30.848ZM116.341 31.2935L116.053 28.6655L115.059 28.7745L115.347 31.4025L116.341 31.2935ZM115.593 29.2186L120.849 28.8226L120.774 27.8254L115.518 28.2214L115.593 29.2186ZM120.375 28.5668L121.095 29.8628L121.969 29.3772L121.249 28.0812L120.375 28.5668ZM121.075 29.4169C120.968 29.6574 120.768 30.2087 120.483 31.0418L121.429 31.3662C121.719 30.5193 121.904 30.0146 121.989 29.8231L121.075 29.4169ZM120.484 31.0376C120.196 31.8536 119.836 32.8736 119.404 34.0976L120.347 34.4304C120.779 33.2064 121.139 32.1864 121.427 31.3704L120.484 31.0376ZM119.404 34.0976C118.972 35.3221 118.504 36.6545 118 38.0948L118.944 38.4252C119.448 36.9855 119.915 35.6539 120.347 34.4304L119.404 34.0976ZM117.998 38.0995C117.519 39.5123 117.016 40.9493 116.489 42.4104L117.43 42.7496C117.959 41.2827 118.464 39.8397 118.945 38.4205L117.998 38.0995ZM116.488 42.4148C115.984 43.8546 115.504 45.2223 115.048 46.518L115.991 46.85C116.448 45.5537 116.928 44.1854 117.432 42.7452L116.488 42.4148ZM115.048 46.518C114.592 47.8134 114.197 48.9284 113.861 49.8631L114.802 50.2009C115.139 49.2636 115.535 48.1466 115.991 46.85L115.048 46.518ZM113.861 49.8631C113.525 50.7991 113.286 51.4561 113.144 51.8364L114.08 52.1876C114.225 51.7999 114.466 51.1369 114.802 50.2009L113.861 49.8631ZM113.149 51.8216C112.657 53.0186 112.151 53.816 111.654 54.2714L112.33 55.0086C112.985 54.408 113.559 53.4534 114.074 52.2024L113.149 51.8216ZM111.638 54.2864C111.125 54.7997 110.665 55.0686 110.261 55.1604L110.483 56.1356C111.135 55.9874 111.755 55.5843 112.345 54.9936L111.638 54.2864ZM110.234 55.1672C109.757 55.3037 109.373 55.364 109.076 55.364V56.364C109.498 56.364 109.979 56.2803 110.509 56.1288L110.234 55.1672Z" fill="black" mask="url(#path-28-outside-1_309_3706)"/>
</svg>
