<svg width="226" height="50" viewBox="0 0 226 50" fill="none" xmlns="http://www.w3.org/2000/svg">
<path d="M42.5223 4.09681C57.5427 3.82856 73.3823 3.42614 89.222 3.29201C97.688 3.15789 106.154 3.15794 114.62 2.75557C121.174 2.48732 127.729 1.95081 134.556 1.81668C152.034 1.14606 169.513 0.743675 187.264 0.877799C197.096 0.877799 206.654 0.6096 216.486 0.341352C218.943 0.341352 222.221 -0.0610697 223.04 1.54842C224.132 3.15791 227.136 4.49918 224.405 6.77929C218.397 11.876 211.843 16.7044 204.742 21.3988C202.558 22.8741 203.104 23.813 204.742 25.4225C209.931 30.5192 218.124 34.6771 224.405 39.3714C226.317 40.7127 226.317 41.6515 224.405 42.7245C223.313 43.3951 221.948 43.9316 221.401 44.7364C220.855 45.6752 219.49 45.9435 217.851 45.8093C213.755 45.6752 209.658 46.6141 205.562 46.48C203.377 46.48 201.192 46.48 199.28 47.1506C197.915 47.6871 196.276 47.5529 194.911 47.5529C180.437 47.5529 165.963 47.6871 151.215 47.6871C141.93 47.6871 132.918 47.9553 123.905 48.0895C108.339 48.3577 92.4992 48.0895 76.6595 48.3577C65.7356 48.4919 54.5385 48.7601 43.6146 49.1625C40.3374 49.2966 37.0603 49.0284 33.7831 49.0284C26.9557 49.0284 20.4012 49.9672 13.5738 49.699C11.6621 49.5649 9.75049 49.699 7.8388 49.4307C4.56163 49.1625 2.64997 47.8212 2.92307 46.2117C4.28856 40.042 4.01546 33.8723 2.92307 27.7026C2.10378 23.5448 2.92297 19.3869 1.28438 15.2291C0.191991 12.8149 0.191957 10.4006 0.738153 7.98636C1.01125 6.64512 2.10368 6.24279 4.01536 6.10867C5.92705 5.97454 7.83883 5.43805 9.75052 5.43805C20.1282 5.57217 30.506 3.56031 42.5223 4.09681Z" fill="#FAC95D"/>
<path d="M78.456 35.144L77.304 34.172V11.564L75.432 11.672L75.036 9.224L80.4 8.504L81.624 9.764V18.008C82.008 17.816 82.452 17.66 82.956 17.54C83.484 17.396 84.084 17.324 84.756 17.324C86.196 17.324 87.444 17.672 88.5 18.368C89.556 19.064 90.372 20.06 90.948 21.356C91.548 22.628 91.848 24.164 91.848 25.964C91.848 27.716 91.62 29.192 91.164 30.392C90.708 31.568 90.096 32.504 89.328 33.2C88.56 33.896 87.696 34.4 86.736 34.712C85.776 35 84.804 35.144 83.82 35.144C83.148 35.144 82.524 35.084 81.948 34.964C81.372 34.82 80.844 34.628 80.364 34.388L78.456 35.144ZM83.82 31.76C84.468 31.76 85.056 31.568 85.584 31.184C86.136 30.776 86.568 30.164 86.88 29.348C87.216 28.508 87.384 27.44 87.384 26.144C87.384 24.896 87.228 23.876 86.916 23.084C86.628 22.268 86.22 21.668 85.692 21.284C85.164 20.9 84.564 20.708 83.892 20.708C83.436 20.708 83.004 20.768 82.596 20.888C82.212 21.008 81.888 21.164 81.624 21.356V31.292C81.84 31.436 82.164 31.556 82.596 31.652C83.028 31.724 83.436 31.76 83.82 31.76ZM101.245 35.144C100.117 35.144 99.1328 34.952 98.2928 34.568C97.4528 34.184 96.8048 33.596 96.3488 32.804C95.8928 31.988 95.6648 30.968 95.6648 29.744V20.672H93.8288L93.4328 18.26L98.7608 17.288L100.021 18.656V28.916C100.021 29.372 100.081 29.78 100.201 30.14C100.321 30.476 100.489 30.764 100.705 31.004C100.921 31.244 101.173 31.424 101.461 31.544C101.773 31.64 102.109 31.688 102.469 31.688C103.117 31.688 103.717 31.496 104.269 31.112C104.821 30.728 105.193 30.296 105.385 29.816V20.564L103.765 20.672L103.333 18.26L108.481 17.288L109.741 18.656V31.22C109.741 31.532 109.801 31.748 109.921 31.868C110.041 31.964 110.173 32.012 110.317 32.012C110.437 32.012 110.545 32 110.641 31.976C110.737 31.952 110.797 31.94 110.821 31.94L111.505 33.956C111.361 34.124 111.037 34.364 110.533 34.676C110.053 34.988 109.441 35.144 108.697 35.144C108.073 35.144 107.497 35.012 106.969 34.748C106.465 34.484 106.069 34.04 105.781 33.416C105.229 34.016 104.533 34.46 103.693 34.748C102.853 35.012 102.037 35.144 101.245 35.144ZM117.595 44.864C117.139 44.864 116.479 44.756 115.615 44.54C114.775 44.324 113.983 43.88 113.239 43.208L115.183 40.184C115.423 40.352 115.759 40.604 116.191 40.94C116.623 41.3 116.995 41.48 117.307 41.48C117.571 41.48 117.799 41.408 117.991 41.264C118.207 41.144 118.399 40.928 118.567 40.616C118.759 40.304 118.951 39.884 119.143 39.356L119.935 37.196L113.851 20.348H112.483L112.195 17.756L117.595 17.324L122.275 30.716L126.019 20.348H124.363L124.075 17.72L129.331 17.324L130.051 18.62C129.955 18.836 129.763 19.364 129.475 20.204C129.187 21.02 128.827 22.04 128.395 23.264C127.963 24.488 127.495 25.82 126.991 27.26C126.511 28.676 126.007 30.116 125.479 31.58C124.975 33.02 124.495 34.388 124.039 35.684C123.583 36.98 123.187 38.096 122.851 39.032C122.515 39.968 122.275 40.628 122.131 41.012C121.627 42.236 121.087 43.112 120.511 43.64C119.959 44.192 119.419 44.528 118.891 44.648C118.387 44.792 117.955 44.864 117.595 44.864Z" fill="#6E6F6B"/>
</svg>
