<svg width="50" height="34" viewBox="0 0 50 34" fill="none" xmlns="http://www.w3.org/2000/svg">
<path d="M35.0513 19.8478L35.0585 19.8434L35.0654 19.8386C35.8308 19.3061 36.5947 18.7656 37.3602 18.2241C39.4274 16.7616 41.5054 15.2914 43.6512 13.9501L43.6514 13.9503L43.6621 13.9429C44.184 13.5774 45.0115 13.5574 45.8202 13.8221C46.6268 14.0861 47.3216 14.6039 47.5891 15.1925L47.5929 15.2008L47.5972 15.2088C47.9288 15.8167 47.8915 16.2815 47.6866 16.6786C47.4705 17.0975 47.0549 17.4661 46.568 17.8319C44.8306 18.9649 43.0513 20.0487 41.2505 21.1456C40.1285 21.829 38.9982 22.5175 37.8644 23.2262C37.0731 23.6766 36.1616 23.6821 35.1682 23.6821C34.626 23.6821 34.2079 23.6365 33.9013 23.5464C33.5952 23.4565 33.4266 23.3304 33.3403 23.1883C33.2547 23.0472 33.2216 22.843 33.2885 22.5342C33.3556 22.2246 33.5181 21.836 33.788 21.3556C34.1619 20.7323 34.5008 20.1781 35.0513 19.8478Z" fill="white" stroke="black" stroke-width="0.5"/>
<path d="M26.7804 27.1791L26.7743 27.1842L26.7685 27.1897C24.4574 29.3795 21.7766 31.0872 18.9582 32.6804L18.9581 32.6803L18.9502 32.6852C18.2124 33.1393 17.4103 33.2309 16.5572 33.2009C16.1749 33.1875 15.7894 33.1501 15.3958 33.112C15.3487 33.1074 15.3015 33.1028 15.2542 33.0983C14.8149 33.0561 14.3667 33.0165 13.9236 33.0165C13.8042 33.0165 13.7235 32.9929 13.666 32.962C13.6087 32.9311 13.5606 32.8854 13.5176 32.8208C13.4251 32.6821 13.3726 32.4873 13.3096 32.236C13.2527 31.8298 13.2575 31.4757 13.3492 31.1746C13.4391 30.8791 13.6167 30.6206 13.9347 30.4072C15.1685 29.6665 16.4007 28.8038 17.6242 27.9472L17.6259 27.9461C18.3525 27.4617 19.1107 27.0369 19.8788 26.6067L19.8829 26.6044C20.6477 26.1761 21.4223 25.7422 22.1671 25.2456C23.2339 24.5343 24.282 24.1881 25.563 24.3036C25.8257 24.336 26.108 24.328 26.3709 24.3206L26.3834 24.3203C26.6594 24.3125 26.9171 24.3058 27.1568 24.334C27.394 24.3619 27.5956 24.4224 27.7615 24.537C27.9236 24.649 28.0704 24.8257 28.1779 25.1198C28.2538 25.3493 28.2511 25.5425 28.2024 25.7138C28.1523 25.8897 28.0494 26.0572 27.9035 26.224C27.7572 26.3913 27.5753 26.5492 27.3772 26.7077C27.3025 26.7675 27.2224 26.8297 27.1414 26.8926C27.0176 26.9887 26.8918 27.0863 26.7804 27.1791Z" fill="white" stroke="black" stroke-width="0.5"/>
<path d="M9.70959 8.44662L9.70965 8.44679L9.71836 8.4433C10.021 8.32223 10.3548 8.20079 10.6934 8.07765L10.6955 8.07686C11.0317 7.9546 11.3725 7.83064 11.6832 7.70634L11.6929 7.70247L11.7022 7.69782C12.07 7.5139 12.3915 7.38647 12.6802 7.38647C12.9405 7.38648 13.205 7.49077 13.47 7.859C13.7579 8.32171 13.9172 8.79263 13.9039 9.23223C13.8908 9.66455 13.7105 10.0916 13.2687 10.4786C12.5635 11.083 11.8608 11.5169 11.0675 12.0069C10.9146 12.1013 10.7584 12.1977 10.5982 12.2979L10.5982 12.2978L10.592 12.3019C10.2472 12.5318 9.8874 12.732 9.51297 12.9402C9.29314 13.0625 9.06828 13.1876 8.83847 13.3232C8.23117 13.6814 7.62204 14.0961 7.10546 14.6774L7.09512 14.689L7.08631 14.7018C6.46135 15.611 5.58002 15.989 4.6042 16.2443C4.30786 16.3218 4.01717 16.3848 3.72264 16.4487C3.52037 16.4926 3.31629 16.5368 3.10733 16.5864C2.62852 16.7001 2.15037 16.8368 1.70964 17.0492C1.18207 17.0365 0.785065 16.8465 0.542734 16.5678C0.294215 16.2819 0.183941 15.8753 0.290398 15.3922C0.39939 14.9587 0.614721 14.6297 0.958494 14.2854C3.52675 11.8394 6.32047 9.65721 9.70959 8.44662Z" fill="white" stroke="black" stroke-width="0.5"/>
<path d="M35.5369 2.26685L35.532 2.29112V2.31587C35.532 2.90265 35.1632 3.2063 34.5482 3.57536L34.5404 3.58005L34.533 3.58529C31.2648 5.88548 27.5039 6.86063 23.5878 7.47273C23.1836 7.53029 22.9076 7.49443 22.7133 7.39157C22.526 7.29236 22.3749 7.1094 22.2656 6.78118L22.2623 6.77132L22.2582 6.76176C22.0925 6.37504 22.073 6.03705 22.1601 5.75086C22.2474 5.46407 22.4503 5.20083 22.7811 4.98028L22.7811 4.98033L22.7858 4.97707C23.0008 4.82651 23.211 4.67683 23.4184 4.52912C24.4084 3.82407 25.3355 3.16384 26.4299 2.66632L26.4352 2.6639C27.7809 2.05211 29.1422 1.43325 30.3823 0.689319C31.9412 -0.200225 33.3837 0.418689 35.0839 1.14812C35.105 1.1572 35.1262 1.16628 35.1474 1.17539C35.3068 1.33859 35.4222 1.48663 35.4908 1.64672C35.5612 1.81105 35.5893 2.0048 35.5369 2.26685Z" fill="white" stroke="black" stroke-width="0.5"/>
<path d="M38.9759 8.79664L38.976 8.79669L38.9805 8.79395C39.8916 8.24724 40.8654 7.76009 41.8635 7.26862C41.9532 7.22446 42.0431 7.18027 42.1332 7.13599C43.0406 6.68979 43.9646 6.2355 44.8634 5.73009C45.1746 5.57622 45.551 5.54414 45.9897 5.54414C46.0911 5.54414 46.1967 5.54596 46.3051 5.54783C46.6412 5.55363 47.0032 5.55988 47.3422 5.51348C47.7326 5.51589 48.0737 5.60146 48.3248 5.76473C48.5722 5.9255 48.7459 6.16944 48.7969 6.52698L48.7993 6.54388L48.804 6.5603C48.9114 6.93627 48.8848 7.34317 48.7631 7.68122C48.6396 8.02447 48.433 8.26016 48.2147 8.34747L48.2147 8.34738L48.2082 8.3502C47.2801 8.75242 46.3765 9.2005 45.4826 9.64751C45.419 9.67932 45.3555 9.71112 45.292 9.74289C44.4611 10.1586 43.6379 10.5706 42.8019 10.9461C41.0056 11.753 39.1669 12.3841 37.1253 12.5054C37.0474 12.5056 36.9702 12.5075 36.8968 12.5093L36.8967 12.5093C36.8198 12.5113 36.7472 12.5131 36.6761 12.5131C36.5332 12.5131 36.4085 12.5055 36.2967 12.4807C36.0924 12.4353 35.9098 12.3293 35.76 12.0295C35.6138 11.7371 35.638 11.5112 35.7469 11.2811C35.8471 11.0696 36.0113 10.8675 36.2111 10.6217C36.2535 10.5694 36.2975 10.5152 36.3429 10.4586C36.6825 10.0634 37.1119 9.77446 37.5753 9.52033C37.793 9.40094 38.0143 9.29119 38.2366 9.181C38.2517 9.17353 38.2668 9.16605 38.2818 9.15857C38.5172 9.04181 38.7538 8.92362 38.9759 8.79664Z" fill="white" stroke="black" stroke-width="0.5"/>
<path d="M29.6417 11.9405L29.6417 11.9405L29.6426 11.9448C29.7527 12.4956 29.6417 12.9471 29.3916 13.3026C29.1379 13.6632 28.7274 13.9433 28.2122 14.1151L28.2122 14.1149L28.2035 14.1182C27.4587 14.3975 26.7386 14.7151 26.0301 15.0339C25.922 15.0825 25.8141 15.1312 25.7065 15.1798C25.1072 15.4503 24.5148 15.7176 23.9141 15.9631C22.5005 16.5408 21.0593 16.9893 19.445 17.0499C18.9086 17.0495 18.5594 16.9885 18.2916 16.8481C18.0294 16.7108 17.8146 16.4812 17.5826 16.0767C17.3722 15.6514 17.3746 15.204 17.5044 14.8535C17.6373 14.4946 17.8864 14.2726 18.14 14.2303L18.14 14.2305L18.1499 14.2285C19.6586 13.9141 21.0359 13.2551 22.3695 12.5958C22.4493 12.5564 22.5289 12.517 22.6084 12.4776C23.8666 11.8544 25.0896 11.2487 26.3896 10.9095L26.3977 10.9074L26.4056 10.9048C26.5471 10.8576 26.6618 10.8579 26.756 10.8696C26.8037 10.8756 26.8459 10.8844 26.8915 10.8939L26.8972 10.8951C26.8992 10.8955 26.9013 10.896 26.9035 10.8964C26.9425 10.9046 27.0048 10.9176 27.0633 10.9176H27.0647H27.0662H27.0676H27.069H27.0705H27.0719H27.0733H27.0747H27.0761H27.0776H27.079H27.0804H27.0818H27.0832H27.0846H27.086H27.0874H27.0888H27.0901H27.0915H27.0929H27.0943H27.0957H27.097H27.0984H27.0998H27.1012H27.1025H27.1039H27.1052H27.1066H27.1079H27.1093H27.1106H27.112H27.1133H27.1147H27.116H27.1173H27.1187H27.12H27.1213H27.1227H27.124H27.1253H27.1266H27.1279H27.1292H27.1306H27.1319H27.1332H27.1345H27.1358H27.1371H27.1384H27.1397H27.1409H27.1422H27.1435H27.1448H27.1461H27.1473H27.1486H27.1499H27.1512H27.1524H27.1537H27.155H27.1562H27.1575H27.1587H27.16H27.1612H27.1625H27.1637H27.165H27.1662H27.1674H27.1687H27.1699H27.1711H27.1724H27.1736H27.1748H27.176H27.1773H27.1785H27.1797H27.1809H27.1821H27.1833H27.1845H27.1857H27.1869H27.1881H27.1893H27.1905H27.1917H27.1929H27.1941H27.1953H27.1964H27.1976H27.1988H27.2H27.2012H27.2023H27.2035H27.2047H27.2058H27.207H27.2081H27.2093H27.2105H27.2116H27.2128H27.2139H27.2151H27.2162H27.2173H27.2185H27.2196H27.2208H27.2219H27.223H27.2242H27.2253H27.2264H27.2275H27.2287H27.2298H27.2309H27.232H27.2331H27.2342H27.2353H27.2364H27.2375H27.2386H27.2397H27.2408H27.2419H27.243H27.2441H27.2452H27.2463H27.2474H27.2485H27.2496H27.2506H27.2517H27.2528H27.2539H27.2549H27.256H27.2571H27.2581H27.2592H27.2603H27.2613H27.2624H27.2635H27.2645H27.2656H27.2666H27.2677H27.2687H27.2698H27.2708H27.2718H27.2729H27.2739H27.275H27.276H27.277H27.278H27.2791H27.2801H27.2811H27.2822H27.2832H27.2842H27.2852H27.2862H27.2872H27.2883H27.2893H27.2903H27.2913H27.2923H27.2933H27.2943H27.2953H27.2963H27.2973H27.2983H27.2993H27.3003H27.3013H27.3022H27.3032H27.3042H27.3052H27.3062H27.3072H27.3081H27.3091H27.3101H27.3111H27.312H27.313H27.314H27.3149H27.3159H27.3169H27.3178H27.3188H27.3197H27.3207H27.3216H27.3226H27.3235H27.3245H27.3254H27.3264H27.3273H27.3283H27.3292H27.3302H27.3311H27.332H27.333H27.3339H27.3348H27.3358H27.3367H27.3376H27.3386H27.3395H27.3404H27.3413H27.3422H27.3432H27.3441H27.345H27.3459H27.3468H27.3477H27.3486H27.3496H27.3505H27.3514H27.3523H27.3532H27.3541H27.355H27.3559H27.3568H27.3577H27.3586H27.3595H27.3603H27.3612H27.3621H27.363H27.3639H27.3648H27.3657H27.3666H27.3674H27.3683H27.3692H27.3701H27.3709H27.3718H27.3727H27.3736H27.3744H27.3753H27.3762H27.377H27.3779H27.3788H27.3796H27.3805H27.3814H27.3822H27.3831H27.3839H27.3848H27.3856H27.3865H27.3873H27.3882H27.389H27.3899H27.3907H27.3916H27.3924H27.3933H27.3941H27.395H27.3958H27.3966H27.3975H27.3983H27.3991H27.4H27.4008H27.4016H27.4025H27.4033H27.4041H27.405H27.4058H27.4066H27.4074H27.4083H27.4091H27.4099H27.4107H27.4115H27.4124H27.4132H27.414H27.4148H27.4156H27.4164H27.4172H27.4181H27.4189H27.4197H27.4205H27.4213H27.4221H27.4229H27.4237H27.4245H27.4253H27.4261H27.4269H27.4277H27.4285H27.4293H27.4301H27.4309H27.4317H27.4325H27.4333H27.4341H27.4349H27.4357H27.4365H27.4372H27.438H27.4388H27.4396H27.4404H27.4412H27.442H27.4427H27.4435H27.4443H27.4451H27.4459H27.4466H27.4474H27.4482H27.449H27.4497H27.4505H27.4513H27.4521H27.4528H27.4536H27.4544H27.4551H27.4559H27.4567H27.4575H27.4582H27.459H27.4598H27.4605H27.4613H27.462H27.4628H27.4636H27.4643H27.4651H27.4659H27.4666H27.4674H27.4681H27.4689H27.4696H27.4704H27.4712H27.4719H27.4727H27.4734H27.4742H27.4749H27.4757H27.4764H27.4772H27.4779H27.4787H27.4794H27.4802H27.4809H27.4817H27.4824H27.4832H27.4839H27.4847H27.4854H27.4861H27.4869H27.4876H27.4884H27.4891H27.4899H27.4906H27.4913H27.4921H27.4928H27.4936H27.4943H27.495H27.4958H27.4965H27.4972H27.498H27.4987H27.4995H27.5002H27.5009H27.5017H27.5024H27.5031H27.5039H27.5046H27.5053H27.5061H27.5068H27.5075H27.5082H27.509H27.5097H27.5104H27.5112H27.5119H27.5126H27.5134H27.5141H27.5148H27.5155H27.5163H27.517H27.5177H27.5184H27.5192H27.5199H27.5206H27.5214H27.5221H27.5228H27.5235H27.5243H27.525H27.5257H27.5264H27.5271H27.5279H27.5286H27.5293H27.53H27.5308H27.5315H27.5322H27.5329H27.5337H27.5344H27.5351H27.5358H27.5365H27.5372C27.7079 10.9409 27.8935 10.9514 28.0707 10.9614C28.1252 10.9645 28.179 10.9675 28.2312 10.9708C28.4688 10.9861 28.6887 11.008 28.8849 11.0621C29.0782 11.1155 29.2373 11.1972 29.3606 11.3249C29.483 11.4517 29.5874 11.6414 29.6417 11.9405Z" fill="white" stroke="black" stroke-width="0.5"/>
<path d="M2.13657 26.8444L2.13663 26.8444L2.13568 26.8387C2.07379 26.4673 2.02043 26.0754 2.07454 25.7372C2.12602 25.4154 2.26961 25.164 2.60158 25.0217L2.60166 25.0219L2.61096 25.0174C3.49417 24.595 4.36496 24.0946 5.22813 23.5985C5.74834 23.2996 6.26578 23.0022 6.7815 22.7245C8.16943 21.977 9.58267 21.3479 11.1372 21.1087L11.1372 21.109L11.1482 21.1068C11.4275 21.0509 11.6858 21.0557 11.8909 21.1281C12.0869 21.1973 12.2457 21.3312 12.3406 21.5686L12.3406 21.5686L12.343 21.5742C12.5242 21.9972 12.6605 22.419 12.6605 22.7961C12.6604 23.1559 12.5377 23.4745 12.1818 23.7287L12.1818 23.7287L12.1801 23.73C9.51757 25.6667 6.61173 26.8811 3.45715 27.6124C3.0419 27.6109 2.73645 27.5768 2.5228 27.4699C2.33174 27.3744 2.18838 27.2072 2.13657 26.8444Z" fill="white" stroke="black" stroke-width="0.5"/>
</svg>
