<svg width="133" height="111" viewBox="0 0 133 111" fill="none" xmlns="http://www.w3.org/2000/svg">
<path d="M74.4066 62.8618C75.4686 66.5792 74.0526 69.7656 72.6367 72.9519C70.8668 76.6694 71.2207 76.8464 74.9376 78.2626C80.4243 80.2098 86.2651 81.6259 90.8669 85.5204C94.5837 88.7068 94.2297 91.3621 89.6279 93.3093C85.3801 95.0795 81.3093 94.1944 77.2384 93.3093C76.3535 93.1323 75.6455 92.7782 74.7605 92.6012C72.6366 92.2472 72.2827 92.4242 72.6367 94.5484C73.3447 97.7348 73.3446 100.921 72.8136 104.108C72.1057 109.772 68.7428 111.542 63.4331 109.241C58.4773 107.117 55.4684 103.222 54.7604 97.5578C54.7604 96.6727 54.4064 95.9646 54.4064 95.0795C54.5834 94.9025 54.7604 94.5484 54.7604 94.5484C54.4064 94.0174 54.2294 94.3714 53.8754 94.5484C50.8665 95.4335 48.5657 97.7348 45.7338 98.974C41.84 100.567 38.1231 100.567 34.4063 98.2659C30.5124 95.7876 30.3355 91.7161 34.2293 89.0608C35.9992 87.8217 37.7691 86.7595 39.716 85.6974C41.486 84.6353 43.0789 83.7502 45.0258 82.6881C42.9019 80.3868 40.0701 79.6787 37.7692 78.2626C34.7603 76.1383 32.2823 73.483 29.6274 71.0047C28.2115 69.7656 27.6806 67.4643 28.5655 65.5171C29.4505 63.7469 31.2204 63.5699 32.9903 63.5699C37.9461 63.5699 42.548 65.3401 46.9728 67.6413C48.3887 68.3494 49.8046 69.2345 51.5745 69.9426C54.5834 71.0047 54.5834 71.1817 56.1763 68.3494C57.2383 66.5792 57.9463 64.809 59.0082 63.2158C61.6631 58.4363 65.0259 55.0729 71.2207 57.0201C70.1587 60.7375 70.1588 60.7375 74.4066 62.8618ZM59.5392 86.4055C60.9551 86.4055 62.371 84.9893 62.371 83.3961C62.371 81.6259 60.0702 78.9706 58.4773 78.9706C56.8844 78.9706 55.6453 80.3868 55.6453 81.98C55.8223 83.9272 57.7693 86.4055 59.5392 86.4055Z" fill="#E67572"/>
<path d="M12.9902 20.3768C13.6982 20.5539 14.7601 20.9079 15.6451 20.9079C18.123 21.2619 18.8309 20.5539 17.946 18.0756C16.707 14.3581 15.999 10.6407 16.353 6.92327C16.884 2.67478 19.3619 0.373524 23.6098 0.0194834C25.2027 -0.157537 26.2647 0.904597 27.1496 1.96672C30.5125 5.68415 33.1674 9.75561 35.4683 14.1811C37.0612 17.3675 37.2381 17.1905 40.601 15.7743C43.9639 14.3581 47.5037 13.119 50.8665 11.8798C52.2825 11.3488 53.8755 11.3488 55.4684 11.5258C57.5923 11.8799 59.5392 12.4109 60.0702 14.5352C60.6011 16.6594 60.0702 18.7837 58.3002 20.1998C55.4684 22.5011 53.1675 25.3334 49.6277 26.9266C47.6808 27.8117 47.8578 29.0508 48.7427 30.644C49.6277 32.0602 50.8666 32.9453 52.1055 33.8304C56.1763 37.0168 58.8313 40.9112 58.4773 46.5759C58.3003 49.7622 57.4153 50.8244 54.2294 51.3554C53.3445 51.5324 52.6365 51.7095 51.7515 51.8865C48.3886 52.4175 45.5568 52.2405 43.0789 49.0541C41.132 46.5759 38.8311 44.6286 37.2382 41.7963C35.9993 39.495 35.2913 39.6721 33.6984 41.9733C31.7514 44.6286 29.9814 47.2839 27.8575 49.7622C25.3796 52.7716 22.1938 54.3648 18.1229 53.3026C17.238 53.1256 16.5301 53.1256 15.6451 53.1256C11.5743 52.7716 10.3353 50.4703 11.9282 46.7529C13.3441 43.2125 15.1141 39.8491 17.592 36.8397C18.123 36.1317 19.008 35.6006 18.654 34.7155C18.3 33.4763 17.061 33.8304 16.1761 33.6534C11.3973 33.1223 6.79544 32.0602 2.54762 29.4049C-0.992225 27.1036 -0.815211 24.8024 2.90163 22.6781C6.08749 21.0849 9.45037 20.9079 12.9902 20.3768ZM32.9903 33.8304C36.5302 33.8304 39.0081 31.5291 39.0081 28.1657C39.0081 24.9794 35.9992 22.147 32.6363 22.147C29.8045 22.147 26.0876 25.6875 26.0876 28.3428C26.0876 30.9981 29.6275 33.8304 32.9903 33.8304Z" fill="#E67572"/>
<path d="M108.212 52.2406C106.796 55.604 105.911 58.9674 103.965 61.6227C101.841 64.632 100.071 67.9954 95.4689 67.6414C90.8671 67.2873 88.7432 64.9861 89.2742 60.3835C89.6282 58.2593 89.8051 55.958 90.6901 53.8338C91.929 50.2934 91.752 50.2934 88.0352 49.9393C82.9024 49.5853 78.4776 47.9921 74.2298 45.3368C72.4599 44.2747 71.9289 43.0355 72.1059 41.2653C72.2829 39.1411 73.8758 38.433 75.6457 38.256C78.8316 37.9019 82.0175 37.0168 85.2034 37.3709C86.2653 37.5479 87.1503 37.3709 88.2123 37.3709C89.9822 37.3709 90.6902 36.4858 90.8671 34.7156C90.8671 32.4143 91.0441 30.113 91.0441 27.9888C91.0441 26.5726 91.3981 25.1565 91.5751 23.7403C92.283 20.731 93.876 18.6067 97.0619 18.0756C100.425 17.5446 103.08 18.9607 105.027 21.616C106.619 23.7403 107.504 26.0416 108.389 28.3428C108.92 29.936 109.982 30.113 110.867 28.8739C112.283 26.7496 114.407 25.6875 116.177 24.2714C117.593 23.2092 119.186 22.8552 120.956 23.0322C126.62 23.3863 127.682 25.1565 125.558 30.2901C124.142 33.6534 121.487 36.3088 119.717 39.4951C117.947 42.5045 117.947 42.5045 121.133 44.0977C123.434 45.3368 125.912 46.3989 128.036 48.1691C128.39 48.5232 128.921 48.8772 129.275 49.2312C132.283 52.0636 133.168 54.5419 131.752 57.0201C130.513 59.1444 126.443 60.5605 123.434 59.6754C120.779 58.7903 118.124 57.9052 115.469 56.8431C112.814 55.958 111.044 53.8338 108.212 52.2406ZM99.1858 41.4423C99.1858 43.3896 100.071 44.8057 101.31 45.3368C102.903 46.0449 107.681 44.4517 108.743 43.2125C109.097 42.6815 109.274 42.1504 109.097 41.6194C108.566 40.2032 108.035 38.433 106.266 38.433C103.611 38.256 100.956 38.9641 98.8318 40.5572C98.6548 40.3802 99.0088 41.0883 99.1858 41.4423ZM97.5928 25.1565C97.5928 26.0416 97.7699 26.9267 98.8318 27.1037C99.5398 27.1037 100.071 26.5726 100.071 25.8645C100.071 24.9794 99.5397 24.2714 98.6548 24.2714C97.7698 23.9173 97.7698 24.6254 97.5928 25.1565ZM94.2299 42.1504C94.7609 41.9734 94.938 41.7964 94.761 41.2653C94.761 41.0883 94.4069 40.9113 94.2299 40.9113C93.699 40.9113 93.522 41.2653 93.699 41.7964C93.699 41.9734 94.0529 41.9734 94.2299 42.1504Z" fill="#E67572"/>
<path d="M74.4069 62.8618C70.1591 60.9146 70.159 60.9146 71.221 57.0201C74.2298 57.9052 74.7609 60.0295 74.4069 62.8618Z" fill="#FAA57B"/>
<path d="M59.5394 86.4054C57.7695 86.4054 55.8226 84.1041 55.8226 81.9799C55.8226 80.3867 57.0616 78.9705 58.6545 78.9705C60.2474 78.9705 62.5483 81.6258 62.5483 83.396C62.5483 84.8122 61.1324 86.2284 59.5394 86.4054Z" fill="#FAC95D"/>
<path d="M32.9905 33.8304C29.4507 33.8304 25.9108 30.9981 26.0878 28.3428C26.0878 25.6875 29.8046 22.3241 32.6365 22.1471C35.8224 22.1471 38.8313 24.9794 39.0083 28.1658C39.0083 31.5292 36.5304 33.8304 32.9905 33.8304Z" fill="#FAC95D"/>
<path d="M99.1857 41.4423C99.0087 41.0882 98.6547 40.3801 98.6547 40.3801C100.956 38.787 103.433 38.0789 106.088 38.2559C108.035 38.4329 108.389 40.2031 108.92 41.4423C109.097 41.9733 108.92 42.5044 108.566 43.0354C107.504 44.4516 102.726 45.8678 101.133 45.1597C100.071 44.8056 99.1857 43.2125 99.1857 41.4423Z" fill="#FAC95D"/>
<path d="M97.5927 25.1564C97.7697 24.8024 97.7697 24.0943 98.4776 24.0943C99.3626 24.0943 99.8936 24.8024 99.8936 25.6875C99.8936 26.5726 99.5395 27.1037 98.6546 26.9267C97.7696 26.9267 97.5927 26.0416 97.5927 25.1564Z" fill="#FAA57B"/>
<path d="M94.23 42.1503C94.053 41.9732 93.699 41.9732 93.699 41.7962C93.522 41.4422 93.876 41.0881 94.23 40.9111C94.407 40.9111 94.761 41.0881 94.761 41.2652C94.938 41.7962 94.584 42.1503 94.23 42.1503Z" fill="#FAA57B"/>
</svg>
