<svg width="50" height="34" viewBox="0 0 50 34" fill="none" xmlns="http://www.w3.org/2000/svg">
<path d="M35.0513 19.8478L35.0585 19.8434L35.0654 19.8386C35.8308 19.3061 36.5947 18.7656 37.3602 18.2241C39.4274 16.7616 41.5054 15.2914 43.6512 13.9501L43.6514 13.9503L43.6621 13.9429C44.184 13.5774 45.0115 13.5574 45.8202 13.8221C46.6268 14.0861 47.3216 14.6039 47.5891 15.1925L47.5929 15.2008L47.5972 15.2088C47.9288 15.8167 47.8915 16.2815 47.6866 16.6786C47.4705 17.0975 47.0549 17.4661 46.568 17.8319C44.8306 18.9649 43.0513 20.0487 41.2505 21.1456C40.1285 21.829 38.9982 22.5175 37.8644 23.2262C37.0731 23.6766 36.1616 23.6821 35.1682 23.6821C34.626 23.6821 34.2079 23.6365 33.9013 23.5464C33.5952 23.4565 33.4266 23.3304 33.3403 23.1883C33.2547 23.0472 33.2216 22.843 33.2885 22.5342C33.3556 22.2246 33.5181 21.836 33.788 21.3556C34.1619 20.7323 34.5008 20.1781 35.0513 19.8478Z" fill="#50C5F8" stroke="black" stroke-width="0.5"/>
<path d="M26.7804 27.1791L26.7743 27.1842L26.7685 27.1897C24.4574 29.3795 21.7766 31.0872 18.9582 32.6804L18.9581 32.6803L18.9502 32.6852C18.2124 33.1393 17.4103 33.2309 16.5572 33.2009C16.1749 33.1875 15.7894 33.1501 15.3958 33.112C15.3487 33.1074 15.3015 33.1028 15.2542 33.0983C14.8149 33.0561 14.3667 33.0165 13.9236 33.0165C13.8042 33.0165 13.7235 32.9929 13.666 32.962C13.6087 32.9311 13.5606 32.8854 13.5176 32.8208C13.4251 32.6821 13.3726 32.4873 13.3096 32.236C13.2527 31.8298 13.2575 31.4757 13.3492 31.1746C13.4391 30.8791 13.6167 30.6206 13.9347 30.4072C15.1685 29.6665 16.4007 28.8038 17.6242 27.9472L17.6259 27.9461C18.3525 27.4617 19.1107 27.0369 19.8788 26.6067L19.8829 26.6044C20.6477 26.1761 21.4223 25.7422 22.1671 25.2456C23.2339 24.5343 24.282 24.1881 25.563 24.3036C25.8257 24.336 26.108 24.328 26.3709 24.3206L26.3834 24.3203C26.6594 24.3125 26.9171 24.3058 27.1568 24.334C27.394 24.3619 27.5956 24.4224 27.7615 24.537C27.9236 24.649 28.0704 24.8257 28.1779 25.1198C28.2538 25.3493 28.2511 25.5425 28.2024 25.7138C28.1523 25.8897 28.0494 26.0572 27.9035 26.224C27.7572 26.3913 27.5753 26.5492 27.3772 26.7077C27.3025 26.7675 27.2224 26.8297 27.1414 26.8926C27.0176 26.9887 26.8918 27.0863 26.7804 27.1791Z" fill="#50C5F8" stroke="black" stroke-width="0.5"/>
<path d="M9.70959 8.44662L9.70965 8.44679L9.71836 8.4433C10.021 8.32223 10.3548 8.20079 10.6934 8.07765L10.6955 8.07686C11.0317 7.9546 11.3725 7.83064 11.6832 7.70634L11.6929 7.70247L11.7022 7.69782C12.07 7.5139 12.3915 7.38647 12.6802 7.38647C12.9405 7.38648 13.205 7.49077 13.47 7.859C13.7579 8.32171 13.9172 8.79263 13.9039 9.23223C13.8908 9.66455 13.7105 10.0916 13.2687 10.4786C12.5635 11.083 11.8608 11.5169 11.0675 12.0069C10.9146 12.1013 10.7584 12.1977 10.5982 12.2979L10.5982 12.2978L10.592 12.3019C10.2472 12.5318 9.8874 12.732 9.51297 12.9402C9.29314 13.0625 9.06828 13.1876 8.83847 13.3232C8.23117 13.6814 7.62204 14.0961 7.10546 14.6774L7.09512 14.689L7.08631 14.7018C6.46135 15.611 5.58002 15.989 4.6042 16.2443C4.30786 16.3218 4.01717 16.3848 3.72264 16.4487C3.52037 16.4926 3.31629 16.5368 3.10733 16.5864C2.62852 16.7001 2.15037 16.8368 1.70964 17.0492C1.18207 17.0365 0.785065 16.8465 0.542734 16.5678C0.294215 16.2819 0.183941 15.8753 0.290398 15.3922C0.39939 14.9587 0.614721 14.6297 0.958494 14.2854C3.52675 11.8394 6.32047 9.65721 9.70959 8.44662Z" fill="#50C5F8" stroke="black" stroke-width="0.5"/>
<path d="M35.5371 2.26685L35.5323 2.29112V2.31587C35.5323 2.90265 35.1635 3.2063 34.5484 3.57536L34.5406 3.58005L34.5332 3.58529C31.265 5.88548 27.5042 6.86063 23.5881 7.47273C23.1838 7.53029 22.9078 7.49443 22.7136 7.39157C22.5262 7.29236 22.3752 7.1094 22.2658 6.78118L22.2625 6.77132L22.2584 6.76176C22.0927 6.37504 22.0733 6.03705 22.1604 5.75086C22.2476 5.46407 22.4505 5.20083 22.7813 4.98028L22.7814 4.98033L22.786 4.97707C23.0011 4.82651 23.2112 4.67683 23.4186 4.52912C24.4087 3.82407 25.3357 3.16384 26.4301 2.66632L26.4354 2.6639C27.7812 2.05211 29.1424 1.43325 30.3825 0.689319C31.9415 -0.200225 33.384 0.418689 35.0841 1.14812C35.1052 1.1572 35.1264 1.16628 35.1477 1.17539C35.307 1.33859 35.4225 1.48663 35.4911 1.64672C35.5615 1.81105 35.5895 2.0048 35.5371 2.26685Z" fill="#50C5F8" stroke="black" stroke-width="0.5"/>
<path d="M38.9759 8.79664L38.976 8.79669L38.9805 8.79395C39.8916 8.24724 40.8654 7.76009 41.8635 7.26862C41.9532 7.22446 42.0431 7.18027 42.1332 7.13599C43.0406 6.68979 43.9646 6.2355 44.8634 5.73009C45.1746 5.57622 45.551 5.54414 45.9897 5.54414C46.0911 5.54414 46.1967 5.54596 46.3051 5.54783C46.6412 5.55363 47.0032 5.55988 47.3422 5.51348C47.7326 5.51589 48.0737 5.60146 48.3248 5.76473C48.5722 5.9255 48.7459 6.16944 48.7969 6.52698L48.7993 6.54388L48.804 6.5603C48.9114 6.93627 48.8848 7.34317 48.7631 7.68122C48.6396 8.02447 48.433 8.26016 48.2147 8.34747L48.2147 8.34738L48.2082 8.3502C47.2801 8.75242 46.3765 9.2005 45.4826 9.64751C45.419 9.67932 45.3555 9.71112 45.292 9.74289C44.4611 10.1586 43.6379 10.5706 42.8019 10.9461C41.0056 11.753 39.1669 12.3841 37.1253 12.5054C37.0474 12.5056 36.9702 12.5075 36.8968 12.5093L36.8967 12.5093C36.8198 12.5113 36.7472 12.5131 36.6761 12.5131C36.5332 12.5131 36.4085 12.5055 36.2967 12.4807C36.0924 12.4353 35.9098 12.3293 35.76 12.0295C35.6138 11.7371 35.638 11.5112 35.7469 11.2811C35.8471 11.0696 36.0113 10.8675 36.2111 10.6217C36.2535 10.5694 36.2975 10.5152 36.3429 10.4586C36.6825 10.0634 37.1119 9.77446 37.5753 9.52033C37.793 9.40094 38.0143 9.29119 38.2366 9.181C38.2517 9.17353 38.2668 9.16605 38.2818 9.15857C38.5172 9.04181 38.7538 8.92362 38.9759 8.79664Z" fill="#50C5F8" stroke="black" stroke-width="0.5"/>
<path d="M29.6415 11.9405L29.6415 11.9405L29.6423 11.9448C29.7524 12.4956 29.6414 12.9471 29.3914 13.3026C29.1376 13.6632 28.7272 13.9433 28.212 14.1151L28.2119 14.1149L28.2033 14.1182C27.4584 14.3975 26.7384 14.7151 26.0299 15.0339C25.9217 15.0825 25.8139 15.1312 25.7063 15.1798C25.1069 15.4503 24.5146 15.7176 23.9138 15.9631C22.5002 16.5408 21.059 16.9893 19.4448 17.0499C18.9084 17.0495 18.5592 16.9885 18.2913 16.8481C18.0292 16.7108 17.8143 16.4812 17.5824 16.0767C17.3719 15.6514 17.3743 15.204 17.5041 14.8535C17.6371 14.4946 17.8861 14.2726 18.1397 14.2303L18.1398 14.2305L18.1496 14.2285C19.6584 13.9141 21.0356 13.2551 22.3693 12.5958C22.4491 12.5564 22.5287 12.517 22.6082 12.4776C23.8664 11.8544 25.0893 11.2487 26.3894 10.9095L26.3975 10.9074L26.4054 10.9048C26.5468 10.8576 26.6615 10.8579 26.7558 10.8696C26.8034 10.8756 26.8457 10.8844 26.8913 10.8939L26.8969 10.8951C26.899 10.8955 26.9011 10.896 26.9033 10.8964C26.9422 10.9046 27.0045 10.9176 27.0631 10.9176H27.0645H27.0659H27.0674H27.0688H27.0702H27.0716H27.0731H27.0745H27.0759H27.0773H27.0787H27.0801H27.0815H27.0829H27.0843H27.0857H27.0871H27.0885H27.0899H27.0913H27.0927H27.0941H27.0954H27.0968H27.0982H27.0995H27.1009H27.1023H27.1036H27.105H27.1064H27.1077H27.1091H27.1104H27.1117H27.1131H27.1144H27.1158H27.1171H27.1184H27.1198H27.1211H27.1224H27.1237H27.1251H27.1264H27.1277H27.129H27.1303H27.1316H27.1329H27.1342H27.1355H27.1368H27.1381H27.1394H27.1407H27.142H27.1433H27.1445H27.1458H27.1471H27.1484H27.1496H27.1509H27.1522H27.1534H27.1547H27.156H27.1572H27.1585H27.1597H27.161H27.1622H27.1635H27.1647H27.166H27.1672H27.1684H27.1697H27.1709H27.1721H27.1734H27.1746H27.1758H27.177H27.1782H27.1794H27.1807H27.1819H27.1831H27.1843H27.1855H27.1867H27.1879H27.1891H27.1903H27.1915H27.1926H27.1938H27.195H27.1962H27.1974H27.1986H27.1997H27.2009H27.2021H27.2032H27.2044H27.2056H27.2067H27.2079H27.2091H27.2102H27.2114H27.2125H27.2137H27.2148H27.216H27.2171H27.2182H27.2194H27.2205H27.2216H27.2228H27.2239H27.225H27.2262H27.2273H27.2284H27.2295H27.2306H27.2318H27.2329H27.234H27.2351H27.2362H27.2373H27.2384H27.2395H27.2406H27.2417H27.2428H27.2439H27.245H27.2461H27.2472H27.2482H27.2493H27.2504H27.2515H27.2526H27.2536H27.2547H27.2558H27.2568H27.2579H27.259H27.26H27.2611H27.2622H27.2632H27.2643H27.2653H27.2664H27.2674H27.2685H27.2695H27.2706H27.2716H27.2726H27.2737H27.2747H27.2757H27.2768H27.2778H27.2788H27.2799H27.2809H27.2819H27.2829H27.2839H27.285H27.286H27.287H27.288H27.289H27.29H27.291H27.292H27.293H27.294H27.295H27.296H27.297H27.298H27.299H27.3H27.301H27.302H27.303H27.304H27.3049H27.3059H27.3069H27.3079H27.3089H27.3098H27.3108H27.3118H27.3127H27.3137H27.3147H27.3156H27.3166H27.3176H27.3185H27.3195H27.3204H27.3214H27.3223H27.3233H27.3242H27.3252H27.3261H27.3271H27.328H27.329H27.3299H27.3309H27.3318H27.3327H27.3337H27.3346H27.3355H27.3365H27.3374H27.3383H27.3392H27.3402H27.3411H27.342H27.3429H27.3438H27.3447H27.3457H27.3466H27.3475H27.3484H27.3493H27.3502H27.3511H27.352H27.3529H27.3538H27.3547H27.3556H27.3565H27.3574H27.3583H27.3592H27.3601H27.361H27.3619H27.3628H27.3637H27.3645H27.3654H27.3663H27.3672H27.3681H27.3689H27.3698H27.3707H27.3716H27.3724H27.3733H27.3742H27.3751H27.3759H27.3768H27.3777H27.3785H27.3794H27.3802H27.3811H27.382H27.3828H27.3837H27.3845H27.3854H27.3862H27.3871H27.3879H27.3888H27.3896H27.3905H27.3913H27.3922H27.393H27.3939H27.3947H27.3955H27.3964H27.3972H27.3981H27.3989H27.3997H27.4006H27.4014H27.4022H27.4031H27.4039H27.4047H27.4055H27.4064H27.4072H27.408H27.4088H27.4097H27.4105H27.4113H27.4121H27.4129H27.4138H27.4146H27.4154H27.4162H27.417H27.4178H27.4186H27.4194H27.4202H27.4211H27.4219H27.4227H27.4235H27.4243H27.4251H27.4259H27.4267H27.4275H27.4283H27.4291H27.4299H27.4307H27.4315H27.4323H27.433H27.4338H27.4346H27.4354H27.4362H27.437H27.4378H27.4386H27.4394H27.4401H27.4409H27.4417H27.4425H27.4433H27.4441H27.4448H27.4456H27.4464H27.4472H27.4479H27.4487H27.4495H27.4503H27.451H27.4518H27.4526H27.4534H27.4541H27.4549H27.4557H27.4564H27.4572H27.458H27.4587H27.4595H27.4603H27.461H27.4618H27.4626H27.4633H27.4641H27.4648H27.4656H27.4664H27.4671H27.4679H27.4686H27.4694H27.4702H27.4709H27.4717H27.4724H27.4732H27.4739H27.4747H27.4754H27.4762H27.4769H27.4777H27.4784H27.4792H27.4799H27.4807H27.4814H27.4822H27.4829H27.4837H27.4844H27.4852H27.4859H27.4866H27.4874H27.4881H27.4889H27.4896H27.4904H27.4911H27.4918H27.4926H27.4933H27.4941H27.4948H27.4955H27.4963H27.497H27.4977H27.4985H27.4992H27.4999H27.5007H27.5014H27.5021H27.5029H27.5036H27.5043H27.5051H27.5058H27.5065H27.5073H27.508H27.5087H27.5095H27.5102H27.5109H27.5117H27.5124H27.5131H27.5138H27.5146H27.5153H27.516H27.5168H27.5175H27.5182H27.5189H27.5197H27.5204H27.5211H27.5218H27.5226H27.5233H27.524H27.5247H27.5255H27.5262H27.5269H27.5276H27.5283H27.5291H27.5298H27.5305H27.5312H27.532H27.5327H27.5334H27.5341H27.5349H27.5356H27.5363H27.5369C27.7076 10.9409 27.8932 10.9514 28.0705 10.9614C28.125 10.9645 28.1787 10.9675 28.231 10.9708C28.4685 10.9861 28.6885 11.008 28.8846 11.0621C29.078 11.1155 29.237 11.1972 29.3603 11.3249C29.4828 11.4517 29.5871 11.6414 29.6415 11.9405Z" fill="#50C5F8" stroke="black" stroke-width="0.5"/>
<path d="M2.13657 26.8444L2.13663 26.8444L2.13568 26.8387C2.07379 26.4673 2.02043 26.0754 2.07454 25.7372C2.12602 25.4154 2.26961 25.164 2.60158 25.0217L2.60166 25.0219L2.61096 25.0174C3.49417 24.595 4.36496 24.0946 5.22813 23.5985C5.74834 23.2996 6.26578 23.0022 6.7815 22.7245C8.16943 21.977 9.58267 21.3479 11.1372 21.1087L11.1372 21.109L11.1482 21.1068C11.4275 21.0509 11.6858 21.0557 11.8909 21.1281C12.0869 21.1973 12.2457 21.3312 12.3406 21.5686L12.3406 21.5686L12.343 21.5742C12.5242 21.9972 12.6605 22.419 12.6605 22.7961C12.6604 23.1559 12.5377 23.4745 12.1818 23.7287L12.1818 23.7287L12.1801 23.73C9.51757 25.6667 6.61173 26.8811 3.45715 27.6124C3.0419 27.6109 2.73645 27.5768 2.5228 27.4699C2.33174 27.3744 2.18838 27.2072 2.13657 26.8444Z" fill="#50C5F8" stroke="black" stroke-width="0.5"/>
</svg>
