<svg width="823" height="462" viewBox="0 0 823 462" fill="none" xmlns="http://www.w3.org/2000/svg">
<path d="M340.98 461.473C333.719 462.176 326.458 462.176 319.197 461.473C319.197 459.717 315.236 457.257 322.497 456.555C328.438 456.204 331.078 453.744 333.059 450.934C333.719 449.88 337.679 448.826 333.719 447.772C331.078 446.718 329.098 447.772 327.118 449.177C321.177 453.393 311.935 454.798 305.334 458.311C302.694 459.365 300.053 460.77 297.413 459.014C290.812 454.798 286.191 457.609 280.91 460.068C278.93 460.068 276.95 459.717 274.309 459.717C270.349 457.257 267.048 454.447 262.427 451.988C258.467 449.88 253.186 448.475 247.245 447.772C242.625 447.421 239.984 449.529 237.344 451.285C236.024 452.339 234.043 452.69 232.063 452.339C221.501 450.583 211.6 452.69 201.038 453.393C199.718 453.393 198.397 453.393 196.417 453.393H195.097C191.796 453.393 187.836 453.393 184.535 453.042C183.215 452.339 182.555 452.339 181.235 453.042C179.255 453.042 176.614 453.393 174.634 453.393C170.013 452.339 173.974 448.475 167.373 447.421C164.072 451.285 156.151 452.339 149.55 454.447C147.569 454.447 145.589 454.447 142.949 454.798C142.949 450.583 141.629 448.123 131.067 449.177C121.826 450.231 111.924 449.177 102.682 447.772C91.4607 446.016 81.5592 447.421 72.9778 451.988C55.8151 451.988 39.3127 448.475 22.8101 446.718C22.8101 445.313 22.8101 443.908 22.8101 442.151C31.3914 443.556 36.6723 441.8 39.3127 437.233C50.5344 431.963 50.5344 432.666 72.3179 429.504C80.8992 428.099 90.1407 426.342 98.722 423.181C94.7614 420.37 89.4807 419.668 88.1605 416.154C82.8797 422.829 82.8792 422.829 70.3372 417.208C78.9186 416.154 78.2585 409.48 83.5393 409.128C90.1403 409.128 97.402 411.939 104.663 412.993C105.983 412.993 106.643 412.993 107.964 413.344C108.624 414.749 108.623 416.154 112.584 416.154C125.126 415.452 136.347 411.236 150.21 412.29C153.51 412.641 157.471 410.885 158.131 408.777C159.452 406.318 162.091 404.913 166.712 404.913C173.313 404.913 178.594 402.453 179.254 399.643C179.914 396.481 172.654 395.779 168.033 394.373C163.412 393.319 154.171 395.076 161.432 389.455C162.092 388.753 162.092 388.05 160.772 388.05C151.53 388.753 149.55 384.537 144.269 381.726C140.969 379.97 136.348 380.672 132.387 382.078C127.766 383.834 126.446 386.293 126.446 389.455C125.786 392.968 128.426 396.481 126.446 399.994C124.466 403.507 121.825 406.318 115.885 405.615C109.944 404.913 104.663 402.102 100.042 399.643C99.3818 399.292 100.042 398.589 100.702 398.238C112.584 391.914 95.421 394.373 94.1008 392.266C101.362 387.699 104.003 382.429 103.342 374.7C100.702 377.511 100.042 378.916 98.722 379.97C97.4018 381.024 94.7612 382.078 92.7809 382.78C88.8203 384.186 88.8204 385.942 88.8204 388.05C85.5199 389.104 84.1996 391.212 82.8794 392.968C82.2193 394.725 82.8792 395.076 86.8398 395.427C92.7808 396.13 93.4407 397.535 90.8003 397.886C83.5391 399.292 94.7612 402.102 89.4804 402.453C79.5788 402.805 75.6181 408.074 67.0367 409.128C59.1155 410.534 57.135 411.939 57.7951 416.506C57.7951 418.262 55.8148 418.965 54.4946 420.019C49.2137 423.532 43.9336 426.694 38.6527 430.207C34.032 428.45 36.0123 425.991 35.3522 423.532C36.0123 422.127 32.7115 419.316 39.9726 420.019C41.2928 420.37 43.273 420.721 43.9331 420.37C52.5144 415.452 48.554 405.967 36.6721 401.048C32.7115 403.859 39.3124 409.128 27.4305 410.182C24.7901 410.534 24.7906 412.993 25.4507 414.749C26.1108 417.56 28.0908 420.37 26.7705 423.532C26.1104 424.586 29.4106 424.937 31.391 425.288C31.391 428.801 27.4303 430.207 21.4894 430.207C16.8687 430.207 12.2481 430.207 7.62738 430.207C7.62738 429.153 7.62754 428.099 6.96744 426.694C9.60785 425.288 9.60801 424.234 6.3075 423.532C6.3075 422.478 6.30766 421.424 5.64755 420.37C6.96776 418.614 11.588 416.154 4.32686 415.1C4.32686 413.344 3.66692 411.587 3.66692 410.182C7.62754 405.615 6.96776 401.048 2.34704 396.481C-2.93379 371.187 2.34704 346.244 2.34704 320.95C2.34704 305.844 0.366241 291.089 1.02634 275.983C1.68645 264.038 1.68661 251.743 6.96744 240.15C10.268 239.798 10.9284 238.042 12.2486 236.637C14.889 232.772 13.5683 228.205 17.5289 224.692C24.13 219.422 16.2087 220.125 10.9279 219.774C10.2678 218.72 10.2676 217.666 11.5878 216.612C14.2283 216.261 16.8688 216.261 17.5289 214.504C18.189 212.396 16.2092 211.342 12.2486 210.991C12.9087 209.937 12.9084 208.532 13.5685 207.478C16.2089 207.829 20.1694 209.586 20.8295 206.775C21.4896 202.208 21.4897 197.993 23.47 193.426C25.4503 190.264 22.1501 188.156 15.5491 187.454C15.5491 186.4 15.5491 185.346 15.5491 184.292C24.1305 184.292 28.7505 182.887 24.7899 177.617C23.4697 175.86 24.13 173.753 24.13 171.996C23.4699 169.537 20.1697 169.186 16.2091 168.834C13.5686 166.024 14.2283 163.213 14.8884 160.403C21.4894 158.646 28.0909 157.241 19.5096 152.674C16.8692 151.269 19.5092 149.864 20.8295 148.458C26.7704 142.838 34.6921 138.271 45.2538 135.46C36.6724 127.029 36.6724 127.029 22.1501 132.65C20.1698 133.352 17.5288 133.352 14.8884 133.352C14.8884 131.596 15.5491 129.839 15.5491 128.434C16.8693 128.083 17.5293 127.731 16.2091 127.029C16.2091 117.543 16.869 108.058 16.869 98.5729C18.1892 98.5729 19.5094 98.5729 20.1695 98.2216C27.4307 95.0598 24.7904 89.4389 29.4111 85.5745C31.3914 84.1693 26.1103 83.1154 24.13 82.0615C20.1694 79.9536 22.8102 77.8457 25.4507 76.0892C27.431 75.0353 30.7313 74.3327 32.7116 73.2788C33.3717 72.9275 34.6915 70.8196 31.391 71.1709C26.1101 72.2248 24.1305 68.0092 18.8496 69.4144C16.8693 65.55 17.5293 61.6856 19.5096 57.8212C22.15 58.1726 26.7702 55.3621 28.0904 59.2265C28.7505 60.983 26.7707 63.0909 29.4111 64.4961C40.6329 62.037 39.9729 56.0647 41.9533 51.1464C43.2735 48.336 43.2731 46.2281 36.6721 45.8768C30.0711 45.5255 27.4305 43.4177 27.4305 40.2559C27.4305 38.4994 27.4305 36.7428 24.13 35.6889C22.1497 31.8245 20.1692 27.9602 21.4894 23.7445C29.4106 20.5827 40.6329 18.8262 36.0122 11.4487C39.3127 11.8 42.6134 12.1513 45.2538 10.7461C49.2144 8.28697 55.155 7.93564 59.7757 8.63826C74.9581 11.0974 88.82 7.23302 104.002 7.58432C125.126 8.28694 146.25 10.3948 167.373 11.0974C177.935 11.4487 187.836 12.1513 198.398 11.0974C201.698 10.3948 204.999 10.3948 208.299 11.0974C212.26 14.6105 216.88 14.6105 221.501 11.4487C224.142 10.3948 227.442 10.3948 230.743 10.7461C231.403 11.4487 232.723 11.8 234.043 10.7461C236.684 11.0974 238.664 11.0974 241.304 11.4487C250.546 12.854 259.787 12.1514 269.028 11.8001C285.531 11.0974 301.373 7.58435 318.536 9.69219C322.497 10.3948 326.458 8.98956 329.098 6.88172C331.079 6.88172 332.398 6.53045 334.379 6.53045C338.339 6.88175 342.3 7.23303 344.94 5.12519C347.581 5.12519 350.222 4.77391 352.202 4.77391C366.724 8.28698 382.566 -0.847002 396.429 6.53045C396.429 6.53045 397.748 6.53042 397.748 6.17912C413.591 0.909512 428.773 4.42259 443.296 7.23305C445.276 7.58436 447.257 7.58433 449.237 6.88172C453.858 4.42257 460.459 5.47649 465.739 5.12519C473.001 4.77388 480.261 6.17913 486.862 3.71998C488.843 3.71998 491.483 3.71998 493.464 3.71998C497.424 5.82782 502.706 4.77391 507.326 4.77391C510.627 4.77391 513.927 4.77391 517.888 4.77391C519.868 5.12522 521.849 6.17912 523.829 6.17912C532.41 5.4765 539.671 7.23304 547.592 7.93565C554.854 8.63827 564.095 7.23305 572.676 7.23305C574.656 7.23305 576.637 7.23305 579.277 7.23305C582.577 7.23305 585.218 8.28698 585.878 10.0435C586.538 11.4487 585.219 13.5566 589.839 14.9618C591.82 10.3948 601.061 10.0435 605.021 6.88172C607.001 6.88172 608.982 6.88172 610.962 6.88172C611.622 8.28695 612.943 8.28695 614.263 6.88172C617.563 6.88172 620.204 6.88172 623.504 6.88172C626.805 9.34087 630.766 10.3948 636.706 9.69219C653.869 8.28696 671.692 8.98956 688.855 8.63826C692.815 8.63826 697.436 8.9896 700.076 6.53045C706.017 6.17914 712.619 6.17914 718.56 6.53045C721.86 6.88175 739.683 7.93563 741.663 7.58432C744.964 6.88171 746.943 6.1791 747.603 4.07125C754.204 3.71995 760.805 5.47651 767.406 3.71998C770.047 3.01736 773.348 3.71996 775.988 5.12519C782.589 8.63826 793.811 6.53042 799.752 9.69219C805.693 13.2053 812.954 15.6644 820.215 18.4749C819.555 20.934 818.895 23.0419 818.235 25.501C808.994 24.0958 803.053 18.8262 791.831 18.4749C789.19 16.7183 784.569 16.367 780.609 15.3131C774.008 14.9618 767.407 14.6105 760.146 15.3131C764.766 19.5288 768.727 24.0958 780.609 21.2853C782.589 21.9879 783.909 22.3393 785.89 23.0419C785.89 25.1497 784.57 27.2576 788.53 28.3115C789.19 29.0141 789.19 29.3654 789.85 28.6627C789.85 28.6627 789.19 28.3115 788.53 28.3115C788.53 26.5549 788.53 24.4471 787.87 22.6905C788.53 22.3392 788.53 22.3393 789.19 22.3393C800.412 22.6906 807.013 27.6089 816.254 30.068C816.914 32.1759 816.915 34.635 815.594 36.7428C805.033 39.5533 797.112 43.4177 797.772 50.4438C796.452 50.7951 795.791 51.1464 797.111 51.1464C797.111 51.1464 797.772 50.7951 797.772 50.4438C802.393 51.1464 803.713 47.6333 807.673 47.9846C810.974 55.0108 810.974 55.0108 816.254 57.1186C816.254 58.8752 816.254 60.6317 816.254 62.0369C811.634 62.3882 807.013 61.3343 801.072 63.0909C802.393 65.55 802.392 68.0091 800.412 70.8196C799.091 72.9274 799.092 75.7379 802.392 77.1431C808.333 79.6023 809.654 81.3588 804.373 84.5206C803.053 85.2232 802.392 86.9797 803.052 87.6823C808.993 92.6006 805.693 98.2216 808.993 103.491C810.314 105.248 814.935 107.004 807.673 108.409C805.033 108.761 810.313 122.813 812.954 124.218C813.614 124.57 814.934 124.57 816.254 124.57C818.895 128.434 818.235 132.298 815.594 136.163C812.954 136.163 808.994 135.46 807.673 137.217C806.353 138.973 809.653 138.973 812.294 139.324C811.634 141.432 810.313 143.891 809.653 145.999C809.653 151.269 801.733 152.323 794.471 153.728C788.53 155.133 786.55 152.674 783.249 150.918C779.289 148.81 775.988 149.512 774.668 152.674C773.348 155.836 776.648 159.349 772.028 162.511C768.727 164.619 770.047 166.375 773.348 167.429C776.648 168.483 778.629 167.078 781.269 166.024C792.491 160.754 792.491 161.106 805.693 165.321C808.993 166.726 811.634 168.132 814.934 169.537C814.934 170.591 814.934 171.645 814.934 173.05C803.053 172.699 803.713 178.671 798.432 181.481C797.772 181.833 798.432 182.887 799.092 182.887C805.693 182.887 804.373 188.507 811.634 188.156C812.954 202.208 808.333 215.909 805.693 229.962C805.033 233.123 805.693 235.934 805.033 239.096C803.053 260.877 800.412 282.658 798.432 304.439C790.511 304.79 792.49 310.06 787.21 311.816C783.249 312.87 783.249 321.302 786.55 322.707C789.85 323.761 789.19 324.463 789.19 326.22C787.87 332.895 775.328 339.218 785.23 346.947C786.55 348.001 783.91 350.109 781.269 351.163C770.708 355.378 772.028 361.351 775.328 366.971C777.969 370.485 777.308 374.349 776.648 377.862C775.328 384.537 775.328 390.86 782.589 397.184C784.57 398.94 787.87 401.751 780.609 403.156C785.229 406.669 778.629 409.128 775.988 411.587C772.688 415.803 774.008 419.668 777.969 422.829C790.511 432.315 791.17 431.963 787.21 441.449C786.549 442.502 786.55 443.556 786.55 444.962C771.367 446.367 757.505 449.88 742.323 449.88C742.983 446.016 742.323 442.854 732.422 443.556C733.082 442.151 734.402 440.395 735.062 438.989C735.722 437.936 735.722 436.53 733.741 436.179C731.101 435.476 729.121 436.179 726.48 436.882C723.84 437.936 723.18 438.989 725.82 440.043C727.801 441.097 729.121 442.151 729.121 443.556C721.86 443.556 714.598 443.205 707.337 443.556C698.096 443.908 697.436 444.962 700.076 450.231C701.396 452.339 697.436 452.339 696.776 453.393C693.475 453.393 690.175 453.744 686.874 453.744C682.914 451.988 680.933 449.177 674.992 448.123C684.894 447.421 692.155 445.313 695.456 439.692C673.012 443.556 665.751 441.8 654.529 430.558C653.209 429.153 649.908 428.099 648.588 429.153C642.647 433.017 632.746 432.666 626.145 435.828C624.165 436.53 622.844 437.584 624.164 438.638C625.485 440.043 627.465 439.692 629.445 438.989C635.386 436.53 642.647 436.179 649.909 435.476C645.288 439.692 645.288 439.692 640.007 439.341C630.766 438.638 643.307 445.313 634.066 444.962C628.785 444.61 623.504 444.259 618.883 443.908C613.602 443.556 618.883 440.043 612.282 439.692C611.622 442.502 602.381 444.259 608.982 448.475C609.642 449.177 608.322 450.231 607.002 450.231C605.022 450.231 601.721 450.582 601.061 449.88C599.08 448.475 598.421 446.016 596.44 444.61C591.159 441.097 592.48 439.692 600.401 440.043C608.322 440.395 607.662 437.936 607.662 435.125C610.302 435.476 612.282 436.882 614.923 435.125C615.583 434.774 614.923 434.071 614.263 433.72C611.622 433.017 608.982 433.72 607.662 435.125C593.8 433.369 569.376 435.476 568.056 438.638C568.716 441.097 574.657 439.341 576.637 441.8C570.036 442.854 569.376 447.069 564.755 449.177C562.115 447.069 564.095 443.556 556.834 443.556C554.854 443.556 552.873 443.556 554.193 441.8C558.154 436.53 550.233 435.828 545.612 437.935C537.03 441.8 522.508 438.287 516.567 444.61C515.907 444.962 513.267 445.313 511.947 444.962C500.725 441.449 488.183 448.123 476.301 443.908C461.779 447.069 445.936 443.556 430.754 445.664C420.852 447.07 409.631 446.718 400.389 449.88C395.768 451.285 392.468 450.934 387.847 451.285C376.625 451.988 363.423 450.934 358.142 459.014C356.162 462.176 349.561 461.824 346.921 458.663C345.601 457.257 344.94 456.203 341.64 456.203C338.339 456.203 335.699 456.906 335.039 459.014C340.98 459.014 340.98 460.419 340.98 461.473ZM94.1008 352.217C95.421 352.919 96.0811 353.27 97.4013 353.973C98.7215 355.73 100.042 357.837 100.042 359.594C100.702 363.107 99.3816 367.674 94.1008 368.025C84.8593 369.079 88.8206 371.89 88.1605 375.403C93.4413 371.538 98.7217 375.403 103.342 373.646C102.682 371.538 97.402 369.782 101.363 366.971C105.983 368.377 109.284 370.836 114.565 371.187C116.545 369.431 115.224 367.323 115.885 365.215C116.545 363.81 117.205 363.107 119.845 363.81C124.466 364.864 125.786 364.161 125.126 361.702C124.466 359.243 121.165 358.891 117.204 358.891C111.924 358.891 114.564 363.458 108.624 362.756C105.323 359.945 104.003 357.486 108.624 353.973C113.244 350.811 112.584 352.919 114.565 354.324C115.885 353.622 117.865 352.919 119.185 352.217C118.525 349.757 119.845 347.298 117.204 344.839C111.924 344.839 108.623 348.352 103.342 347.298C102.682 346.596 104.663 344.839 101.363 345.542C100.702 345.542 102.022 346.947 103.342 347.298C103.342 350.109 102.682 352.568 97.4013 353.973C96.0811 353.27 95.421 352.919 94.1008 352.217C93.4407 350.811 94.101 349.406 90.1403 349.757C89.4802 349.757 89.4804 350.109 89.4804 350.109C88.8203 352.217 91.4604 352.217 94.1008 352.217ZM217.541 326.922C216.881 326.571 219.521 325.166 216.22 325.517C214.24 325.869 212.26 326.22 212.26 327.625C212.26 328.328 212.92 329.733 213.58 329.733C217.541 330.084 217.541 328.679 217.541 325.517L218.861 325.166L218.201 324.815C218.201 324.463 217.541 325.166 217.541 326.922ZM97.4013 140.027C97.4013 141.432 98.0621 142.838 101.363 142.486C102.023 142.486 102.682 142.135 102.682 141.784C102.682 140.027 99.3816 140.027 97.4013 140.027C98.7215 138.271 100.702 136.865 100.702 135.109C105.983 135.109 111.264 140.378 116.544 134.406C117.865 133.001 118.525 138.973 125.786 137.217C127.106 134.758 123.806 131.596 129.087 129.488C124.466 128.083 120.505 128.434 117.204 128.434C117.204 126.326 115.885 124.218 111.924 122.813C109.944 125.975 111.263 127.731 117.204 128.083C115.224 129.488 112.584 129.839 109.284 129.839C102.022 129.488 100.702 131.947 101.363 134.758C94.7616 134.758 87.5001 134.055 79.5788 135.811C84.1996 140.027 90.8003 140.027 97.4013 140.027ZM781.269 335.354C781.929 336.056 781.929 336.408 782.589 335.705C782.589 335.705 781.929 335.705 781.269 335.354C781.269 331.138 772.688 328.679 772.688 324.463C772.688 323.761 768.727 323.761 767.406 324.815C760.805 329.03 763.446 334.3 773.348 335.354C775.988 335.705 778.629 335.354 781.269 335.354ZM749.584 428.099C751.564 425.64 750.904 423.532 747.603 421.424C741.002 423.181 735.062 424.937 729.121 426.694C731.101 429.504 735.062 429.153 738.363 429.504C742.983 429.855 746.944 430.207 749.584 428.099ZM106.643 310.06C111.264 310.411 111.264 314.275 115.885 313.573C119.845 313.221 122.486 311.114 124.466 309.006C127.107 306.547 124.466 304.79 121.826 303.034C119.185 301.277 116.544 302.331 113.244 302.682C105.983 303.736 106.643 307.249 106.643 310.06C105.323 310.411 101.362 309.357 103.342 311.114C104.003 311.816 105.983 311.114 106.643 310.06ZM245.925 252.797C251.866 252.797 253.846 251.04 255.826 248.23C258.467 244.365 256.487 240.15 259.787 236.988C265.728 231.718 261.107 226.8 261.107 221.53C261.107 219.071 257.147 217.666 253.186 215.909C247.245 213.45 244.605 215.207 241.964 217.315C238.664 219.774 243.284 221.179 245.925 221.53C255.826 222.233 251.206 228.205 257.147 230.313C257.807 230.664 256.486 232.07 255.166 232.07C247.905 231.718 249.885 234.177 249.225 236.637C248.565 239.447 248.565 244.365 238.004 240.852C235.363 239.798 232.063 241.906 230.083 243.663C250.546 245.419 250.545 245.419 245.925 252.797C235.363 251.391 226.122 254.905 216.22 255.607C213.58 255.958 212.92 258.769 208.959 255.256C206.979 253.499 203.678 254.553 201.698 255.958C200.378 257.364 199.057 258.418 203.018 259.472C209.619 261.228 216.881 261.931 223.482 263.336C226.782 264.039 230.082 260.877 232.723 259.472C236.023 257.715 236.683 258.418 239.324 260.174C241.304 261.579 246.585 261.931 239.324 263.336C238.664 263.336 238.004 264.39 238.664 264.741C239.324 265.795 240.644 266.146 241.964 265.795C247.905 265.092 250.546 263.336 248.565 260.525C246.585 258.066 243.285 256.31 249.886 255.256C248.566 254.553 247.245 253.851 245.925 252.797ZM252.526 57.47C241.304 58.5239 230.082 56.416 218.201 55.7134C228.762 55.0108 224.142 65.9013 238.004 62.0369C236.684 65.55 244.604 65.9013 245.925 68.3605C247.905 75.0353 255.166 72.9275 262.427 71.1709C262.427 72.9275 260.447 74.3327 257.147 74.684C253.846 75.0353 252.526 76.4405 253.846 77.8457C255.167 79.6023 257.807 78.8997 260.447 78.1971C262.428 77.4945 265.068 76.7918 267.048 76.0892C269.029 75.3866 271.669 74.3327 270.349 72.5761C269.029 70.4683 265.068 71.1709 262.427 71.1709C266.388 67.6579 271.669 66.9552 278.93 70.117C274.969 64.8474 274.97 64.8474 276.95 57.1186C274.97 57.8213 273.649 58.5239 271.669 59.2265C269.689 59.9291 267.708 60.983 265.068 61.6856C255.166 64.8474 253.846 64.4961 252.526 57.47C253.846 57.1187 254.507 56.7673 253.186 56.7673C253.186 56.7673 252.526 57.1187 252.526 57.47ZM444.616 405.966C459.139 405.966 459.138 405.967 459.138 398.94C459.138 398.238 459.798 397.184 459.798 396.481C462.439 392.968 457.818 392.617 453.197 392.968C446.596 393.32 440.656 395.427 434.715 395.076C417.552 394.022 407.65 399.292 396.429 404.561C392.468 406.318 395.108 407.372 397.089 408.426C399.069 409.48 401.709 409.48 404.35 409.48C415.571 409.831 426.134 405.967 438.015 408.777C438.015 408.777 439.995 407.372 440.655 407.02C441.315 406.669 443.296 406.318 444.616 405.966ZM233.383 303.385C239.324 299.872 242.625 295.656 236.684 291.089C232.723 288.279 234.703 286.873 240.644 285.82C245.265 285.117 245.925 282.658 245.265 280.199C244.605 277.739 240.644 275.632 236.684 276.686C229.423 278.793 230.743 273.173 224.802 273.875C224.142 276.686 216.881 279.496 223.482 282.306C226.782 284.063 229.423 284.414 224.142 286.171C220.841 287.225 220.841 288.981 220.181 290.387C217.541 295.656 216.22 295.656 208.299 292.143C206.979 291.44 205.658 290.387 202.358 290.738C201.698 291.44 199.717 292.494 199.717 293.197C197.737 298.818 197.738 298.818 187.836 298.115C185.196 297.764 181.235 297.413 180.575 299.872C187.176 301.628 194.437 303.034 201.038 304.79C200.378 304.79 199.717 304.79 199.717 304.79C194.437 305.141 187.176 303.385 183.876 306.547C179.255 310.411 187.836 312.519 191.796 314.627C194.437 316.032 195.757 317.788 191.796 318.842C184.535 320.599 179.255 324.815 167.373 323.761C181.895 329.03 182.555 331.489 170.673 339.218C175.954 340.623 181.895 340.623 186.515 342.38C197.077 346.244 198.397 348.703 193.116 355.378C190.476 358.54 188.496 361.351 184.535 364.161C182.555 365.566 181.895 366.971 184.535 367.674C191.137 369.782 191.136 372.944 191.796 376.457C191.796 377.862 193.776 379.267 196.417 378.916C199.717 378.916 201.038 377.159 200.378 375.754C195.757 368.377 200.377 361.702 203.018 354.676C205.658 349.055 210.279 342.029 195.757 337.813C203.678 333.246 204.339 333.246 204.339 325.869C204.339 323.409 208.959 322.004 209.619 319.896C210.939 319.545 211.6 319.194 210.28 319.194C210.28 319.194 209.619 319.545 209.619 319.896C201.698 319.194 201.038 316.032 200.378 312.87C199.718 310.06 200.378 307.601 200.378 304.79C204.999 304.439 208.299 303.736 209.619 301.277C210.939 297.764 216.88 297.413 221.501 297.764C226.782 298.115 225.462 301.277 225.462 303.385C222.161 304.79 220.181 306.898 225.462 307.601C228.762 308.303 234.043 307.249 236.023 305.493C239.984 303.736 235.364 303.736 233.383 303.385ZM122.486 209.235C121.825 208.532 121.166 208.181 121.166 208.883C121.166 208.883 122.486 208.883 122.486 209.235C122.486 211.342 123.806 213.45 128.427 213.45C133.047 213.45 131.727 211.342 132.387 209.586C132.387 208.883 132.387 207.829 133.047 207.127C138.988 203.262 131.727 202.208 129.087 202.911C113.904 205.722 110.604 198.695 103.342 194.831C100.042 193.074 100.042 190.967 102.023 188.507C103.343 186.751 106.643 185.346 104.663 182.535C99.3823 183.94 92.7807 181.13 90.1403 182.184C86.1797 184.292 84.1992 188.156 84.1992 191.318C84.1992 192.021 84.1992 192.372 84.1992 193.074C82.879 197.993 76.2782 199.398 70.3372 195.885C67.6968 194.48 65.7165 193.074 63.7362 194.48C61.0958 196.236 57.1355 199.749 62.4163 200.803C69.0173 202.208 73.6379 207.478 82.8794 204.316C84.1996 203.965 86.1797 202.911 86.8398 204.316C89.4802 208.883 94.7612 206.775 99.382 206.073C102.022 205.722 104.663 206.073 105.983 207.478C103.343 207.829 101.362 208.181 98.722 208.532C92.7811 209.586 94.7614 211.694 95.4215 213.802C95.4215 215.207 97.4016 215.558 99.382 215.558C103.343 215.207 105.983 213.802 105.983 211.342C105.983 209.937 105.983 208.532 105.983 207.127C111.264 207.127 116.545 205.019 122.486 205.37C124.466 205.722 127.106 205.722 125.126 207.127C125.126 208.181 123.806 208.532 122.486 209.235ZM81.5595 239.447C80.8994 236.637 78.2586 235.934 72.9778 236.285C71.6576 236.637 69.6771 236.988 70.3372 238.042C72.3175 240.15 76.2783 239.096 79.5788 239.447C80.2389 239.447 80.8994 239.447 81.5595 239.447C81.5595 241.555 82.2191 243.311 83.5393 245.068C84.8595 246.473 84.8598 247.878 82.2194 248.581C80.2391 249.284 78.2585 248.23 76.9383 247.527C68.3569 244.717 68.3572 244.717 59.1158 245.068C61.7562 245.771 64.3965 246.122 66.3768 246.824C67.697 247.176 71.6579 248.23 68.3574 248.581C60.4362 249.635 69.017 253.499 63.7362 254.553C59.1155 254.202 59.7754 250.337 54.4946 249.986C53.1744 252.094 47.894 254.904 52.5148 256.661C61.0961 259.471 61.7562 264.39 65.7168 268.254C70.3376 266.849 72.318 264.038 78.259 264.038C88.8206 263.687 79.5787 260.525 80.2388 258.769C82.8792 258.769 85.5195 259.12 87.4998 258.769C92.1205 258.066 98.0617 256.31 99.382 261.228C99.382 262.282 101.362 262.282 102.682 261.931C107.963 261.228 113.244 262.282 117.865 262.985C125.126 264.39 131.067 261.931 131.727 259.472C134.368 252.797 139.648 245.771 130.407 239.447C128.426 238.042 125.126 237.339 127.106 235.231C129.086 233.123 133.707 233.826 137.008 233.826C142.948 233.826 146.909 234.88 148.89 237.69C146.249 239.096 141.628 238.744 139.648 240.852C138.988 241.906 138.988 242.96 140.969 244.014C142.289 244.717 143.609 244.717 145.589 244.717C158.131 242.96 163.412 239.447 162.092 232.421C162.092 231.016 161.432 229.61 162.752 228.205C164.732 226.097 162.092 221.882 170.673 222.233C177.935 222.233 172.653 226.097 175.294 227.503C175.954 227.854 175.954 228.556 176.614 228.908C183.215 235.934 183.215 235.934 171.333 240.501C179.255 245.068 187.176 249.284 199.057 243.311C199.718 242.96 202.358 243.311 203.679 243.663C209.62 244.014 212.26 242.609 210.28 239.798C208.959 238.042 214.24 236.637 209.619 235.231C207.639 235.583 204.999 235.231 204.339 235.934C201.038 239.447 200.377 238.042 196.417 235.934C189.816 232.07 189.156 228.205 189.156 223.638C190.476 223.287 191.136 222.936 189.816 222.936C189.816 222.936 189.156 223.287 189.156 223.638C180.575 222.584 180.575 222.584 185.195 220.125C186.516 219.422 187.176 218.369 188.496 217.666C194.437 212.748 187.176 208.181 187.836 203.262C187.836 201.506 183.875 201.155 181.895 202.208C175.294 205.37 169.353 205.019 162.752 202.208C160.771 201.506 157.471 201.857 155.491 202.911C155.491 203.262 155.491 203.614 155.491 203.614C156.151 203.965 156.811 204.668 157.471 204.668C164.072 207.127 166.713 213.45 178.594 210.289C179.254 209.937 181.895 210.991 181.235 212.045C181.235 212.748 179.914 213.45 179.254 214.153C171.993 217.666 162.752 216.612 154.171 216.963C155.491 218.369 156.811 219.774 156.151 220.476C154.17 222.936 148.889 224.692 153.51 227.854C154.83 228.908 151.53 229.962 148.89 230.664C145.589 231.367 144.269 230.664 142.289 229.259C140.968 227.854 142.949 225.746 138.988 224.692C133.047 228.556 124.466 228.556 115.885 228.205C115.224 227.854 114.565 227.854 114.565 227.503C115.225 227.854 115.224 228.205 115.885 228.205C119.185 235.231 119.185 234.88 106.643 238.744C103.342 239.798 100.042 241.555 102.682 244.014C103.343 244.717 107.964 244.365 104.663 246.122C102.683 247.176 100.042 246.824 98.0621 245.419C94.1014 242.96 94.1013 240.15 95.4215 236.988C89.4806 238.744 85.5201 239.798 81.5595 239.447ZM765.427 168.483C770.047 162.511 770.047 162.511 759.486 161.808C749.584 159.7 744.303 155.485 743.643 149.864C743.643 145.999 740.343 144.243 731.762 144.243C731.101 148.107 727.801 151.269 725.161 154.782C724.5 155.836 721.2 156.539 723.18 157.592C730.441 161.106 723.84 164.97 724.5 168.834C725.16 174.104 724.5 179.725 707.337 180.427C717.899 183.94 723.84 187.454 721.199 192.723C731.761 196.588 723.18 201.155 723.18 205.37C723.18 208.532 721.86 209.937 715.259 209.586C713.279 209.586 711.298 209.586 708.658 209.937C710.638 212.045 711.298 213.802 709.318 216.261C706.017 220.828 709.978 226.449 715.919 227.503C727.141 229.259 719.219 232.772 720.539 235.231C721.86 237.339 715.259 235.934 711.958 236.637C709.978 236.988 707.998 236.637 706.677 237.69C704.697 240.852 713.279 240.501 711.958 243.311C710.638 245.771 703.377 244.014 703.377 248.23C708.658 246.824 714.599 246.473 715.919 251.391C717.899 248.23 719.879 246.122 721.199 243.663C725.16 246.824 723.18 251.04 730.441 251.743C740.342 252.797 731.762 255.256 731.762 257.364C737.702 257.715 742.983 259.823 749.584 261.931C748.264 256.661 756.845 252.797 749.584 248.23C750.904 239.447 744.963 230.313 756.845 222.584C757.505 222.233 756.845 221.53 756.185 221.179C753.545 219.422 747.604 221.179 744.964 218.017C752.225 215.558 756.185 211.694 754.865 207.127C754.205 205.019 754.865 203.614 758.826 202.56C768.067 199.749 767.407 199.749 762.126 194.48C760.146 192.021 755.525 190.967 754.204 188.507C753.544 187.102 752.885 185.697 756.185 184.994C771.367 180.779 770.047 174.806 765.427 168.483ZM619.544 356.432C620.204 362.053 605.021 364.161 608.982 370.133C610.962 369.782 612.282 369.782 612.282 369.431C612.942 366.269 616.243 364.864 622.844 365.566C633.406 366.971 619.544 368.728 623.504 370.133C624.164 370.485 624.164 371.187 624.824 371.538C626.805 372.944 627.465 373.295 623.504 374.349C613.603 377.159 611.622 386.645 618.883 390.509C624.824 393.671 631.425 392.617 634.726 388.401C639.347 382.078 636.046 375.403 638.026 368.728C638.686 367.674 636.706 365.566 634.726 365.215C627.465 363.458 626.145 359.243 619.544 356.432ZM429.434 375.754C429.434 375.052 429.434 374.7 429.434 374.349C425.473 368.728 427.453 362.756 429.434 357.135C431.414 351.514 426.133 345.542 434.054 340.623C436.034 339.57 435.374 337.813 434.054 336.759C432.734 335.354 433.395 332.192 428.114 332.895C423.493 333.597 420.853 334.651 422.173 337.813C424.813 343.434 421.513 349.055 421.513 354.324C421.513 363.107 411.611 371.538 420.192 380.672C421.512 382.078 420.853 384.537 418.212 385.942C414.252 387.699 415.571 389.806 420.192 390.509C424.813 391.212 426.793 389.104 427.453 386.996C427.453 383.132 426.133 378.916 429.434 375.754ZM690.175 133.001C690.175 130.542 688.855 128.434 686.214 126.677C683.574 124.57 680.273 124.57 676.313 125.272C670.372 126.677 664.43 136.163 667.731 138.973C671.032 141.784 672.352 143.891 671.691 147.405C671.691 150.918 678.293 153.728 682.914 153.025C688.195 152.323 692.155 147.756 687.534 144.594C683.573 141.432 682.253 139.676 687.534 136.865C689.514 136.163 689.515 134.406 690.175 133.001ZM549.572 156.539C550.232 153.025 549.573 150.566 544.292 149.512C542.312 149.161 539.011 148.81 539.011 149.864C537.03 156.539 520.528 161.808 533.07 169.537C535.05 170.591 534.39 172.347 533.07 173.401C531.749 175.158 530.429 176.914 533.07 177.968C537.03 180.076 539.671 181.833 535.71 184.643C534.39 185.697 537.03 187.454 539.671 187.454C543.631 187.805 543.632 186.048 543.632 184.643C543.632 181.833 543.632 179.022 542.311 176.212C539.671 171.996 540.331 168.132 544.952 164.267C548.252 162.511 548.912 158.646 549.572 156.539ZM65.0569 45.1742C70.3377 44.8229 75.6185 43.0663 81.5595 43.769C84.86 38.4994 92.7811 41.6611 98.722 40.6072C102.023 39.9046 103.343 39.202 101.363 37.4454C96.7419 33.9324 74.9578 29.7167 67.6967 30.7706C61.0956 31.8245 58.4558 34.635 61.7564 38.4994C63.0766 40.2559 61.0963 42.7151 65.0569 45.1742ZM603.701 345.542C598.42 347.65 595.12 348.703 591.159 349.757C589.179 350.109 586.539 350.46 587.199 348.703C587.859 345.19 584.558 345.893 580.598 346.596C574.657 348.001 570.036 350.109 564.095 351.163C557.494 352.568 560.134 357.135 556.173 359.594C554.193 360.648 558.814 363.81 563.435 364.864C568.056 362.756 564.095 358.189 568.715 357.837C577.957 357.486 583.238 353.27 592.479 353.27C601.721 353.973 603.701 351.163 603.701 345.542ZM117.865 274.578C116.545 278.793 105.323 279.145 109.284 284.063C111.924 287.576 118.525 290.738 111.924 295.305C110.604 296.359 113.244 297.764 115.885 298.467C119.845 299.521 119.845 297.764 121.166 296.359C127.767 290.035 133.047 283.712 121.826 277.037C120.505 277.037 120.506 276.686 117.865 274.578ZM146.249 91.898C161.432 77.8457 161.431 77.8458 153.51 71.1709C147.569 73.6301 148.89 81.3588 135.688 78.1971C133.047 77.4945 132.387 80.6562 134.368 81.0075C142.289 83.4667 142.289 88.0336 146.249 91.898ZM181.895 438.638C178.594 431.963 178.595 431.612 173.974 431.612C162.092 431.261 150.21 431.612 140.308 435.828C148.889 435.828 158.131 440.395 166.052 437.233C173.313 434.422 177.274 435.476 181.895 438.638ZM557.494 368.728C556.834 372.592 551.553 376.105 553.534 379.97C555.514 383.483 555.513 386.293 552.213 389.455C550.893 390.86 550.893 392.266 554.193 392.617C557.494 392.968 559.474 391.914 559.474 390.158C559.474 384.185 562.775 378.213 564.755 372.241C565.415 369.431 562.115 368.728 557.494 368.728ZM122.486 189.913C125.786 191.669 120.506 195.534 127.767 196.588C131.727 196.939 141.629 191.669 140.969 189.913C140.969 189.21 129.087 185.346 127.767 185.346C123.146 185.697 122.486 187.454 122.486 189.913ZM236.023 193.426C232.723 192.021 230.083 192.021 227.442 192.021C224.802 192.021 222.821 191.318 220.841 190.264C219.521 189.561 218.201 189.913 216.881 190.615C214.24 192.021 213.58 200.101 216.22 200.803C222.821 202.56 223.482 198.695 226.782 197.29C229.423 196.236 232.723 194.831 236.023 193.426ZM120.505 376.808C109.943 378.565 115.885 384.537 109.284 386.996C107.303 387.699 110.604 388.753 111.924 389.455C113.244 390.158 116.544 391.212 117.204 390.509C119.185 388.05 127.106 385.942 122.486 383.132C118.525 380.672 123.805 378.565 120.505 376.808ZM600.401 52.2004C606.342 52.5517 610.962 50.4438 612.282 47.9846C613.602 45.1742 607.662 44.4716 603.701 44.4716C597.76 44.1203 596.44 46.9307 595.12 49.3899C594.46 51.1464 597.1 52.2004 600.401 52.2004ZM209.619 201.155C206.318 202.208 204.338 202.911 202.358 203.614C197.737 205.019 200.378 207.127 201.698 208.532C203.678 210.64 207.639 212.045 211.6 211.342C215.56 210.64 214.24 208.181 213.58 206.424C212.92 205.019 211.599 203.614 209.619 201.155ZM141.629 366.62C140.969 366.269 140.308 364.864 139.648 364.864C135.027 364.512 134.367 366.971 133.707 368.377C133.047 369.431 134.367 370.133 136.348 369.782C139.648 370.133 140.309 368.728 141.629 366.62ZM228.762 312.168C228.102 310.762 226.782 310.411 225.462 310.411C223.481 310.411 221.501 311.114 222.161 312.519C222.821 312.87 224.801 313.221 226.122 313.221C228.102 313.221 228.762 312.519 228.762 312.168ZM774.008 339.218C774.008 339.218 772.688 338.164 771.368 338.164C768.067 338.164 769.387 339.57 768.727 340.623C768.727 341.326 768.727 342.38 770.707 342.38C773.347 342.38 774.668 341.326 774.008 339.218ZM92.7809 436.53C92.7809 435.476 91.4605 435.125 90.1403 435.125C88.8201 435.125 86.84 435.476 86.1799 435.828C85.5198 437.233 87.5001 437.584 89.4804 437.584C90.8006 437.935 92.1208 437.584 92.7809 436.53ZM254.506 266.498C252.526 266.849 251.206 267.2 251.866 268.254C252.526 268.957 254.506 269.308 255.826 269.308C257.807 269.308 258.467 268.605 257.807 267.552C256.487 266.849 255.166 266.849 254.506 266.498ZM245.265 79.6023C245.925 78.5484 245.925 77.8457 245.925 77.1431C245.925 76.7918 245.265 75.7379 244.605 75.7379C241.964 76.0892 242.624 77.1431 242.624 78.1971C243.284 78.5484 243.945 79.251 245.265 79.6023ZM96.0814 128.083C95.4213 127.731 95.4216 127.029 94.7615 127.029C94.1014 127.029 92.7811 127.38 92.121 127.731C91.4609 128.434 92.7806 129.137 94.1008 129.137C94.7609 129.137 95.4213 128.434 96.0814 128.083ZM197.078 384.186C197.738 383.834 198.397 383.834 199.717 383.483C199.057 383.132 198.398 382.78 197.738 382.78C197.077 382.78 196.417 383.132 195.097 383.483C195.757 383.483 196.418 383.834 197.078 384.186ZM104.663 267.552C104.663 267.903 104.002 267.903 104.002 268.254C104.002 268.254 104.663 268.254 105.323 268.606C105.323 268.254 105.983 268.254 105.983 267.903C105.983 267.552 105.323 267.552 104.663 267.552ZM283.551 454.798C283.551 454.447 282.891 454.447 282.891 454.096L282.23 454.447C282.23 455.15 282.231 455.501 283.551 455.149C283.551 455.501 283.551 455.15 283.551 454.798ZM801.732 56.416C802.392 56.416 802.392 56.416 802.392 56.0647C802.392 55.7134 802.392 55.7134 802.392 55.3621C801.732 55.0108 801.072 55.0108 801.072 55.7134C801.072 56.0647 801.732 56.0647 801.732 56.416Z" fill="white"/>
<path d="M340.98 461.473C340.98 460.419 340.98 459.366 341.64 457.96C342.3 455.852 344.28 455.15 348.241 455.15C350.881 455.15 352.202 456.204 353.522 457.609C356.823 461.122 362.763 461.122 364.744 457.96C370.024 449.88 383.226 450.934 394.448 450.231C399.069 449.88 402.37 450.232 406.99 448.826C416.232 446.016 426.793 446.016 437.355 444.611C452.537 442.503 467.72 446.016 482.902 442.854C494.124 447.07 506.666 440.395 518.548 443.908C519.868 444.259 522.508 443.908 523.168 443.557C529.109 437.233 543.632 440.395 552.213 436.882C556.834 435.125 564.095 435.828 560.795 440.746C559.475 442.503 561.455 442.503 563.435 442.503C570.697 442.503 568.716 446.016 571.356 448.124C575.977 445.664 576.637 441.8 583.239 440.746C581.918 438.287 575.977 440.044 574.657 437.584C575.977 434.423 600.401 432.315 614.263 434.071C614.263 436.53 614.923 439.341 607.002 438.99C599.081 438.638 597.761 440.044 603.042 443.557C605.022 444.962 605.682 447.07 607.662 448.826C608.322 449.529 611.623 449.178 613.603 449.178C615.583 449.178 616.903 448.124 615.583 447.421C608.982 443.205 618.223 441.449 618.883 438.638C624.824 438.99 620.204 442.503 625.484 442.854C630.765 443.205 636.046 443.557 640.667 443.908C649.909 444.259 637.367 437.936 646.608 438.287C651.889 438.638 651.889 438.99 656.51 434.423C648.589 435.125 641.988 435.477 636.047 437.936C634.066 438.638 632.086 438.99 630.766 437.584C629.445 436.53 630.766 435.477 632.746 434.774C639.347 431.612 649.248 432.315 655.189 428.099C656.509 427.045 659.81 427.748 661.13 429.504C672.352 440.746 679.614 442.503 702.057 438.638C698.097 443.908 691.495 446.016 681.593 447.07C687.534 448.124 689.515 450.934 693.475 452.691C681.594 455.15 668.392 454.799 655.85 454.096C629.446 453.042 603.041 452.691 577.297 453.393C537.691 454.798 497.424 453.042 457.158 455.15C427.453 456.555 397.749 458.663 368.044 460.419C358.803 461.825 350.221 462.527 340.98 461.473Z" fill="white"/>
<path d="M791.171 444.962C791.171 443.908 791.17 442.854 791.831 441.449C795.791 432.315 795.791 432.315 782.589 422.83C778.628 420.019 776.648 415.804 780.608 411.588C782.589 409.129 789.19 406.67 785.229 403.157C792.491 401.751 789.19 398.941 787.209 397.184C780.608 391.212 779.949 384.889 781.269 377.862C781.929 374.349 781.929 370.836 779.948 366.972C776.648 361.351 775.328 355.73 785.889 351.163C788.53 350.109 791.17 348.001 789.85 346.947C779.948 339.219 792.49 333.246 793.81 326.22C794.47 324.112 794.471 323.761 791.171 322.707C787.87 321.302 787.87 313.222 791.831 311.817C797.771 310.06 795.131 304.791 803.052 304.439C801.072 316.735 799.091 329.382 797.111 341.678C796.451 341.678 795.791 342.029 795.791 342.029C795.791 342.38 796.451 342.732 797.111 343.083C797.111 357.838 797.111 372.593 796.451 387.348C795.791 398.59 797.111 409.48 799.751 420.722C801.072 427.045 800.411 433.72 800.411 440.044C800.411 443.908 797.112 445.313 791.171 444.962Z" fill="white"/>
<path d="M820.876 124.921C819.556 124.921 818.235 124.921 817.575 124.57C814.935 123.165 809.654 109.112 812.294 108.761C819.555 107.356 814.934 105.599 813.614 103.843C809.653 98.9246 813.615 92.9524 807.674 88.0341C807.014 87.3315 807.673 85.5749 808.994 84.8723C814.274 81.7105 812.954 79.6027 807.013 77.4949C803.052 76.0897 803.713 73.2792 805.033 71.1713C806.353 68.3609 807.013 65.9018 805.693 63.4426C810.974 61.6861 816.255 62.74 820.876 62.3887C821.536 76.7923 822.856 91.1959 822.856 105.599C822.195 112.274 823.516 118.598 820.876 124.921Z" fill="white"/>
<path d="M819.555 170.24C816.255 168.834 813.614 167.078 810.314 166.024C797.111 161.457 797.112 161.457 785.89 166.727C783.25 167.781 781.27 169.186 777.969 168.132C774.669 167.078 773.348 165.321 776.648 163.214C781.269 160.403 777.969 156.89 779.289 153.377C780.609 150.215 783.91 149.513 787.871 151.62C791.171 153.377 793.151 155.836 799.092 154.431C805.693 152.674 814.275 151.972 814.275 146.702C816.255 146.702 818.235 146.702 820.215 146.702C820.215 154.431 824.836 162.511 819.555 170.24Z" fill="white"/>
<path d="M490.163 4.07145C483.562 6.5306 475.641 4.77409 469.04 5.47671C463.76 5.82802 457.159 4.77409 452.538 7.23324C451.218 7.93586 449.237 7.93583 446.597 7.58452C431.414 4.77406 416.232 1.26103 401.049 6.53064C400.389 6.53064 399.73 6.88192 399.73 6.88192C385.867 -0.495533 370.025 8.63845 355.503 5.12538C358.803 2.66623 364.084 3.01755 368.705 2.66624C391.809 0.558398 414.912 -1.54946 438.676 1.61231C450.558 3.01754 462.44 3.36887 474.322 1.96364C480.263 0.909716 484.883 2.66622 490.163 4.07145Z" fill="white"/>
<path d="M201.038 11.0977C190.476 12.1516 180.574 11.449 170.013 11.0977C148.889 10.3951 127.766 8.28727 106.643 7.58465C91.4606 6.88204 77.5988 11.0977 62.4164 8.63859C57.7957 7.93597 51.8543 8.2873 47.8936 10.7464C45.9133 12.1517 41.9533 11.8004 38.6528 11.4491C41.2932 6.88206 48.5544 6.53075 55.1554 6.17945C76.9388 4.42291 98.7216 4.42289 120.505 5.82812C138.328 6.88204 155.491 8.6386 173.313 7.93598C182.555 7.58467 191.797 10.0438 201.038 11.0977Z" fill="white"/>
<path d="M18.1888 133.352C20.8292 133.001 23.4703 133.352 25.4506 132.65C39.9729 127.029 39.9729 127.029 48.5542 135.46C37.9926 138.271 30.0708 142.838 24.1299 148.458C22.8097 149.864 20.1696 151.269 22.81 152.674C31.3914 157.241 24.7899 158.646 18.1888 160.403C14.2282 155.836 15.5489 150.566 16.209 145.648C16.8691 141.432 17.5287 137.217 18.1888 133.352Z" fill="white"/>
<path d="M74.9585 451.286C83.5398 446.719 93.4414 445.665 104.663 447.07C113.905 448.475 123.806 449.529 133.047 448.475C142.949 447.421 144.929 449.88 144.929 454.096C121.166 455.15 98.0621 454.447 74.9585 451.286Z" fill="white"/>
<path d="M27.4302 35.3379C30.7307 36.3918 30.7307 38.1484 30.7307 39.9049C30.7307 43.0667 33.3713 45.1745 39.9723 45.5258C46.5733 45.8771 46.5737 47.9849 45.2535 50.7954C42.613 55.7137 43.9331 61.6859 32.7113 64.1451C30.0709 62.7398 31.3906 60.632 31.3906 58.8755C30.7305 55.0111 26.1103 57.8216 22.8098 57.4702C19.5093 49.7415 22.1493 42.7153 27.4302 35.3379Z" fill="white"/>
<path d="M24.1301 441.449C24.1301 442.854 24.1301 444.259 24.1301 446.016C16.869 447.421 14.889 444.259 12.9087 441.8C9.60818 437.936 8.28814 433.72 8.94824 429.504C13.569 429.504 18.1895 429.504 22.8103 429.504C28.7512 429.504 32.7118 428.099 32.7118 424.586C34.032 423.884 35.3521 423.181 36.6723 422.83C37.3324 424.937 35.3521 427.748 39.9728 429.504C39.9728 431.964 39.9728 434.071 39.9728 436.531C37.9925 441.098 33.3716 443.205 24.1301 441.449C24.1301 441.098 24.1301 440.395 24.1301 439.692C24.1301 438.638 24.13 437.585 21.4896 437.233C20.8295 437.233 19.5099 437.584 18.8498 437.936C17.5296 439.341 18.1892 440.395 20.8296 441.097C22.1498 441.449 23.47 441.449 24.1301 441.449Z" fill="white"/>
<path d="M702.057 453.042C702.717 451.988 706.678 451.988 705.358 449.88C702.057 444.61 703.377 443.556 712.619 443.205C719.88 442.854 727.14 443.205 734.402 443.205C735.062 443.205 736.382 443.205 737.042 443.205C746.944 442.502 746.944 446.015 746.944 449.529C732.421 453.393 717.24 453.393 702.057 453.042Z" fill="white"/>
<path d="M202.358 453.393C212.92 453.042 222.822 450.583 233.383 452.339C235.364 452.691 237.343 452.339 238.664 451.285C241.304 449.529 243.944 447.421 248.565 447.772C254.506 448.124 259.787 449.88 263.748 451.988C268.369 454.447 271.669 456.906 275.629 459.717C272.989 459.717 270.349 459.717 267.708 459.365C248.565 456.555 229.422 455.501 209.619 455.15C206.318 454.447 204.338 454.447 202.358 453.393Z" fill="white"/>
<path d="M607.662 6.53068C603.041 9.69244 593.799 10.395 592.479 14.6107C587.858 13.2055 589.179 11.0976 588.519 9.69242C587.858 7.58458 585.218 6.88195 581.917 6.88195C579.937 6.88195 577.957 6.88195 575.316 6.88195C566.735 6.88195 557.494 8.28717 550.233 7.58455C542.312 6.88194 535.05 5.47671 526.469 5.82802C524.488 5.82802 522.509 5.12543 520.528 4.42281C524.489 3.01758 528.449 1.26106 533.07 1.96367C555.513 4.77413 578.617 3.36888 601.061 5.12541C603.701 5.47672 605.681 6.17937 607.662 6.53068Z" fill="white"/>
<path d="M22.1507 69.0631C27.4315 67.6579 29.4112 71.8736 34.692 70.8197C37.9925 70.1171 36.6728 72.2249 36.0127 72.9275C34.0324 73.9815 30.732 74.3328 28.7517 75.738C26.1113 77.4945 23.4704 79.6024 27.431 81.7102C29.4113 82.7641 34.6925 83.8181 32.7122 85.2233C27.4313 89.0877 30.7317 94.7086 23.4706 97.8704C22.8104 98.2217 21.4902 98.2216 20.17 98.2216C18.8498 88.385 20.1704 78.5484 22.1507 69.0631Z" fill="white"/>
<path d="M331.738 6.88188C329.098 8.63841 325.137 10.0437 321.177 9.69234C304.014 7.5845 288.171 10.7463 271.669 11.8002C262.427 12.1515 253.186 12.8541 243.945 11.4489C251.206 7.23319 261.108 8.98972 270.349 8.63841C275.63 8.28711 280.25 8.6384 285.531 7.58448C300.713 4.77402 315.896 6.88188 331.738 6.88188Z" fill="white"/>
<path d="M702.717 6.53068C700.076 8.98983 695.455 8.6385 691.495 8.6385C674.332 8.6385 656.51 8.2872 639.347 9.69243C633.406 10.0437 629.446 9.34111 626.145 6.88196C651.889 5.12542 676.973 5.82807 702.717 6.53068Z" fill="white"/>
<path d="M280.911 459.716C285.531 457.257 290.812 454.447 297.413 458.662C300.054 460.419 303.354 459.014 305.334 457.96C311.935 454.447 321.837 453.042 327.118 448.826C328.438 447.772 331.079 446.718 333.719 447.421C337.019 448.826 333.719 449.528 333.059 450.582C331.079 453.393 328.438 455.852 322.497 456.203C314.576 456.906 318.537 459.365 319.197 461.122C305.995 462.175 293.453 462.176 280.911 459.716Z" fill="white"/>
<path d="M800.411 50.7954C799.751 43.7693 807.673 39.9049 818.235 37.0945C820.875 43.7693 818.234 50.7955 819.555 57.4703C813.614 55.3625 813.614 55.3624 810.974 48.3363C806.353 47.6337 805.032 51.1467 800.411 50.7954Z" fill="white"/>
<path d="M822.195 18.4748C815.594 15.6643 808.333 13.2052 801.732 9.69212C795.791 6.53035 784.57 8.63819 777.969 5.12512C790.511 3.71989 801.072 8.2869 813.614 7.23298C816.254 6.88167 818.235 8.28689 819.555 9.69212C822.195 12.5026 824.176 15.313 822.195 18.4748Z" fill="white"/>
<path d="M816.255 188.859C808.994 189.21 810.974 183.589 803.713 183.589C802.392 183.589 801.732 182.886 803.053 182.184C808.334 179.373 807.673 173.05 819.555 173.752C818.895 178.671 822.196 183.94 816.255 188.859Z" fill="white"/>
<path d="M18.85 187.102C25.4511 187.454 28.7513 189.913 26.771 193.075C24.1306 197.641 24.7905 201.857 24.1304 206.424C23.4703 209.235 19.5098 207.478 16.8694 207.127C15.5492 200.452 18.1899 193.777 18.85 187.102Z" fill="white"/>
<path d="M14.2289 219.071C19.5097 219.423 27.4309 218.72 20.8299 223.99C16.2092 227.503 18.19 232.07 15.5496 235.934C14.2294 237.691 14.229 239.096 10.2684 239.447C6.30779 232.421 12.9087 225.746 14.2289 219.071Z" fill="white"/>
<path d="M19.51 168.483C23.4706 168.834 26.7708 168.834 27.4309 171.645C27.4309 173.401 26.7706 175.509 28.0909 177.266C32.0515 182.184 27.4314 183.589 18.85 183.94C17.5298 178.671 18.1898 173.753 19.51 168.483Z" fill="white"/>
<path d="M818.895 30.4198C809.654 27.9606 803.053 23.0423 791.831 22.691C792.491 21.2858 793.151 19.8806 793.811 18.4753C804.373 18.4753 810.313 23.7449 820.215 25.5015C821.535 27.258 822.196 29.0145 818.895 30.4198Z" fill="white"/>
<path d="M39.3124 11.449C43.273 18.8264 32.0508 20.583 24.7896 23.7447C20.829 20.2317 26.1103 18.1238 29.4108 16.016C31.3911 14.2594 36.0119 12.8542 39.3124 11.449Z" fill="white"/>
<path d="M151.53 454.447C158.131 452.339 165.392 451.286 169.353 447.421C175.954 448.475 171.993 452.339 176.614 453.393C168.032 454.799 160.112 455.501 151.53 454.447Z" fill="white"/>
<path d="M750.244 4.07153C749.584 5.82807 746.943 6.88199 744.303 7.5846C742.983 7.93591 724.5 7.23334 721.199 6.53073C721.859 5.4768 723.84 4.42288 725.82 4.77419C733.742 6.17942 741.663 5.12545 750.244 4.07153Z" fill="white"/>
<path d="M4.98658 395.779C9.60731 400.346 10.2679 404.562 6.30727 409.48C2.34665 404.913 3.00627 400.346 4.98658 395.779Z" fill="white"/>
<path d="M819.555 146.702C817.575 146.702 815.594 146.702 813.614 146.702C814.274 144.594 815.594 142.135 816.254 140.027C817.575 140.027 818.235 140.027 819.555 140.027C821.535 142.135 823.515 144.594 819.555 146.702Z" fill="white"/>
<path d="M224.142 11.0977C219.521 14.2594 215.561 14.6108 210.94 10.7464C215.561 10.3951 220.181 10.3951 224.142 11.0977Z" fill="white"/>
<path d="M15.5495 210.64C18.85 210.991 21.4899 212.045 20.8298 214.153C20.1697 215.909 17.5291 215.909 14.8887 216.261C12.2483 214.153 14.2292 212.396 15.5495 210.64Z" fill="white"/>
<path d="M510.627 4.77394C506.006 4.77394 501.385 5.82785 496.764 3.72001C502.045 1.61217 506.006 3.01741 510.627 4.77394Z" fill="white"/>
<path d="M347.581 5.12541C344.941 7.23325 340.98 6.88197 337.02 6.53067C339.66 3.72021 342.96 3.36887 347.581 5.12541Z" fill="white"/>
<path d="M819.555 140.027C818.234 140.027 817.574 140.027 816.254 140.027C814.274 139.676 810.313 139.676 811.634 137.919C812.954 136.163 816.914 136.865 819.555 136.865C819.555 137.568 819.555 138.973 819.555 140.027Z" fill="white"/>
<path d="M6.96755 414.398C14.2287 415.452 9.60764 417.912 8.28744 419.668C4.98692 418.263 5.64734 416.506 6.96755 414.398Z" fill="white"/>
<path d="M8.94828 423.181C12.2488 424.235 12.2486 425.288 9.60823 426.342C6.96781 425.288 6.96797 424.235 8.94828 423.181Z" fill="white"/>
<path d="M797.111 343.786C796.451 343.434 796.452 343.083 795.792 342.732C795.792 342.732 796.451 342.38 797.111 342.38C797.771 342.732 797.771 343.434 797.111 343.786Z" fill="white"/>
<path d="M616.904 6.53076C615.583 7.93599 614.923 7.93599 613.603 6.53076C614.923 6.53076 615.583 6.53076 616.904 6.53076Z" fill="white"/>
<path d="M236.684 10.7465C235.364 11.4491 234.704 11.4491 233.383 10.7465C234.704 10.3952 235.364 10.7465 236.684 10.7465Z" fill="white"/>
<path d="M19.51 126.678C20.8302 127.38 20.1703 127.732 18.8501 128.083C18.8501 127.732 19.51 127.029 19.51 126.678Z" fill="white"/>
<path d="M196.417 453.042H197.738L197.078 453.745L196.417 453.042Z" fill="white"/>
<path d="M182.555 453.042C183.875 452.339 184.535 452.339 185.856 453.042C185.196 453.042 183.875 453.042 182.555 453.042Z" fill="white"/>
<path d="M765.427 168.483C769.388 174.807 771.368 180.779 756.845 183.941C753.545 184.643 754.205 186.049 754.866 187.454C756.186 189.913 760.806 191.318 762.786 193.426C767.407 198.696 768.727 198.696 759.486 201.506C755.525 202.56 754.865 203.965 755.526 206.073C756.846 210.64 752.885 214.505 745.624 216.964C747.604 219.774 753.545 218.369 756.845 220.125C756.845 220.477 757.505 221.531 757.505 221.531C745.623 229.259 752.225 238.745 750.244 247.176C757.506 251.743 748.924 255.607 750.244 260.877C742.983 259.121 738.363 257.013 732.422 256.31C732.422 254.202 741.003 252.094 731.101 250.689C723.84 249.635 725.821 245.771 721.86 242.609C719.88 245.068 718.56 247.176 716.579 250.338C715.259 245.42 709.318 246.122 704.037 247.176C704.037 242.96 711.299 244.717 712.619 242.258C713.939 239.799 705.357 239.799 707.338 236.637C707.998 235.583 710.638 235.583 712.619 235.583C715.919 235.232 722.52 236.286 721.2 234.178C719.879 231.719 727.801 228.206 716.579 226.449C710.638 225.395 706.678 219.423 709.978 215.207C711.959 212.748 710.638 210.991 709.318 208.884C711.299 208.884 713.939 208.532 715.919 208.532C721.86 208.884 723.84 207.478 723.84 204.317C723.84 200.101 732.422 195.534 721.86 191.67C724.501 186.049 718.559 182.887 707.998 179.374C725.16 179.023 725.821 173.05 725.161 167.781C724.501 164.268 731.101 160.403 723.84 156.539C721.86 155.485 725.161 154.782 725.821 153.728C728.461 150.215 732.422 147.054 732.422 143.189C740.343 143.189 743.643 145.297 744.303 148.81C744.963 154.431 749.584 158.647 760.146 160.755C760.146 164.619 756.846 168.132 765.427 168.483ZM735.722 173.05C740.343 170.942 746.284 169.889 743.643 167.078C741.663 164.619 736.382 164.619 733.082 166.024C728.461 168.483 733.082 170.591 735.722 173.05ZM740.343 177.266C737.042 177.969 733.742 179.023 735.062 181.13C735.723 182.536 737.042 184.995 740.343 184.292C744.964 183.941 745.624 181.482 746.284 179.374C746.284 177.969 744.303 177.266 740.343 177.266ZM733.082 199.75C737.042 199.75 737.703 197.993 739.683 197.29C741.663 196.588 742.984 195.534 741.663 194.831C739.683 193.426 736.383 194.129 735.062 195.183C733.082 196.237 730.441 197.642 733.082 199.75Z" fill="white"/>
<path d="M81.5598 239.447C85.5204 239.798 89.4808 238.744 95.4218 238.042C94.1016 241.204 94.7618 244.014 98.0623 246.473C100.043 247.527 102.683 248.23 104.663 247.176C107.304 245.771 103.343 245.771 102.683 245.068C100.042 242.609 103.343 240.852 106.643 239.798C119.845 235.934 119.845 236.285 115.885 229.259C124.466 229.61 133.048 229.259 138.988 225.746C142.289 226.8 140.969 228.908 142.289 230.313C143.609 231.718 145.589 232.421 148.89 231.718C151.53 231.016 154.831 229.962 153.51 228.908C148.89 225.746 153.511 223.99 156.151 221.53C156.811 220.828 154.831 219.423 154.171 218.017C162.752 217.666 171.993 218.72 179.255 215.207C180.575 214.856 181.235 213.802 181.235 213.099C181.895 212.045 179.255 211.342 178.595 211.342C166.713 214.504 164.073 208.181 157.472 205.722C156.812 205.37 156.151 205.019 155.491 204.668C155.491 204.316 155.491 203.965 155.491 203.965C157.471 202.56 160.772 202.209 162.752 203.262C169.353 206.424 175.294 206.424 181.895 203.262C183.875 202.56 187.836 202.56 187.836 204.316C187.176 209.235 193.777 213.802 188.496 218.72C187.836 219.423 187.176 220.476 185.196 221.179C180.575 223.638 180.575 223.638 189.156 224.692C189.156 229.259 189.816 233.475 196.417 236.988C200.378 239.096 201.038 240.501 204.339 236.988C204.999 236.285 208.299 236.285 209.619 236.285C214.24 237.691 208.96 239.096 210.28 240.852C212.92 243.311 209.62 245.068 203.679 244.717C202.359 244.717 199.718 244.014 199.058 244.365C187.176 250.338 179.255 246.122 171.334 241.555C182.555 236.988 182.555 236.988 176.614 229.962C175.954 229.61 175.954 228.908 175.294 228.557C171.994 227.151 177.935 223.638 170.674 223.287C162.752 223.287 164.732 227.151 162.752 229.259C161.432 230.664 162.092 231.718 162.092 233.475C163.412 240.501 158.131 244.365 145.589 245.771C143.609 246.122 142.289 245.771 140.969 245.068C138.989 244.365 138.988 243.311 139.648 241.906C140.969 239.798 146.25 240.15 148.89 238.744C146.91 235.583 142.289 234.529 137.008 234.88C133.707 234.88 129.087 234.177 127.106 236.285C125.126 238.393 128.426 239.096 130.407 240.501C140.308 246.825 134.368 253.851 131.727 260.525C131.067 262.985 125.127 265.444 117.865 264.039C113.245 262.985 107.964 262.282 102.683 262.985C101.363 263.336 99.3822 262.985 99.3822 262.282C98.062 257.364 92.7809 259.472 87.5 259.823C84.8596 260.174 82.2194 259.823 80.2391 259.823C79.579 261.579 88.8209 264.741 78.2592 265.093C72.9784 265.444 70.9979 267.903 65.7171 269.308C61.7565 265.092 61.0964 260.174 52.515 257.715C47.8943 256.31 53.8348 253.499 54.4949 251.04C59.7757 251.392 59.1157 254.905 63.7365 255.607C69.0173 254.553 60.4364 250.689 68.3577 249.635C71.6582 249.284 67.6973 248.23 66.377 247.878C64.3967 247.176 61.7565 246.824 59.1161 246.122C68.3575 245.419 68.3572 245.419 76.9385 248.581C78.9189 249.284 80.2394 250.338 82.2197 249.635C84.8601 248.932 84.8598 247.176 83.5396 246.122C81.5593 243.311 81.5598 241.555 81.5598 239.447ZM69.0176 259.472C70.3378 258.769 72.9779 258.418 70.3375 257.364C69.6774 258.066 69.0176 258.769 69.0176 259.472C68.3575 259.823 68.357 259.823 67.6969 260.174C67.6969 260.174 68.3575 259.823 69.0176 259.472ZM120.505 258.769C119.185 258.418 117.865 258.066 117.205 258.066C115.224 258.066 113.904 258.418 113.904 259.472C113.904 260.174 115.225 260.525 116.545 260.174C117.865 259.823 119.185 259.12 120.505 258.769Z" fill="white"/>
<path d="M40.6328 436.882C40.6328 434.423 40.6328 432.315 40.6328 429.856C45.9136 426.343 51.1946 423.181 56.4755 419.668C57.7957 418.614 60.4361 418.263 59.776 416.155C59.1159 411.588 61.0963 410.183 69.0176 408.777C77.5989 407.372 81.5597 402.454 91.4613 402.102C96.7421 402.102 85.52 399.292 92.7812 397.535C95.4216 397.184 94.7616 395.428 88.8207 395.076C84.8601 394.725 84.2001 394.022 84.8602 392.617C86.1804 390.861 86.8399 388.753 90.8005 387.699C91.4606 388.401 92.1212 388.753 92.1212 388.05C92.1212 388.05 91.4606 387.699 90.8005 387.699C90.8005 385.591 90.8012 383.834 94.7618 382.429C96.7421 381.727 99.3819 380.673 100.702 379.619C102.022 378.565 102.683 377.16 105.323 374.349C105.983 382.078 103.343 387.347 96.0817 391.914C97.4019 394.022 114.565 391.563 102.683 397.887C102.023 398.238 101.363 399.292 102.023 399.292C106.643 401.751 111.924 404.562 117.865 405.264C123.806 405.967 126.447 403.156 128.427 399.643C130.407 395.779 127.767 392.617 128.427 389.104C129.087 386.294 129.747 383.483 134.368 381.727C138.329 380.321 142.949 379.619 146.249 381.375C151.53 383.834 153.511 388.401 162.752 387.699C163.412 387.699 164.072 388.401 163.412 389.104C155.491 394.374 165.392 392.617 170.013 394.022C173.974 395.076 181.895 396.13 181.235 399.292C180.575 402.102 175.954 404.562 168.693 404.562C163.412 404.562 161.432 405.967 160.111 408.426C158.791 410.534 154.831 412.29 152.19 411.939C138.988 410.885 127.767 415.101 114.565 415.803C110.604 416.155 110.604 414.398 109.944 412.993C113.904 412.642 119.185 413.696 118.525 409.831C118.525 409.48 117.205 408.777 117.205 408.777C111.264 408.426 110.604 410.885 109.944 412.993C108.623 412.993 107.963 412.993 106.643 412.642C99.382 411.588 92.1212 408.777 85.5202 408.777C79.5792 408.777 80.8995 415.803 72.3181 416.857C84.8601 422.478 84.8598 422.478 90.1406 415.803C91.4608 418.965 96.7415 420.019 100.702 422.83C92.1207 425.64 82.2192 427.748 74.2979 429.153C52.5145 431.964 51.8546 431.612 40.6328 436.882Z" fill="white"/>
<path d="M201.698 305.141C201.698 307.952 201.698 310.411 201.698 313.221C202.358 316.383 203.018 319.896 210.94 320.248C209.619 322.355 205.659 323.409 205.659 326.22C204.998 333.597 204.999 333.597 197.078 338.164C211.6 342.029 206.979 349.055 204.339 355.027C201.038 362.053 197.077 368.728 201.698 376.105C202.358 377.511 201.038 378.916 197.738 379.267C194.437 379.267 193.116 378.213 193.116 376.808C193.116 373.295 193.117 370.133 185.855 368.025C183.215 367.323 183.875 365.918 185.855 364.512C189.816 362.053 191.797 358.891 194.437 355.73C199.718 349.055 198.398 346.596 187.836 342.731C183.215 340.975 177.274 340.975 171.993 339.57C183.215 331.841 183.215 329.03 168.693 324.112C180.575 325.166 185.855 320.95 193.116 319.194C196.417 318.14 195.097 316.735 193.116 314.978C189.156 312.519 181.235 310.762 185.195 306.898C188.496 303.736 195.757 305.493 201.038 305.141C201.038 305.141 201.038 305.141 201.698 305.141Z" fill="white"/>
<path d="M106.643 207.478C104.663 206.073 102.683 205.722 100.042 206.073C95.4216 206.776 90.1406 208.884 87.5002 204.317C86.8401 203.263 84.86 203.965 83.5398 204.317C74.2983 207.478 69.0176 202.209 63.0767 200.803C57.7959 199.398 61.7562 196.236 64.3966 194.48C66.3769 193.075 68.3572 194.48 70.9976 195.885C76.9386 199.398 82.8801 197.993 84.8605 193.075C84.8605 192.372 84.8605 192.021 84.8605 191.318C84.8605 187.805 86.18 184.292 90.8007 182.184C93.4412 180.779 100.043 183.941 105.324 182.535C107.304 185.346 104.003 186.751 102.683 188.508C100.703 190.967 100.702 193.075 104.003 194.831C111.264 198.696 114.565 205.722 129.747 202.911C133.048 202.209 140.309 203.263 133.707 207.127C133.047 207.478 133.048 208.884 133.048 209.586C132.387 210.991 133.708 213.451 129.087 213.451C125.126 213.451 123.806 211.343 123.146 209.235C124.466 208.884 125.786 208.532 126.446 207.83C127.767 206.424 125.786 206.073 123.806 206.073C117.205 205.019 112.584 207.127 106.643 207.478Z" fill="white"/>
<path d="M227.442 303.385C227.442 301.277 228.103 298.467 223.482 297.764C218.861 297.413 212.92 297.764 211.6 301.277C210.279 303.736 206.979 304.79 202.358 304.79C195.757 303.034 188.496 301.629 181.895 299.872C182.555 297.413 186.516 298.116 189.156 298.116C199.058 298.818 199.058 298.818 201.038 293.197C201.698 292.143 203.019 291.441 203.679 290.738C206.979 290.387 207.639 291.441 209.619 292.143C217.54 295.656 218.861 295.656 221.501 290.387C222.161 288.63 222.161 287.225 225.462 286.171C230.743 284.415 228.102 284.063 224.802 282.307C218.201 279.145 226.122 276.686 226.122 273.875C232.063 273.173 230.743 278.794 238.004 276.686C241.964 275.632 245.925 277.74 246.586 280.199C247.246 282.658 246.585 285.117 241.964 285.82C236.023 286.874 234.043 288.279 238.004 291.089C243.285 295.656 240.644 299.521 234.703 303.385C231.403 305.142 229.423 303.385 227.442 303.385Z" fill="white"/>
<path d="M439.996 407.02C439.335 407.723 438.015 409.128 437.355 408.777C426.133 405.966 414.912 409.831 403.69 409.48C401.049 409.48 398.409 409.48 396.429 408.426C394.449 407.372 391.808 406.318 395.769 404.561C406.991 399.292 416.892 393.671 434.054 395.076C439.995 395.427 446.597 393.671 452.538 392.968C457.158 392.617 461.779 392.968 459.139 396.481C458.479 397.184 458.479 398.238 458.479 398.94C458.479 405.966 458.478 405.966 443.956 405.966C444.616 403.507 445.937 400.697 441.976 398.589C436.695 401.048 439.335 404.21 439.996 407.02ZM426.793 403.507C427.454 403.156 427.454 402.805 428.114 402.102C427.454 402.102 426.134 402.102 425.474 402.102C425.474 402.102 424.814 402.453 424.814 402.805C424.814 403.507 425.473 403.507 426.793 403.507Z" fill="white"/>
<path d="M619.545 356.432C626.146 359.243 628.125 363.458 634.726 365.566C636.707 366.269 638.687 368.025 638.027 369.079C636.047 375.403 639.347 382.429 634.726 388.753C631.426 392.968 624.825 394.022 618.884 390.86C610.963 386.645 612.943 377.511 623.505 374.7C627.466 373.646 626.805 373.295 624.825 371.89C624.165 371.539 624.165 370.836 623.505 370.485C619.544 369.079 633.407 367.323 622.845 365.918C616.244 365.215 613.603 366.269 612.283 369.782C612.283 370.133 610.302 370.133 608.982 370.485C605.022 363.81 619.545 361.702 619.545 356.432Z" fill="white"/>
<path d="M429.434 375.754C426.133 378.916 426.794 382.78 426.133 386.996C425.473 389.104 423.493 391.212 418.872 390.509C414.252 389.807 413.591 388.05 416.892 385.942C420.192 384.186 420.853 382.078 418.872 380.673C410.951 371.89 420.192 363.107 420.192 354.325C420.192 349.055 423.493 343.434 420.852 337.813C419.532 334.651 422.173 333.598 426.793 332.895C432.734 332.192 431.414 335.003 432.734 336.759C434.055 338.165 434.715 339.57 432.734 340.624C424.153 345.542 429.434 351.865 428.114 357.135C426.134 363.107 424.153 368.728 428.114 374.349C429.434 374.7 429.434 375.052 429.434 375.754Z" fill="white"/>
<path d="M690.175 133.001C689.515 134.407 690.175 136.163 688.195 136.866C682.914 139.676 684.234 141.433 688.195 144.594C692.155 147.756 688.855 152.323 683.574 153.026C678.954 153.728 672.353 151.269 672.353 147.405C672.353 144.243 671.032 141.784 668.392 138.974C665.091 135.812 671.032 126.678 676.973 125.273C680.274 124.219 684.234 124.57 686.875 126.678C688.855 128.434 690.175 130.542 690.175 133.001Z" fill="white"/>
<path d="M549.572 156.539C548.252 158.998 548.252 162.511 544.952 165.322C540.331 169.186 539.671 173.05 542.311 177.266C543.632 180.076 543.632 182.887 543.632 185.697C543.632 187.103 542.971 188.859 539.671 188.508C537.03 188.156 534.39 186.751 535.71 185.697C539.671 182.536 537.03 180.779 533.07 179.022C530.429 177.617 531.75 175.861 533.07 174.455C534.39 173.05 535.05 171.645 533.07 170.591C520.528 162.862 537.031 157.241 539.011 150.918C539.671 149.864 542.312 150.215 544.292 150.567C549.573 150.567 550.893 152.674 549.572 156.539Z" fill="white"/>
<path d="M261.768 70.82C254.506 72.5766 247.905 74.6845 245.265 68.0096C244.605 65.5505 236.024 65.1992 237.344 61.6861C223.482 65.5505 228.103 54.6599 217.541 55.3625C229.423 56.4165 239.984 58.173 251.866 57.1191C253.186 64.1452 254.507 64.4966 264.408 60.9835C266.389 60.2809 268.369 59.2269 271.009 58.5243C272.329 57.8217 274.31 57.1191 276.29 56.4165C274.31 64.1452 274.31 64.1452 278.27 69.4148C271.009 66.6044 265.728 67.307 261.768 70.82Z" fill="white"/>
<path d="M245.925 252.797C250.546 245.068 250.546 245.068 230.083 243.663C232.063 241.906 235.364 239.798 238.004 240.852C248.566 244.365 248.565 239.798 249.225 236.637C249.885 234.529 247.905 232.07 255.166 232.07C256.487 232.07 257.807 230.664 257.147 230.313C251.206 228.205 255.826 222.233 245.925 221.53C242.624 221.179 238.004 219.774 241.964 217.315C244.605 215.207 247.246 213.45 253.187 215.91C257.147 217.666 261.108 218.72 261.108 221.53C261.108 226.8 265.729 231.718 259.788 236.988C256.487 240.15 258.467 244.717 255.826 248.23C253.846 251.04 251.866 252.797 245.925 252.797Z" fill="white"/>
<path d="M97.4014 353.974C103.342 352.569 104.003 350.109 103.343 347.299C109.283 348.353 112.584 344.84 117.205 344.84C119.845 347.299 118.525 349.758 119.185 352.217C117.865 352.92 115.885 353.623 114.565 354.325C112.584 352.92 113.244 350.812 108.624 353.974C104.003 357.487 105.323 359.946 108.624 362.757C114.565 363.459 112.584 358.892 117.205 358.892C121.165 358.892 124.466 358.892 125.126 361.703C125.786 364.162 124.466 364.864 119.845 363.81C117.205 363.108 115.885 363.81 115.885 365.216C115.225 366.972 116.545 369.08 114.565 371.188C109.284 370.837 105.983 368.377 101.363 366.972C97.4021 369.431 102.682 371.539 103.343 373.647C98.7218 375.404 92.7813 371.891 88.1606 375.404C88.8207 371.891 84.8594 369.08 94.1009 368.026C99.3817 367.324 101.362 362.757 100.042 359.595C99.3819 357.838 98.0615 355.73 97.4014 353.974Z" fill="white"/>
<path d="M65.0565 45.1744C61.0959 43.0666 63.0762 40.6074 61.756 38.4996C58.4555 34.6352 61.0953 31.8248 67.6963 30.7708C75.6175 29.7169 97.4016 33.9326 101.362 37.4456C103.343 38.8509 102.022 39.9048 98.7216 40.6074C92.7807 41.6614 84.1995 38.4996 81.5591 43.7692C75.6182 43.0666 69.6773 44.4718 65.0565 45.1744Z" fill="white"/>
<path d="M603.702 345.542C603.702 351.163 601.721 353.973 592.48 353.973C583.898 353.973 577.957 358.189 568.716 358.54C564.095 358.892 568.056 363.107 563.436 365.566C559.475 364.513 554.854 361.702 556.174 360.297C560.134 357.486 557.495 352.919 564.096 351.865C570.037 350.812 574.657 348.352 580.598 347.299C584.559 346.596 587.859 345.542 587.199 349.406C586.539 351.163 589.179 351.163 591.16 350.46C594.46 348.704 597.761 347.299 603.702 345.542Z" fill="white"/>
<path d="M245.925 252.797C247.245 253.5 248.566 254.554 249.886 255.256C243.285 256.661 246.585 258.418 248.565 260.526C251.206 263.336 247.905 265.444 241.964 265.795C240.644 265.795 238.664 265.444 238.664 264.742C238.664 264.39 239.324 263.336 239.324 263.336C246.585 261.931 241.304 261.58 239.324 260.174C236.683 258.418 236.683 257.715 232.723 259.472C230.082 260.877 226.782 264.039 223.482 263.336C216.881 261.931 209.619 261.228 203.018 259.472C199.717 258.418 200.378 257.364 201.698 255.959C203.678 254.202 207.639 253.5 208.959 255.256C212.26 258.769 212.919 255.608 216.22 255.608C226.122 254.905 235.363 251.392 245.925 252.797Z" fill="white"/>
<path d="M37.3322 423.181C36.012 423.884 34.692 424.586 33.3718 424.938C31.3915 424.586 28.0913 424.235 28.7514 423.181C30.7317 420.019 28.0908 417.209 27.4307 414.398C27.4307 412.642 26.7709 410.183 29.4113 409.831C40.6331 408.777 34.0322 403.508 38.6529 400.697C50.5348 405.264 53.8352 415.101 45.9139 420.019C44.5937 420.722 43.2737 420.019 41.9534 419.668C34.6923 418.614 37.9923 421.776 37.3322 423.181Z" fill="white"/>
<path d="M117.865 274.578C120.506 276.685 120.505 277.037 121.826 277.388C133.708 283.712 127.767 290.387 121.166 296.71C119.846 297.764 119.185 299.52 115.885 298.818C113.244 298.115 110.604 296.71 111.924 295.656C118.525 291.089 111.924 287.927 109.284 284.414C105.323 279.145 116.545 279.145 117.865 274.578Z" fill="white"/>
<path d="M146.249 91.8982C142.289 87.6825 142.288 83.1156 133.707 81.359C131.727 81.0077 133.047 77.846 135.028 78.5486C148.89 81.7104 147.569 73.9816 152.85 71.5225C161.432 77.846 161.432 77.8459 146.249 91.8982Z" fill="white"/>
<path d="M181.895 438.638C177.274 435.476 173.313 434.422 166.052 437.233C158.131 440.395 149.55 435.828 140.308 435.828C150.21 431.612 162.092 431.261 173.974 431.612C178.595 431.963 178.594 431.963 181.895 438.638Z" fill="white"/>
<path d="M557.495 368.728C562.115 368.728 565.416 369.431 564.756 372.241C562.775 378.213 559.474 383.834 559.474 390.158C559.474 391.563 557.495 392.617 554.194 392.617C550.233 392.266 550.893 390.86 552.213 389.455C555.514 386.293 555.514 383.483 553.534 379.97C551.554 376.105 556.834 372.592 557.495 368.728Z" fill="white"/>
<path d="M116.545 128.082C119.845 128.082 123.806 127.731 128.427 129.136C123.806 131.244 126.446 134.406 125.126 136.865C117.865 138.27 117.205 132.298 115.885 134.055C110.604 140.027 105.323 134.757 100.042 134.757C100.042 131.596 100.703 129.488 107.964 129.839C111.264 129.839 114.564 129.839 116.545 128.082Z" fill="white"/>
<path d="M106.643 310.06C106.643 306.899 105.323 303.737 113.904 303.034C116.544 302.683 119.845 301.629 122.486 303.386C125.126 305.142 127.767 307.25 125.126 309.358C123.146 311.114 120.505 313.573 116.544 313.925C111.924 314.276 111.264 310.763 106.643 310.06Z" fill="white"/>
<path d="M122.486 189.913C122.486 187.454 123.146 185.697 127.767 185.697C129.087 185.697 140.969 189.562 140.969 190.264C141.629 192.021 131.068 197.29 127.767 196.939C121.166 195.534 125.786 191.669 122.486 189.913Z" fill="white"/>
<path d="M236.023 193.426C232.723 194.831 230.083 196.237 226.783 197.642C223.482 199.047 222.821 202.911 216.22 201.155C212.92 200.101 214.241 192.372 216.881 190.967C218.201 190.264 219.521 189.913 220.842 190.616C222.822 191.67 224.802 192.021 227.443 192.372C230.083 192.021 232.723 192.021 236.023 193.426Z" fill="white"/>
<path d="M739.023 429.504C735.722 429.153 731.101 429.504 729.781 426.694C735.722 424.937 741.663 423.181 748.264 421.424C751.565 423.181 752.225 425.64 750.244 428.099C746.284 428.099 741.663 427.396 739.023 429.504Z" fill="white"/>
<path d="M781.269 335.354C778.629 335.354 775.988 335.354 773.348 335.354C763.446 334.3 760.146 328.679 767.407 324.815C768.727 323.761 772.688 324.112 772.688 324.463C772.688 329.03 781.93 331.138 781.269 335.354Z" fill="white"/>
<path d="M120.505 376.808C123.806 378.565 118.525 380.673 122.486 383.132C127.767 386.294 119.185 388.05 117.205 390.509C116.544 391.212 113.244 390.509 111.924 389.455C110.604 388.753 107.963 387.699 109.284 386.996C115.885 384.186 109.943 378.214 120.505 376.808Z" fill="white"/>
<path d="M600.401 52.2006C596.441 51.8493 594.46 51.1466 595.12 49.0388C596.44 46.5796 597.761 43.7692 603.702 44.1205C607.662 44.4718 613.603 45.1744 612.283 47.6336C610.963 50.444 607.002 52.5519 600.401 52.2006Z" fill="white"/>
<path d="M209.62 201.154C211.6 203.262 212.921 205.019 213.581 206.424C214.901 208.18 215.561 210.64 211.6 211.342C207.64 212.045 203.679 210.64 201.699 208.532C199.718 206.775 197.738 205.019 202.359 203.613C204.339 203.262 206.319 202.56 209.62 201.154Z" fill="white"/>
<path d="M794.471 18.475C793.811 19.8802 793.151 21.2854 792.491 22.6906C791.831 22.6906 791.171 23.042 791.171 23.042C790.511 23.042 789.19 23.042 788.53 23.042C786.55 22.3394 785.229 21.9881 783.249 21.2854C779.289 19.1776 777.968 17.0698 783.249 15.3132C787.21 16.3672 791.171 16.7184 794.471 18.475Z" fill="white"/>
<path d="M783.249 15.6647C777.308 17.7725 779.289 19.529 783.249 21.6369C771.367 24.4473 767.407 19.8803 762.786 15.6647C769.387 14.962 775.988 14.962 783.249 15.6647Z" fill="white"/>
<path d="M97.4019 140.027C90.8008 140.027 84.2003 140.027 78.9194 136.163C86.8407 134.406 94.1013 135.109 100.702 135.109C100.702 136.866 98.7221 138.271 97.4019 140.027Z" fill="white"/>
<path d="M261.767 70.8193C264.408 71.1706 268.369 70.4681 269.689 72.2246C271.009 73.6298 268.369 74.6837 266.389 75.7377C264.408 76.7916 261.768 77.1429 259.788 77.8455C257.147 78.5481 254.507 79.2507 253.187 77.4942C251.866 76.089 253.187 74.6837 256.487 74.3324C259.788 73.9811 261.767 72.5759 261.767 70.8193Z" fill="white"/>
<path d="M106.644 207.479C106.644 208.884 106.644 210.289 106.644 211.694C106.644 213.802 104.003 215.207 100.043 215.91C97.4022 216.261 96.0821 215.559 96.0821 214.153C95.422 212.045 93.4417 209.586 99.3827 208.884C102.023 208.181 104.663 207.83 106.644 207.479Z" fill="white"/>
<path d="M439.996 407.02C439.336 404.21 436.696 401.048 442.636 398.589C446.597 401.048 445.277 403.507 444.617 405.966C443.297 406.318 441.316 406.669 439.996 407.02Z" fill="white"/>
<path d="M737.042 443.205C736.382 443.205 735.061 443.205 734.401 443.205C734.401 441.8 733.081 440.746 731.101 439.692C728.46 438.638 729.121 437.233 731.761 436.53C733.742 435.828 736.382 434.774 739.022 435.828C741.003 436.53 741.002 437.584 740.342 438.638C739.022 440.395 737.702 441.8 737.042 443.205Z" fill="white"/>
<path d="M227.443 303.385C229.423 303.385 231.404 305.142 233.384 303.385C236.024 303.737 239.985 303.737 238.004 305.493C236.024 307.25 230.743 308.303 227.443 307.601C222.162 306.898 224.142 304.79 227.443 303.385Z" fill="white"/>
<path d="M765.427 168.483C756.846 167.781 760.146 164.267 759.486 161.808C770.048 162.511 770.048 162.862 765.427 168.483Z" fill="white"/>
<path d="M141.629 366.621C140.969 368.377 139.649 369.782 135.688 370.134C134.368 370.134 133.047 369.431 133.047 368.728C134.368 366.972 134.368 364.864 138.988 365.215C140.309 364.864 140.969 366.269 141.629 366.621Z" fill="white"/>
<path d="M81.5597 239.447C80.8996 239.447 80.239 239.447 80.239 239.447C76.9385 239.096 72.9777 240.15 70.9974 238.042C70.3373 236.988 71.6576 236.636 73.638 236.285C77.5986 235.934 80.8996 236.636 81.5597 239.447Z" fill="white"/>
<path d="M217.541 326.923C217.541 328.328 216.881 329.733 213.58 329.382C212.92 329.382 212.26 327.976 212.26 327.274C212.26 325.869 214.24 325.517 216.22 325.166C219.521 325.166 216.881 326.571 217.541 326.923Z" fill="white"/>
<path d="M228.762 312.168C228.762 312.87 227.442 313.222 226.121 313.222C224.801 313.222 222.821 312.87 222.161 312.519C221.501 311.114 222.821 310.762 225.461 310.411C226.782 310.411 228.102 310.762 228.762 312.168Z" fill="white"/>
<path d="M774.008 339.218C774.008 341.326 773.347 342.38 770.707 342.38C768.727 342.38 768.727 341.326 768.727 340.624C768.727 339.57 768.067 338.165 771.368 338.165C772.688 338.516 774.008 339.218 774.008 339.218Z" fill="white"/>
<path d="M116.545 128.083C109.944 127.732 109.284 125.624 111.265 122.813C115.225 123.867 115.885 125.975 116.545 128.083Z" fill="white"/>
<path d="M92.7808 436.53C92.1207 437.233 91.4606 437.936 89.4803 437.936C87.5 437.936 85.5197 437.233 86.1798 436.179C86.1798 435.828 88.82 435.477 90.1402 435.477C91.4604 435.125 92.7808 435.828 92.7808 436.53Z" fill="white"/>
<path d="M254.506 266.498C255.166 266.849 257.147 266.849 257.807 267.552C258.467 268.254 257.806 269.308 255.826 269.308C254.506 269.308 253.186 268.957 251.866 268.254C250.545 267.2 251.866 266.849 254.506 266.498Z" fill="white"/>
<path d="M245.265 79.6026C244.605 78.9 243.285 78.5487 243.285 78.1974C243.285 77.1435 241.964 76.0896 245.265 75.7383C245.265 75.7383 246.585 76.7922 246.585 77.1435C245.925 78.1974 245.265 78.9 245.265 79.6026Z" fill="white"/>
<path d="M96.0816 128.083C95.4215 128.434 94.7611 129.137 94.101 129.137C92.1207 129.137 91.461 128.434 92.1211 127.732C92.1211 127.38 93.4415 127.029 94.7617 127.029C95.4218 127.029 95.4215 127.732 96.0816 128.083Z" fill="white"/>
<path d="M97.4014 140.027C100.042 140.379 102.683 140.027 102.683 142.135C102.683 142.486 102.023 142.486 101.363 142.838C97.402 142.838 97.4014 141.081 97.4014 140.027Z" fill="white"/>
<path d="M613.603 434.774C614.923 433.369 617.564 432.667 620.204 433.369C620.864 433.369 620.864 434.423 620.864 434.774C618.224 436.531 616.243 435.126 613.603 434.774Z" fill="white"/>
<path d="M94.1008 352.217C92.1205 351.865 88.8203 352.217 89.4804 350.109C89.4804 349.758 90.1403 349.758 90.1403 349.758C93.4409 349.758 93.4407 351.163 94.1008 352.217Z" fill="white"/>
<path d="M739.022 429.504C742.323 427.748 746.283 428.099 750.244 428.099C746.943 430.207 742.983 429.856 739.022 429.504Z" fill="white"/>
<path d="M787.87 23.3934C788.53 23.0421 789.19 23.0421 790.51 23.3934C790.51 25.1499 790.511 27.2578 791.171 29.0143C787.21 27.2578 787.87 25.1499 787.87 23.3934Z" fill="white"/>
<path d="M197.078 384.186C196.418 383.835 195.757 383.835 195.097 383.483C195.757 383.132 196.418 382.781 197.738 382.781C198.398 382.781 199.057 383.132 199.718 383.483C198.397 383.835 197.738 383.835 197.078 384.186Z" fill="white"/>
<path d="M103.343 347.299C102.023 346.947 100.043 345.893 101.363 345.542C104.664 344.84 102.683 346.596 103.343 347.299Z" fill="white"/>
<path d="M104.663 267.552C105.323 267.552 105.983 267.552 105.983 267.903C105.983 268.254 105.983 268.254 105.323 268.606C104.663 268.606 104.002 268.606 104.002 268.254C104.663 267.903 104.663 267.903 104.663 267.552Z" fill="white"/>
<path d="M106.643 310.06C105.982 310.763 104.002 311.817 103.342 311.114C102.022 309.357 105.322 310.411 106.643 310.06Z" fill="white"/>
<path d="M283.551 454.798C283.551 455.15 283.551 455.15 282.891 455.501C282.231 455.852 281.57 455.501 281.57 454.798L282.23 454.447C282.89 454.447 282.891 454.798 283.551 454.798Z" fill="white"/>
<path d="M801.733 56.4163L801.073 56.065C801.073 55.3623 801.733 55.3624 802.393 55.7137C802.393 55.7137 802.393 56.065 802.393 56.4163C803.053 56.065 802.393 56.065 801.733 56.4163Z" fill="white"/>
<path d="M211.6 320.248C211.6 319.896 212.26 319.545 212.26 319.545C212.92 319.896 212.92 319.896 211.6 320.248Z" fill="white"/>
<path d="M217.541 325.166L218.201 324.463L218.861 324.815L217.541 325.166Z" fill="white"/>
<path d="M781.27 335.354C781.93 335.354 782.589 335.705 782.589 335.705C782.589 336.408 781.93 336.408 781.27 335.354Z" fill="white"/>
<path d="M115.885 229.259C115.225 228.908 115.225 228.557 114.565 228.557C115.225 228.908 115.885 228.908 115.885 229.259Z" fill="white"/>
<path d="M791.171 28.6628C791.831 28.6628 792.491 29.0142 792.491 29.0142C791.831 29.7168 791.831 29.7168 791.171 28.6628Z" fill="white"/>
<path d="M800.412 50.7952C800.412 51.1465 799.752 51.4978 799.752 51.4978C799.092 51.1465 799.092 50.7952 800.412 50.7952Z" fill="white"/>
<path d="M252.526 57.4702C252.526 57.1189 253.187 56.7676 253.187 56.7676C254.507 56.7676 253.846 57.1189 252.526 57.4702Z" fill="white"/>
<path d="M122.486 208.884C121.826 208.884 121.166 208.532 121.166 208.532C121.826 208.181 121.826 208.181 122.486 208.884Z" fill="white"/>
<path d="M189.156 224.341C189.156 223.99 189.816 223.638 189.816 223.638C191.136 223.638 190.476 223.99 189.156 224.341Z" fill="white"/>
<path d="M119.845 352.217C120.505 352.568 120.506 352.568 121.166 352.919C120.506 352.919 119.845 352.568 119.845 352.217Z" fill="white"/>
<path d="M94.1011 352.217C95.4213 352.919 96.0814 353.271 97.4016 353.973C96.0814 353.622 95.4213 352.919 94.1011 352.217Z" fill="white"/>
<path d="M24.1307 441.449C23.4706 441.449 22.1503 441.097 21.4902 441.097C18.8497 440.395 18.1901 439.341 19.5103 437.936C19.5103 437.584 21.4908 437.233 22.1509 437.233C24.7913 437.584 24.7907 438.638 24.7907 439.692C24.1306 440.395 24.1307 441.097 24.1307 441.449Z" fill="white"/>
<path d="M735.722 173.05C733.081 170.591 728.46 168.483 733.081 166.024C736.382 164.619 742.322 164.619 743.643 167.078C746.283 169.889 740.342 170.942 735.722 173.05Z" fill="white"/>
<path d="M740.342 177.266C743.643 177.266 745.624 177.969 745.624 179.374C745.624 181.482 744.303 183.941 739.683 184.292C736.382 184.644 735.061 182.536 734.401 181.131C734.401 179.023 737.042 177.969 740.342 177.266Z" fill="white"/>
<path d="M733.082 199.749C730.441 197.642 733.742 196.236 735.062 195.182C736.383 194.129 739.683 193.426 741.663 194.831C743.644 195.885 741.663 196.939 739.683 197.29C737.702 197.993 737.042 199.749 733.082 199.749Z" fill="white"/>
<path d="M120.505 258.769C119.185 259.12 117.865 259.823 116.545 260.174C115.225 260.525 113.904 260.174 113.904 259.472C113.904 258.418 115.225 258.066 117.205 258.066C118.525 258.066 119.185 258.418 120.505 258.769Z" fill="white"/>
<path d="M69.0176 259.472C69.6777 258.769 69.6774 258.066 70.3375 257.364C72.9779 258.769 70.3378 259.12 69.0176 259.472Z" fill="white"/>
<path d="M69.0175 259.472C68.3574 259.823 68.3569 259.823 67.6968 260.174C67.6968 260.174 68.3574 259.823 69.0175 259.472Z" fill="white"/>
<path d="M109.943 412.993C110.603 410.534 111.263 408.426 117.204 408.777C117.864 408.777 118.525 409.48 118.525 409.831C119.185 413.344 113.904 412.642 109.943 412.993Z" fill="white"/>
<path d="M90.8003 387.699C91.4604 387.699 92.121 388.05 92.121 388.05C92.121 388.753 91.4604 388.401 90.8003 387.699Z" fill="white"/>
<path d="M426.133 403.508C424.813 403.859 424.153 403.508 424.153 402.805C424.153 402.454 424.814 402.103 424.814 402.103C425.474 402.103 426.793 402.103 427.453 402.103C427.453 402.454 426.794 402.805 426.133 403.508Z" fill="white"/>
</svg>
