<svg width="182" height="65" viewBox="0 0 182 65" fill="none" xmlns="http://www.w3.org/2000/svg">
<path d="M172.178 18.8904C173.994 18.7252 175.81 19.7159 177.46 20.0461C180.762 20.7065 181.422 23.1831 181.918 25.8248C182.248 27.3107 181.587 28.7967 179.937 29.292C177.295 30.2826 175.314 32.0988 172.343 32.9243C172.838 34.5754 173.829 35.7311 174.654 37.052C176.8 39.8588 178.121 42.9958 175.315 46.2979C175.149 46.6281 174.819 46.9583 174.819 47.2885C174.819 52.737 170.692 52.737 166.896 53.0672C165.08 53.0672 164.749 53.8927 165.74 55.3787C165.74 55.7089 165.905 55.874 165.905 56.2042C164.584 56.5344 162.934 56.6995 162.769 58.5157C162.603 58.6808 162.438 58.6808 162.273 58.6808C161.448 58.6808 160.457 58.3506 159.632 58.6808C157.486 59.3412 154.845 59.3412 154.184 62.3131C153.689 62.6433 153.194 62.6433 152.534 62.4782C152.203 62.148 151.873 61.4876 151.543 61.3225C148.242 60.8271 144.775 60.1667 141.638 61.6527C140.648 61.9829 139.988 61.1574 139.162 60.8272C138.997 60.662 138.667 60.3318 138.502 60.1667C140.978 57.6901 144.115 56.0391 146.591 53.3974C149.067 50.9208 151.543 48.4442 154.184 46.1328C160.787 40.189 167.226 34.4103 173.333 27.9712C175.48 25.8248 175.15 24.5039 172.673 23.018C169.867 21.3669 169.867 21.3669 167.556 23.5133C165.245 25.6597 162.934 27.806 160.622 29.9524C156 34.4103 151.543 39.1983 146.756 43.326C142.134 47.2885 137.841 51.4161 134.375 56.5344C133.219 58.1855 132.724 59.6714 132.889 61.6527C132.394 61.6527 131.733 61.6527 131.238 61.6527C131.073 61.3225 131.073 60.8272 130.908 60.8272C130.413 60.8272 130.413 61.3225 130.413 61.6527C123.314 61.4876 116.216 62.4782 109.118 62.3131C109.283 60.6621 110.603 59.8365 111.759 58.8459C117.867 53.0672 123.81 47.1234 129.918 41.5098C134.375 37.5473 137.346 32.2639 141.803 28.1363C144.114 26.155 145.765 23.5133 148.076 21.6971C152.203 18.5601 155.505 14.5976 159.302 11.1304C160.787 9.80956 161.613 8.32361 161.283 6.34234C161.613 6.34234 161.778 6.34234 162.108 6.34234L162.273 6.67254L162.438 6.50744L162.108 6.34234C163.099 5.1866 164.089 4.85638 165.41 6.01212C165.905 6.34233 166.4 6.34233 166.73 5.84702C168.216 5.51681 169.537 6.01212 170.692 6.67254C171.353 8.3236 171.848 9.80955 169.041 9.64445C168.381 9.64445 167.556 10.1398 166.896 10.3049C166.73 9.80956 166.73 8.98402 165.905 9.14913C165.74 9.14913 165.74 9.31424 165.575 9.47935C165.41 10.3049 166.235 10.3049 166.73 10.47C167.391 11.4606 165.575 12.9466 167.226 13.607C168.381 14.1023 168.546 14.5976 168.711 15.9185C169.207 17.2393 170.032 19.0555 172.178 18.8904Z" fill="#FAC95D"/>
<path d="M122.654 2.87522C125.626 2.2148 128.432 3.04033 131.238 3.04033C131.568 3.37054 131.734 3.70075 132.064 3.86585C136.521 4.52628 141.143 3.70075 145.6 4.85648C148.242 3.20543 150.388 5.84712 152.864 5.68201C153.029 5.68201 153.359 6.34243 153.524 6.67264C151.708 8.4888 149.727 10.1399 147.911 11.956C143.785 16.0837 139.327 19.8811 135.696 24.3389C130.578 30.4478 124.8 35.8963 119.353 41.5099C114.235 46.7933 108.788 51.7464 103.505 56.8647C101.689 58.6809 100.864 60.8273 101.194 63.3038C94.9209 64.2945 88.6479 64.6247 82.3749 64.4596C79.8987 64.4596 77.4225 65.12 74.9463 64.4596C75.4415 63.7991 75.9368 63.3038 76.432 62.6434C78.2479 60.497 80.8892 59.3413 82.54 57.0298C86.1717 52.0767 91.2892 48.2792 95.086 43.4912C97.8923 40.024 101.359 37.2172 104.33 33.9151C110.604 26.6504 116.546 19.2207 123.315 12.4513C126.286 9.47944 126.286 8.15859 123.315 5.18669C122.984 4.19606 122.819 3.70075 122.654 2.87522Z" fill="#FAC95D"/>
<path d="M12.0508 11.2956C13.7016 7.49817 16.8381 5.1867 20.6349 5.3518C24.2667 5.3518 27.8984 5.5169 31.5301 6.34243C35.1619 7.33306 39.1238 6.67264 42.5905 7.99349C43.2508 8.15859 44.2413 8.15858 44.9016 7.66327C47.708 5.682 50.6793 4.69137 54.146 5.02158C55.6317 5.18669 57.1174 3.70074 58.7682 4.19605C58.438 5.682 57.7777 6.83775 56.7872 7.99349C49.6888 14.9279 43.5809 22.853 36.8127 30.1176C30.3746 37.2172 24.5968 44.812 18.3238 52.0767C15.6825 55.0486 15.8476 56.2043 18.4889 59.3413C18.8191 59.6715 18.9841 60.0017 19.1492 60.3319C15.6825 60.3319 12.3809 60.3319 8.91422 60.1668C5.9428 60.1668 4.62218 59.1762 4.29202 57.36C3.96186 55.2137 5.94282 51.5813 7.59361 50.7558C9.40948 49.9303 11.5556 50.2605 13.5365 48.4443C9.40954 45.8026 4.62222 44.3167 1.65079 40.3542C1.65079 38.2078 2.14603 36.0614 0 34.5755C0.660317 29.6223 1.81585 28.6317 7.09839 28.3015C8.41903 28.4666 9.57458 28.4666 9.57458 26.6504C9.57458 25.1645 9.90474 23.8436 11.2254 22.853C12.0508 22.3577 11.8857 21.2019 11.8857 20.3764C12.7111 20.7066 13.5365 21.367 14.3619 20.3764C15.0222 19.5509 15.8476 19.3858 16.673 20.3764C17.1682 21.0368 17.1683 21.6972 16.5079 22.5228C14.8571 24.6691 15.0222 24.6691 17.3333 25.4947C19.3143 26.1551 21.2952 26.1551 23.1111 25.8249C26.5778 25.1645 27.5682 23.1832 26.9079 18.5602C26.0825 22.3577 22.946 18.5602 21.6254 20.8717L20.9651 20.7066C20.8 19.0556 18.4889 18.3951 18.4889 16.9092C18.3238 14.4326 16.8381 13.6071 14.8571 13.1118C13.5365 13.1118 12.7111 12.1211 12.0508 11.2956ZM31.8603 29.7874C31.3651 29.2921 30.8698 28.9619 30.3745 28.4666C29.5491 27.8062 28.7238 27.4759 28.0635 28.4666C27.5683 29.4572 27.4031 30.6129 28.2285 31.4385C28.8888 32.0989 29.5492 31.6036 30.2095 30.9432C30.7047 30.4478 31.2 30.1176 31.8603 29.7874Z" fill="#FAC95D"/>
<path d="M113.245 2.37977C114.07 2.21466 114.895 2.37976 115.556 2.70997C115.721 3.37039 115.886 3.86572 116.711 3.86572C117.702 3.86572 117.867 3.20529 118.032 2.54487C118.857 2.37976 119.683 2.37976 120.508 2.70997C120.673 4.36103 119.518 5.51677 118.692 6.5074C111.594 14.7627 104.33 22.8529 97.0668 30.943C91.289 37.3821 85.1811 43.491 79.2382 49.5999C77.0922 51.7463 74.9461 53.8927 72.8001 56.0391C70.8191 58.1854 69.1684 60.662 70.6541 63.799C69.6636 63.9641 68.508 64.1292 67.5175 63.9641C60.9144 63.1386 54.3112 63.1386 47.708 62.9735C48.0382 60.9922 50.5144 62.148 51.0096 60.662C52.1652 57.1948 57.2827 56.3693 56.9525 51.9114C56.9525 51.7463 57.6128 51.4161 57.9429 51.4161C58.9334 51.0859 59.7588 50.2604 60.4191 49.4348C65.0414 44.4817 69.4985 39.3634 73.9557 34.08C79.5684 27.1456 85.3462 20.5414 91.6192 14.1023C92.9398 12.7814 94.5906 11.6257 95.7462 9.97462C98.5525 6.01208 98.7176 6.1772 97.0668 2.04956C102.019 2.21467 107.137 2.37977 112.089 2.37977C112.254 3.3704 112.749 3.20529 113.245 2.37977Z" fill="#FAC95D"/>
<path d="M44.4065 63.3038C38.9589 63.4689 33.8414 62.6434 28.724 60.6621C26.4129 59.6715 23.7716 60.6621 21.2954 60.1668C24.1018 56.6996 26.4129 52.9021 29.7145 49.7651C32.6859 47.1234 34.6669 43.6562 37.4733 40.8494C41.2701 36.8869 43.416 31.4384 48.5335 28.6316C49.3589 28.1363 49.8541 27.3108 50.1843 26.4852C50.8446 24.9993 51.8351 23.8436 52.9907 22.6878C57.4478 18.5602 61.2446 13.7721 65.3716 9.47938C66.8573 7.82833 68.5081 6.34238 69.0034 4.0309C70.4891 3.04027 72.305 3.20537 73.9558 3.37047C77.0923 3.37047 80.2288 3.20537 83.0351 1.88452C86.0066 1.88452 88.978 2.04964 91.9495 2.04964C89.8034 5.68196 86.5018 8.32364 83.6955 11.4606C80.3939 15.2581 76.7621 18.5602 73.4605 22.3576C68.8383 27.9712 64.3811 33.5848 59.5938 38.8682C54.6415 44.3166 49.8541 49.9302 45.2319 55.5438C43.5811 58.0204 42.0954 60.497 44.4065 63.3038Z" fill="#FAC95D"/>
<path d="M101.358 63.1387C101.193 60.6621 101.854 58.5157 103.67 56.6996C108.952 51.5813 114.4 46.6281 119.517 41.3448C124.965 35.7312 130.743 30.2827 135.86 24.1738C139.492 19.7159 143.949 15.9185 148.076 11.7909C149.892 9.97471 151.873 8.15856 153.689 6.5075C157.155 4.19603 157.155 4.19603 160.457 6.3424C160.787 6.50751 161.117 6.5075 161.612 6.5075C161.943 8.48877 161.117 9.97472 159.632 11.2956C155.835 14.7628 152.533 18.7253 148.406 21.8623C146.095 23.6785 144.279 26.3202 142.133 28.3014C137.676 32.264 134.704 37.5473 130.247 41.675C123.974 47.2886 118.031 53.2324 112.089 59.0111C111.098 60.0017 109.778 60.8272 109.447 62.4783C106.971 65.4502 104.165 63.9642 101.358 63.1387Z" fill="#FACF71"/>
<path d="M44.4062 63.3039C42.2602 60.4971 43.5809 58.0205 45.3968 55.7091C50.019 49.9304 54.8063 44.4819 59.7587 39.0334C64.546 33.75 69.0031 27.9713 73.6253 22.5229C76.7618 18.7254 80.5587 15.4233 83.8602 11.6259C86.6666 8.48889 89.9682 5.84721 92.1142 2.21489C93.5999 1.71957 95.2507 1.55447 96.7364 2.21489C98.3872 6.34253 98.2221 6.34252 95.4158 10.1399C94.2602 11.791 92.6095 12.9467 91.2888 14.2676C85.1809 20.7067 79.4031 27.476 73.6253 34.2454C69.3332 39.5287 64.711 44.647 60.0888 49.6002C59.4285 50.4257 58.7681 51.2512 57.6126 51.5814C57.2824 51.7465 56.6222 51.9116 56.6222 52.0767C56.9523 56.5346 51.8349 57.3601 50.6793 60.8273C50.1841 62.4784 47.7079 61.3227 47.3778 63.1388C46.3873 63.469 45.3967 63.6341 44.4062 63.3039Z" fill="#FACF71"/>
<path d="M70.4887 63.9643C69.003 60.8273 70.6538 58.3507 72.6347 56.2043C74.6157 53.8928 76.9267 51.9116 79.0728 49.7652C85.0156 43.4912 91.1237 37.3823 96.9014 31.1083C104.165 23.0181 111.428 14.9279 118.527 6.67266C119.517 5.68203 120.508 4.5263 120.343 2.87524C121.168 2.87524 121.828 2.87524 122.489 2.87524C122.489 3.70077 122.819 4.36119 123.479 4.85651C126.451 7.8284 126.451 9.14925 123.479 12.1211C116.711 18.8905 110.768 26.3202 104.495 33.5849C101.524 36.887 98.057 39.6938 95.2506 43.161C91.4538 47.949 86.3363 51.7465 82.7045 56.6996C81.0538 58.846 78.4125 60.1669 76.5966 62.3132C76.1014 62.9736 75.6062 63.469 75.1109 64.1294C73.6252 65.4502 71.9744 64.9549 70.4887 63.9643Z" fill="#FACF71"/>
<path d="M69.0031 4.03093C68.5078 6.34241 66.857 7.99347 65.3713 9.47942C61.2443 13.9373 57.4475 18.7253 52.9904 22.6879C51.8348 23.8436 50.8443 24.9993 50.184 26.4853C49.8538 27.3108 49.3586 28.1363 48.5332 28.6317C43.5808 31.6036 41.2698 36.8869 37.473 40.8495C34.8317 43.6563 32.6856 47.1235 29.7142 49.7652C26.4126 52.7371 24.1015 56.6996 21.2951 60.1668C20.4697 60.497 19.8095 60.497 18.9841 60.3319C18.819 60.0017 18.6539 59.6715 18.3237 59.3413C15.6824 56.2043 15.5174 55.0485 18.1587 52.0766C24.4317 44.9771 30.2095 37.2171 36.6476 30.1176C43.4158 22.853 49.3586 14.7628 56.6221 7.99347C57.6126 7.00283 58.438 5.68198 58.6031 4.19603C59.7587 4.03093 60.5841 3.53561 61.4095 2.54498C62.2349 1.55435 64.2157 0.563714 65.0411 1.71945C66.1967 3.37051 68.0126 2.87519 69.0031 4.03093Z" fill="#FACF71"/>
<path d="M133.054 61.6527C132.889 59.8365 133.384 58.1855 134.539 56.5344C138.006 51.4162 142.298 47.4536 146.92 43.326C151.708 39.1984 156.165 34.4103 160.787 29.9524C163.098 27.8061 165.409 25.6597 167.721 23.5133C170.032 21.367 170.197 21.367 172.838 23.018C175.314 24.504 175.644 25.8248 173.498 27.9712C167.39 34.2452 160.787 40.189 154.349 46.1328C151.708 48.4443 149.232 50.9209 146.755 53.3974C144.279 56.0391 141.143 57.6902 138.666 60.1668C137.016 60.0017 135.86 60.3319 135.53 62.3131C135.035 62.3131 134.54 62.3131 134.044 62.3131C133.879 62.148 133.549 61.9829 133.384 61.8178L133.054 61.6527Z" fill="#FACF71"/>
<path d="M69.0033 4.03092C68.0128 2.87519 66.197 3.3705 65.2065 1.88455C64.3811 0.728809 62.5652 1.55434 61.5747 2.71008C60.7493 3.70071 59.9239 4.19602 58.7684 4.36113C57.1176 3.86581 55.6319 5.35176 54.1462 5.18666C50.6795 4.85645 47.7081 5.84709 44.9018 7.82836C44.4065 8.15857 43.2509 8.32367 42.5906 8.15856C38.9589 6.83772 35.162 7.49814 31.5303 6.50751C32.5207 4.69135 34.5017 4.85645 36.1525 4.69135C38.9588 4.36114 41.6001 3.53561 44.2414 2.54497C46.3874 1.71944 48.8636 1.71945 51.1748 1.55434C55.6319 1.22413 60.089 1.88455 64.5461 0.233492C64.7112 0.0683869 65.0414 -0.096716 65.3715 0.0683895C70.6541 2.54497 76.2668 0.893919 81.7144 1.55434C82.3748 1.55434 83.035 1.71945 83.5303 2.21477C80.5588 3.3705 77.5874 3.70072 74.4509 3.70072C72.3049 3.2054 70.489 3.04029 69.0033 4.03092Z" fill="#FACF71"/>
<path d="M12.0508 11.2957C12.8762 12.1212 13.5366 13.1118 14.8572 13.442C17.0032 13.9373 18.3239 14.7629 18.489 17.2394C18.654 18.7254 20.8001 19.2207 20.9652 21.0369C20.9652 21.202 21.6254 21.3671 21.6254 21.202C22.946 18.8905 25.9175 22.6879 26.908 18.8905C27.5683 23.5135 26.5778 25.3296 23.1112 26.1552C21.1302 26.4854 19.1493 26.6505 17.3334 25.8249C15.0223 24.9994 14.8572 24.9994 16.508 22.853C17.1683 22.0275 17.1683 21.5322 16.673 20.7067C16.0127 19.716 15.1874 19.716 14.362 20.7067C13.5366 21.6973 12.7112 21.0369 11.8858 20.7067C12.0509 19.0556 14.0318 19.2207 14.8572 17.8999C12.7112 16.0837 9.57464 14.7629 12.0508 11.2957Z" fill="#FACF71"/>
<path d="M161.613 6.50732C161.283 6.50732 160.787 6.50732 160.457 6.34222C157.156 4.19584 157.156 4.19584 153.689 6.50732C153.524 6.17711 153.194 5.51669 153.029 5.51669C150.552 5.68179 148.406 3.20521 145.765 4.69116C141.308 3.53542 136.686 4.36095 132.229 3.70053C131.899 3.70053 131.733 3.20521 131.403 2.875C131.733 2.04947 132.394 1.71926 133.219 1.71926C140.978 1.71926 148.737 1.55415 156.33 1.88436C159.632 2.04946 162.933 3.37031 166.235 4.19584C167.06 4.36094 167.06 5.18647 167.06 5.84689C166.73 6.34221 166.07 6.34221 165.74 6.012C164.419 4.85626 163.429 5.18648 162.438 6.34222C162.108 6.50732 161.778 6.50732 161.613 6.50732Z" fill="#FACF71"/>
<path d="M172.177 18.8905C169.866 19.0556 169.206 17.2394 168.876 15.7535C168.711 14.5977 168.546 13.9373 167.39 13.442C165.739 12.7816 167.555 11.2956 166.895 10.305L167.06 10.1399C167.885 9.97478 168.546 9.47947 169.206 9.47947C172.012 9.64458 171.517 8.15862 170.857 6.50757C175.314 6.83778 176.635 8.81904 174.489 12.4514C173.663 13.9373 173.663 16.0837 171.517 16.7441C170.857 17.2394 172.012 18.2301 172.177 18.8905Z" fill="#FACF71"/>
<path d="M141.803 61.8179C145.105 60.497 148.406 61.1575 151.708 61.4877C152.038 61.4877 152.368 62.1481 152.698 62.6434C151.873 64.2945 150.717 65.4502 148.571 64.4596C147.746 64.1294 146.756 63.9643 145.93 64.1294C143.949 64.4596 142.959 63.1387 141.803 61.8179Z" fill="#FACF71"/>
<path d="M154.349 62.4782C155.009 59.5063 157.651 59.5063 159.797 58.8459C160.622 58.5156 161.613 58.8459 162.438 58.8459C159.797 59.8365 157.651 62.6433 154.349 62.4782Z" fill="#FACF71"/>
<path d="M11.886 20.7065C11.886 21.6972 12.051 22.6878 11.2256 23.1831C9.90498 24.1738 9.57482 25.3295 9.57482 26.9806C9.57482 28.6316 8.25419 28.6316 7.09863 28.6316C8.58435 27.3108 8.41923 25.3295 8.91447 23.6784C9.4097 22.0274 10.0701 20.8716 11.886 20.7065Z" fill="#FACF71"/>
<path d="M135.365 62.4783C135.695 60.6621 137.016 60.3319 138.502 60.3319C138.667 60.497 138.997 60.8272 139.162 60.9923C138.667 63.4689 137.181 63.1387 135.365 62.4783Z" fill="#FACF71"/>
<path d="M163.098 58.6809C163.263 56.8647 164.749 56.6996 166.235 56.3694C166.07 58.1855 164.584 58.5158 163.098 58.6809Z" fill="#FACF71"/>
<path d="M118.032 2.54492C117.867 3.37045 117.702 4.03088 116.711 3.86577C115.886 3.86577 115.721 3.20534 115.556 2.71002C116.381 2.71002 117.206 2.54492 118.032 2.54492Z" fill="#FACF71"/>
<path d="M166.07 55.5439C165.079 54.0579 165.409 53.3975 167.225 53.2324C166.895 53.8928 166.895 54.8835 166.07 55.5439Z" fill="#FACF71"/>
<path d="M113.245 2.37979C112.749 3.20532 112.254 3.37042 111.594 2.37979C112.254 1.88447 112.749 1.88447 113.245 2.37979Z" fill="#FACF71"/>
<path d="M130.578 61.6528C130.578 61.3226 130.578 60.8273 131.073 60.8273C131.238 60.8273 131.238 61.4877 131.403 61.6528C131.238 61.6528 130.908 61.6528 130.578 61.6528Z" fill="#FACF71"/>
<path d="M133.219 61.8177C133.384 61.9829 133.715 62.148 133.88 62.3131C133.384 62.4782 133.219 62.3131 133.219 61.8177Z" fill="#FACF71"/>
<path d="M167.06 10.47C166.565 10.3049 165.739 10.3049 165.904 9.47939C165.904 9.31428 166.069 9.31428 166.235 9.14917C167.06 9.14917 167.06 9.8096 167.06 10.47Z" fill="#FACF71"/>
<path d="M162.438 6.50757L162.768 6.67267L162.603 6.83777L162.438 6.50757Z" fill="#FACF71"/>
<path d="M31.8601 29.7874C31.1997 30.1176 30.5394 30.4478 30.2093 30.9431C29.549 31.6035 28.8886 32.0988 28.2283 31.4384C27.4029 30.6129 27.4029 29.4572 28.0633 28.4665C28.7236 27.4759 29.714 27.8061 30.3743 28.4665C30.8695 28.9618 31.3648 29.292 31.8601 29.7874Z" fill="#FACF71"/>
<mask id="path-28-outside-1_308_3674" maskUnits="userSpaceOnUse" x="63" y="18" width="56" height="29" fill="black">
<rect fill="white" x="63" y="18" width="56" height="29"/>
<path d="M71.64 46.144C70.248 46.144 68.916 45.976 67.644 45.64C66.372 45.28 65.256 44.908 64.296 44.524L65.016 37.576L68.04 37.828L68.328 41.824C68.64 41.896 69.06 42.004 69.588 42.148C70.14 42.292 70.752 42.364 71.424 42.364C72.192 42.364 72.888 42.268 73.512 42.076C74.16 41.86 74.676 41.536 75.06 41.104C75.468 40.672 75.672 40.108 75.672 39.412C75.672 38.764 75.504 38.236 75.168 37.828C74.832 37.396 74.328 37 73.656 36.64C73.008 36.256 72.168 35.836 71.136 35.38C70.2 34.948 69.336 34.516 68.544 34.084C67.752 33.628 67.056 33.124 66.456 32.572C65.88 32.02 65.424 31.372 65.088 30.628C64.752 29.86 64.584 28.936 64.584 27.856C64.584 26.464 64.956 25.264 65.7 24.256C66.468 23.248 67.488 22.468 68.76 21.916C70.056 21.364 71.472 21.088 73.008 21.088C74.256 21.088 75.468 21.184 76.644 21.376C77.844 21.568 78.912 21.796 79.848 22.06L80.388 28.9H77.364L75.6 25.084C75.288 25.036 74.904 24.988 74.448 24.94C73.992 24.892 73.56 24.868 73.152 24.868C72.312 24.868 71.616 25 71.064 25.264C70.536 25.504 70.14 25.828 69.876 26.236C69.612 26.644 69.48 27.1 69.48 27.604C69.48 28.084 69.624 28.516 69.912 28.9C70.224 29.26 70.62 29.596 71.1 29.908C71.604 30.196 72.132 30.472 72.684 30.736C73.26 30.976 73.812 31.228 74.34 31.492C75.756 32.164 76.92 32.836 77.832 33.508C78.768 34.18 79.464 34.936 79.92 35.776C80.376 36.616 80.604 37.612 80.604 38.764C80.604 40.108 80.34 41.248 79.812 42.184C79.308 43.12 78.624 43.888 77.76 44.488C76.896 45.064 75.924 45.484 74.844 45.748C73.788 46.012 72.72 46.144 71.64 46.144ZM91.2715 46.144C89.9035 46.144 88.5955 45.832 87.3475 45.208C86.0995 44.56 85.0795 43.588 84.2875 42.292C83.4955 40.996 83.0995 39.364 83.0995 37.396C83.0995 35.284 83.4955 33.568 84.2875 32.248C85.1035 30.904 86.1235 29.92 87.3475 29.296C88.5955 28.648 89.8555 28.324 91.1275 28.324C92.1355 28.324 93.1075 28.504 94.0435 28.864C94.9795 29.2 95.7475 29.74 96.3475 30.484C96.9715 31.204 97.2835 32.128 97.2835 33.256C97.2835 34.264 97.0675 35.128 96.6355 35.848C96.2275 36.568 95.6515 37.156 94.9075 37.612C94.1875 38.068 93.3595 38.404 92.4235 38.62C91.4875 38.836 90.5035 38.932 89.4715 38.908L87.6355 38.872C87.7795 39.952 88.1755 40.864 88.8235 41.608C89.4715 42.352 90.5275 42.724 91.9915 42.724C93.0955 42.724 93.9835 42.52 94.6555 42.112C95.3275 41.68 95.8795 41.26 96.3115 40.852L97.1395 43.984C96.9235 44.272 96.5395 44.584 95.9875 44.92C95.4355 45.256 94.7515 45.544 93.9355 45.784C93.1435 46.024 92.2555 46.144 91.2715 46.144ZM87.6715 35.848L88.8595 35.884C89.3155 35.908 89.7715 35.884 90.2275 35.812C90.7075 35.716 91.1395 35.572 91.5235 35.38C91.9315 35.188 92.2555 34.936 92.4955 34.624C92.7355 34.288 92.8555 33.88 92.8555 33.4C92.8555 32.848 92.6995 32.44 92.3875 32.176C92.0755 31.888 91.6795 31.744 91.1995 31.744C90.6235 31.744 90.0715 31.936 89.5435 32.32C89.0395 32.68 88.6195 33.172 88.2835 33.796C87.9475 34.42 87.7435 35.104 87.6715 35.848ZM99.5912 46L99.1952 43.732L101.211 43.228V22.672H99.3392L98.9432 20.224L104.307 19.468L105.567 20.8V43.156L107.907 43.732V46H99.5912ZM109.822 46L109.426 43.732L111.442 43.228V22.672H109.57L109.174 20.224L114.538 19.468L115.798 20.8V43.156L118.138 43.732V46H109.822Z"/>
</mask>
<path d="M71.64 46.144C70.248 46.144 68.916 45.976 67.644 45.64C66.372 45.28 65.256 44.908 64.296 44.524L65.016 37.576L68.04 37.828L68.328 41.824C68.64 41.896 69.06 42.004 69.588 42.148C70.14 42.292 70.752 42.364 71.424 42.364C72.192 42.364 72.888 42.268 73.512 42.076C74.16 41.86 74.676 41.536 75.06 41.104C75.468 40.672 75.672 40.108 75.672 39.412C75.672 38.764 75.504 38.236 75.168 37.828C74.832 37.396 74.328 37 73.656 36.64C73.008 36.256 72.168 35.836 71.136 35.38C70.2 34.948 69.336 34.516 68.544 34.084C67.752 33.628 67.056 33.124 66.456 32.572C65.88 32.02 65.424 31.372 65.088 30.628C64.752 29.86 64.584 28.936 64.584 27.856C64.584 26.464 64.956 25.264 65.7 24.256C66.468 23.248 67.488 22.468 68.76 21.916C70.056 21.364 71.472 21.088 73.008 21.088C74.256 21.088 75.468 21.184 76.644 21.376C77.844 21.568 78.912 21.796 79.848 22.06L80.388 28.9H77.364L75.6 25.084C75.288 25.036 74.904 24.988 74.448 24.94C73.992 24.892 73.56 24.868 73.152 24.868C72.312 24.868 71.616 25 71.064 25.264C70.536 25.504 70.14 25.828 69.876 26.236C69.612 26.644 69.48 27.1 69.48 27.604C69.48 28.084 69.624 28.516 69.912 28.9C70.224 29.26 70.62 29.596 71.1 29.908C71.604 30.196 72.132 30.472 72.684 30.736C73.26 30.976 73.812 31.228 74.34 31.492C75.756 32.164 76.92 32.836 77.832 33.508C78.768 34.18 79.464 34.936 79.92 35.776C80.376 36.616 80.604 37.612 80.604 38.764C80.604 40.108 80.34 41.248 79.812 42.184C79.308 43.12 78.624 43.888 77.76 44.488C76.896 45.064 75.924 45.484 74.844 45.748C73.788 46.012 72.72 46.144 71.64 46.144ZM91.2715 46.144C89.9035 46.144 88.5955 45.832 87.3475 45.208C86.0995 44.56 85.0795 43.588 84.2875 42.292C83.4955 40.996 83.0995 39.364 83.0995 37.396C83.0995 35.284 83.4955 33.568 84.2875 32.248C85.1035 30.904 86.1235 29.92 87.3475 29.296C88.5955 28.648 89.8555 28.324 91.1275 28.324C92.1355 28.324 93.1075 28.504 94.0435 28.864C94.9795 29.2 95.7475 29.74 96.3475 30.484C96.9715 31.204 97.2835 32.128 97.2835 33.256C97.2835 34.264 97.0675 35.128 96.6355 35.848C96.2275 36.568 95.6515 37.156 94.9075 37.612C94.1875 38.068 93.3595 38.404 92.4235 38.62C91.4875 38.836 90.5035 38.932 89.4715 38.908L87.6355 38.872C87.7795 39.952 88.1755 40.864 88.8235 41.608C89.4715 42.352 90.5275 42.724 91.9915 42.724C93.0955 42.724 93.9835 42.52 94.6555 42.112C95.3275 41.68 95.8795 41.26 96.3115 40.852L97.1395 43.984C96.9235 44.272 96.5395 44.584 95.9875 44.92C95.4355 45.256 94.7515 45.544 93.9355 45.784C93.1435 46.024 92.2555 46.144 91.2715 46.144ZM87.6715 35.848L88.8595 35.884C89.3155 35.908 89.7715 35.884 90.2275 35.812C90.7075 35.716 91.1395 35.572 91.5235 35.38C91.9315 35.188 92.2555 34.936 92.4955 34.624C92.7355 34.288 92.8555 33.88 92.8555 33.4C92.8555 32.848 92.6995 32.44 92.3875 32.176C92.0755 31.888 91.6795 31.744 91.1995 31.744C90.6235 31.744 90.0715 31.936 89.5435 32.32C89.0395 32.68 88.6195 33.172 88.2835 33.796C87.9475 34.42 87.7435 35.104 87.6715 35.848ZM99.5912 46L99.1952 43.732L101.211 43.228V22.672H99.3392L98.9432 20.224L104.307 19.468L105.567 20.8V43.156L107.907 43.732V46H99.5912ZM109.822 46L109.426 43.732L111.442 43.228V22.672H109.57L109.174 20.224L114.538 19.468L115.798 20.8V43.156L118.138 43.732V46H109.822Z" fill="#54A044"/>
<path d="M67.644 45.64L67.5078 46.1212L67.5163 46.1234L67.644 45.64ZM64.296 44.524L63.7987 44.4725L63.7597 44.848L64.1103 44.9882L64.296 44.524ZM65.016 37.576L65.0575 37.0777L64.5692 37.037L64.5187 37.5245L65.016 37.576ZM68.04 37.828L68.5387 37.7921L68.5079 37.3653L68.0815 37.3297L68.04 37.828ZM68.328 41.824L67.8293 41.8599L67.8558 42.2282L68.2156 42.3112L68.328 41.824ZM69.588 42.148L69.4564 42.6304L69.4618 42.6318L69.588 42.148ZM73.512 42.076L73.6591 42.554L73.6701 42.5503L73.512 42.076ZM75.06 41.104L74.6965 40.7607L74.6913 40.7662L74.6863 40.7718L75.06 41.104ZM75.168 37.828L74.7732 38.1351L74.782 38.1459L75.168 37.828ZM73.656 36.64L73.4011 37.0701L73.4104 37.0756L73.4199 37.0807L73.656 36.64ZM71.136 35.38L70.9264 35.834L70.9339 35.8373L71.136 35.38ZM68.544 34.084L68.2945 34.5174L68.3046 34.5229L68.544 34.084ZM66.456 32.572L66.11 32.9331L66.1175 32.94L66.456 32.572ZM65.088 30.628L64.6299 30.8284L64.6323 30.8338L65.088 30.628ZM65.7 24.256L65.3022 23.9529L65.2977 23.9591L65.7 24.256ZM68.76 21.916L68.5641 21.456L68.561 21.4573L68.76 21.916ZM76.644 21.376L76.5634 21.8695L76.565 21.8697L76.644 21.376ZM79.848 22.06L80.3465 22.0206L80.319 21.6733L79.9837 21.5788L79.848 22.06ZM80.388 28.9V29.4H80.929L80.8864 28.8606L80.388 28.9ZM77.364 28.9L76.9101 29.1098L77.0443 29.4H77.364V28.9ZM75.6 25.084L76.0539 24.8742L75.9413 24.6306L75.676 24.5898L75.6 25.084ZM74.448 24.94L74.5003 24.4427H74.5003L74.448 24.94ZM71.064 25.264L71.2709 25.7193L71.2797 25.7151L71.064 25.264ZM69.876 26.236L70.2958 26.5076H70.2958L69.876 26.236ZM69.912 28.9L69.512 29.2L69.5226 29.2141L69.5342 29.2275L69.912 28.9ZM71.1 29.908L70.8275 30.3272L70.8395 30.335L70.8519 30.3421L71.1 29.908ZM72.684 30.736L72.4683 31.1871L72.4798 31.1926L72.4917 31.1975L72.684 30.736ZM74.34 31.492L74.1163 31.9393L74.1256 31.9437L74.34 31.492ZM77.832 33.508L77.5354 33.9106L77.5404 33.9142L77.832 33.508ZM79.812 42.184L79.3764 41.9383L79.3718 41.9469L79.812 42.184ZM77.76 44.488L78.0374 44.9041L78.0452 44.8987L77.76 44.488ZM74.844 45.748L74.7253 45.2623L74.7227 45.2629L74.844 45.748ZM71.64 45.644C70.2886 45.644 68.9997 45.481 67.7717 45.1566L67.5163 46.1234C68.8323 46.471 70.2074 46.644 71.64 46.644V45.644ZM67.7802 45.1589C66.5206 44.8024 65.4218 44.4358 64.4817 44.0598L64.1103 44.9882C65.0902 45.3802 66.2234 45.7576 67.5078 46.1211L67.7802 45.1589ZM64.7933 44.5755L65.5133 37.6275L64.5187 37.5245L63.7987 44.4725L64.7933 44.5755ZM64.9745 38.0743L67.9985 38.3263L68.0815 37.3297L65.0575 37.0777L64.9745 38.0743ZM67.5413 37.8639L67.8293 41.8599L68.8267 41.7881L68.5387 37.7921L67.5413 37.8639ZM68.2156 42.3112C68.5182 42.381 68.931 42.4871 69.4564 42.6304L69.7196 41.6656C69.189 41.5209 68.7618 41.411 68.4404 41.3368L68.2156 42.3112ZM69.4618 42.6318C70.0615 42.7883 70.7167 42.864 71.424 42.864V41.864C70.7873 41.864 70.2185 41.7957 69.7142 41.6642L69.4618 42.6318ZM71.424 42.864C72.2333 42.864 72.9799 42.7629 73.659 42.5539L73.365 41.5981C72.7961 41.7731 72.1507 41.864 71.424 41.864V42.864ZM73.6701 42.5503C74.386 42.3117 74.9817 41.9446 75.4337 41.4362L74.6863 40.7718C74.3703 41.1274 73.934 41.4083 73.3539 41.6017L73.6701 42.5503ZM75.4235 41.4473C75.934 40.9068 76.172 40.2123 76.172 39.412H75.172C75.172 40.0037 75.002 40.4372 74.6965 40.7607L75.4235 41.4473ZM76.172 39.412C76.172 38.6751 75.9792 38.0266 75.554 37.5101L74.782 38.1459C75.0288 38.4454 75.172 38.8529 75.172 39.412H76.172ZM75.5627 37.521C75.1704 37.0167 74.6031 36.5802 73.8921 36.1993L73.4199 37.0807C74.0529 37.4198 74.4936 37.7753 74.7733 38.135L75.5627 37.521ZM73.9109 36.2099C73.2397 35.8121 72.3802 35.3831 71.3381 34.9227L70.9339 35.8373C71.9558 36.2889 72.7763 36.6999 73.4011 37.0701L73.9109 36.2099ZM71.3455 34.926C70.4183 34.4981 69.5644 34.071 68.7834 33.6451L68.3046 34.5229C69.1076 34.961 69.9817 35.3979 70.9265 35.834L71.3455 34.926ZM68.7935 33.6507C68.0297 33.2109 67.3643 32.7282 66.7945 32.204L66.1175 32.94C66.7477 33.5198 67.4743 34.0451 68.2945 34.5173L68.7935 33.6507ZM66.802 32.211C66.2732 31.7043 65.854 31.1093 65.5437 30.4222L64.6323 30.8338C64.994 31.6347 65.4868 32.3357 66.11 32.933L66.802 32.211ZM65.5461 30.4276C65.2445 29.7382 65.084 28.8861 65.084 27.856H64.084C64.084 28.9859 64.2595 29.9818 64.6299 30.8284L65.5461 30.4276ZM65.084 27.856C65.084 26.5584 65.4288 25.4654 66.1023 24.5529L65.2977 23.9591C64.4832 25.0626 64.084 26.3696 64.084 27.856H65.084ZM66.0977 24.559C66.8091 23.6253 67.7579 22.8959 68.959 22.3747L68.561 21.4573C67.2181 22.0401 66.1269 22.8707 65.3023 23.953L66.0977 24.559ZM68.9559 22.376C70.1846 21.8527 71.5332 21.588 73.008 21.588V20.588C71.4108 20.588 69.9274 20.8753 68.5641 21.456L68.9559 22.376ZM73.008 21.588C74.2303 21.588 75.4153 21.682 76.5634 21.8695L76.7246 20.8825C75.5207 20.686 74.2817 20.588 73.008 20.588V21.588ZM76.565 21.8697C77.7504 22.0594 78.7988 22.2836 79.7123 22.5412L79.9837 21.5788C79.0252 21.3084 77.9376 21.0766 76.723 20.8823L76.565 21.8697ZM79.3496 22.0993L79.8896 28.9394L80.8864 28.8606L80.3465 22.0206L79.3496 22.0993ZM80.388 28.4H77.364V29.4H80.388V28.4ZM77.8179 28.6902L76.0539 24.8742L75.1461 25.2938L76.9101 29.1098L77.8179 28.6902ZM75.676 24.5898C75.3535 24.5402 74.9611 24.4912 74.5003 24.4427L74.3957 25.4373C74.8469 25.4848 75.2225 25.5318 75.524 25.5782L75.676 24.5898ZM74.5003 24.4427C74.029 24.3931 73.5795 24.368 73.152 24.368V25.368C73.5405 25.368 73.955 25.3909 74.3957 25.4373L74.5003 24.4427ZM73.152 24.368C72.2636 24.368 71.4879 24.507 70.8483 24.8129L71.2797 25.7151C71.7441 25.493 72.3604 25.368 73.152 25.368V24.368ZM70.8571 24.8088C70.2591 25.0806 69.7815 25.4617 69.4562 25.9644L70.2958 26.5076C70.4985 26.1943 70.8129 25.9274 71.2709 25.7192L70.8571 24.8088ZM69.4562 25.9644C69.1378 26.4564 68.98 27.0074 68.98 27.604H69.98C69.98 27.1926 70.0862 26.8316 70.2958 26.5076L69.4562 25.9644ZM68.98 27.604C68.98 28.1922 69.1591 28.7295 69.512 29.2L70.312 28.6C70.0889 28.3025 69.98 27.9758 69.98 27.604H68.98ZM69.5342 29.2275C69.8822 29.6291 70.3159 29.9947 70.8275 30.3272L71.3725 29.4888C70.9241 29.1973 70.5658 28.8909 70.2898 28.5725L69.5342 29.2275ZM70.8519 30.3421C71.3671 30.6365 71.9059 30.9181 72.4683 31.1871L72.8997 30.2849C72.3581 30.0259 71.8409 29.7555 71.3481 29.4739L70.8519 30.3421ZM72.4917 31.1975C73.0577 31.4334 73.5992 31.6806 74.1164 31.9392L74.5636 31.0448C74.0248 30.7754 73.4623 30.5186 72.8763 30.2745L72.4917 31.1975ZM74.1256 31.9437C75.5228 32.6068 76.6569 33.2632 77.5354 33.9105L78.1286 33.1055C77.1831 32.4088 75.9892 31.7212 74.5544 31.0403L74.1256 31.9437ZM77.5404 33.9142C78.4275 34.5511 79.0672 35.2531 79.4806 36.0145L80.3594 35.5375C79.8608 34.6189 79.1085 33.8089 78.1236 33.1018L77.5404 33.9142ZM79.4806 36.0145C79.8894 36.7677 80.104 37.6783 80.104 38.764H81.104C81.104 37.5457 80.8626 36.4643 80.3594 35.5375L79.4806 36.0145ZM80.104 38.764C80.104 40.0432 79.8529 41.0939 79.3765 41.9383L80.2475 42.4297C80.8271 41.4021 81.104 40.1728 81.104 38.764H80.104ZM79.3718 41.9469C78.9047 42.8144 78.2735 43.5227 77.4748 44.0773L78.0452 44.8987C78.9745 44.2533 79.7113 43.4256 80.2522 42.421L79.3718 41.9469ZM77.4827 44.072C76.6704 44.6135 75.7528 45.0111 74.7253 45.2623L74.9627 46.2337C76.0952 45.9569 77.1216 45.5145 78.0374 44.904L77.4827 44.072ZM74.7227 45.2629C73.7061 45.5171 72.6788 45.644 71.64 45.644V46.644C72.7612 46.644 73.8699 46.5069 74.9653 46.2331L74.7227 45.2629ZM87.3475 45.208L87.1171 45.6518L87.1239 45.6552L87.3475 45.208ZM84.2875 42.292L84.7142 42.0313L84.2875 42.292ZM84.2875 32.248L83.8601 31.9885L83.8588 31.9908L84.2875 32.248ZM87.3475 29.296L87.5746 29.7415L87.5779 29.7397L87.3475 29.296ZM94.0435 28.864L93.864 29.3308L93.8746 29.3346L94.0435 28.864ZM96.3475 30.484L95.9583 30.7979L95.9639 30.8048L95.9697 30.8115L96.3475 30.484ZM96.6355 35.848L96.2067 35.5907L96.2005 35.6015L96.6355 35.848ZM94.9075 37.612L94.6462 37.1857L94.64 37.1896L94.9075 37.612ZM89.4715 38.908L89.4832 38.4081L89.4813 38.4081L89.4715 38.908ZM87.6355 38.872L87.6453 38.3721L87.0629 38.3607L87.1399 38.9381L87.6355 38.872ZM88.8235 41.608L89.2006 41.2796L88.8235 41.608ZM94.6555 42.112L94.9151 42.5395L94.9259 42.5326L94.6555 42.112ZM96.3115 40.852L96.7949 40.7242L96.5799 39.9108L95.9682 40.4885L96.3115 40.852ZM97.1395 43.984L97.5395 44.284L97.6848 44.0903L97.6229 43.8562L97.1395 43.984ZM95.9875 44.92L96.2475 45.3471L95.9875 44.92ZM93.9355 45.784L93.7944 45.3043L93.7905 45.3055L93.9355 45.784ZM87.6715 35.848L87.1739 35.7998L87.1224 36.3316L87.6564 36.3478L87.6715 35.848ZM88.8595 35.884L88.8858 35.3846L88.8747 35.3842L88.8595 35.884ZM90.2275 35.812L90.3055 36.3059L90.3156 36.3043L90.3256 36.3023L90.2275 35.812ZM91.5235 35.38L91.3106 34.9275L91.2999 34.9328L91.5235 35.38ZM92.4955 34.624L92.8918 34.9289L92.8972 34.9218L92.9024 34.9146L92.4955 34.624ZM92.3875 32.176L92.0484 32.5434L92.0563 32.5507L92.0646 32.5577L92.3875 32.176ZM89.5435 32.32L89.8342 32.7269L89.8376 32.7244L89.5435 32.32ZM91.2715 45.644C89.9827 45.644 88.7511 45.3508 87.5711 44.7608L87.1239 45.6552C88.4399 46.3132 89.8243 46.644 91.2715 46.644V45.644ZM87.5779 44.7643C86.4173 44.1616 85.4626 43.256 84.7142 42.0313L83.8609 42.5527C84.6965 43.92 85.7818 44.9584 87.1171 45.6517L87.5779 44.7643ZM84.7142 42.0313C83.9824 40.8338 83.5995 39.2987 83.5995 37.396H82.5995C82.5995 39.4293 83.0087 41.1582 83.8609 42.5527L84.7142 42.0313ZM83.5995 37.396C83.5995 35.3422 83.9851 33.7238 84.7163 32.5052L83.8588 31.9908C83.0059 33.4122 82.5995 35.2258 82.5995 37.396H83.5995ZM84.7149 32.5075C85.4898 31.2312 86.4448 30.3174 87.5746 29.7415L87.1204 28.8505C85.8023 29.5225 84.7172 30.5768 83.8601 31.9885L84.7149 32.5075ZM87.5779 29.7397C88.7624 29.1247 89.9439 28.824 91.1275 28.824V27.824C89.7671 27.824 88.4287 28.1713 87.1171 28.8523L87.5779 29.7397ZM91.1275 28.824C92.0745 28.824 92.9856 28.9928 93.864 29.3307L94.223 28.3973C93.2294 28.0152 92.1966 27.824 91.1275 27.824V28.824ZM93.8746 29.3346C94.7278 29.6409 95.4184 30.1283 95.9583 30.7979L96.7367 30.1701C96.0767 29.3517 95.2312 28.7591 94.2125 28.3934L93.8746 29.3346ZM95.9697 30.8115C96.5009 31.4244 96.7835 32.225 96.7835 33.256H97.7835C97.7835 32.031 97.4422 30.9836 96.7254 30.1565L95.9697 30.8115ZM96.7835 33.256C96.7835 34.1916 96.5836 34.9627 96.2068 35.5908L97.0643 36.1052C97.5515 35.2933 97.7835 34.3364 97.7835 33.256H96.7835ZM96.2005 35.6015C95.8366 36.2438 95.3221 36.7715 94.6463 37.1857L95.1688 38.0383C95.9809 37.5405 96.6185 36.8922 97.0705 36.0945L96.2005 35.6015ZM94.64 37.1896C93.9733 37.6118 93.199 37.9279 92.3111 38.1328L92.536 39.1072C93.52 38.8801 94.4017 38.5242 95.1751 38.0344L94.64 37.1896ZM92.3111 38.1328C91.4187 38.3388 90.4765 38.4312 89.4832 38.4081L89.4599 39.4079C90.5305 39.4328 91.5564 39.3333 92.536 39.1072L92.3111 38.1328ZM89.4813 38.4081L87.6453 38.3721L87.6257 39.3719L89.4617 39.4079L89.4813 38.4081ZM87.1399 38.9381C87.2955 40.1047 87.7275 41.1108 88.4465 41.9364L89.2006 41.2796C88.6236 40.6172 88.2636 39.7993 88.1311 38.8059L87.1399 38.9381ZM88.4465 41.9364C89.2278 42.8335 90.4539 43.224 91.9915 43.224V42.224C90.6011 42.224 89.7153 41.8705 89.2006 41.2796L88.4465 41.9364ZM91.9915 43.224C93.1518 43.224 94.1393 43.0104 94.915 42.5394L94.396 41.6846C93.8277 42.0296 93.0393 42.224 91.9915 42.224V43.224ZM94.9259 42.5326C95.6157 42.0892 96.1942 41.6506 96.6548 41.2155L95.9682 40.4885C95.5649 40.8694 95.0394 41.2708 94.3852 41.6914L94.9259 42.5326ZM95.8281 40.9798L96.6561 44.1118L97.6229 43.8562L96.7949 40.7242L95.8281 40.9798ZM96.7395 43.684C96.5808 43.8956 96.2615 44.1679 95.7276 44.4929L96.2475 45.3471C96.8176 45.0001 97.2663 44.6484 97.5395 44.284L96.7395 43.684ZM95.7276 44.4929C95.2223 44.8004 94.581 45.073 93.7944 45.3043L94.0766 46.2637C94.922 46.015 95.6488 45.7116 96.2475 45.3471L95.7276 44.4929ZM93.7905 45.3055C93.0534 45.5288 92.2154 45.644 91.2715 45.644V46.644C92.2957 46.644 93.2336 46.5192 94.0805 46.2625L93.7905 45.3055ZM87.6564 36.3478L88.8444 36.3838L88.8747 35.3842L87.6867 35.3482L87.6564 36.3478ZM88.8333 36.3833C89.3245 36.4092 89.8154 36.3833 90.3055 36.3059L90.1495 35.3181C89.7276 35.3847 89.3066 35.4068 88.8858 35.3847L88.8333 36.3833ZM90.3256 36.3023C90.8432 36.1988 91.3183 36.0416 91.7471 35.8272L91.2999 34.9328C90.9608 35.1024 90.5719 35.2332 90.1295 35.3217L90.3256 36.3023ZM91.7364 35.8324C92.2059 35.6115 92.5967 35.3126 92.8918 34.9289L92.0992 34.3191C91.9144 34.5594 91.6572 34.7645 91.3106 34.9276L91.7364 35.8324ZM92.9024 34.9146C93.2124 34.4806 93.3555 33.9667 93.3555 33.4H92.3555C92.3555 33.7933 92.2587 34.0954 92.0887 34.3334L92.9024 34.9146ZM93.3555 33.4C93.3555 32.7554 93.1706 32.1836 92.7105 31.7943L92.0646 32.5577C92.2285 32.6964 92.3555 32.9406 92.3555 33.4H93.3555ZM92.7267 31.8086C92.3101 31.4241 91.7876 31.244 91.1995 31.244V32.244C91.5715 32.244 91.841 32.3519 92.0484 32.5434L92.7267 31.8086ZM91.1995 31.244C90.504 31.244 89.851 31.4781 89.2494 31.9156L89.8376 32.7244C90.292 32.3939 90.743 32.244 91.1995 32.244V31.244ZM89.2529 31.9131C88.6783 32.3236 88.2103 32.8774 87.8433 33.5589L88.7238 34.033C89.0288 33.4666 89.4008 33.0364 89.8342 32.7269L89.2529 31.9131ZM87.8433 33.5589C87.4741 34.2446 87.2519 34.9934 87.1739 35.7998L88.1692 35.8962C88.2352 35.2146 88.421 34.5954 88.7238 34.033L87.8433 33.5589ZM99.5912 46L99.0986 46.086L99.1709 46.5H99.5912V46ZM99.1952 43.732L99.0739 43.2469L98.6226 43.3598L98.7026 43.818L99.1952 43.732ZM101.211 43.228L101.332 43.7131L101.711 43.6184V43.228H101.211ZM101.211 22.672H101.711V22.172H101.211V22.672ZM99.3392 22.672L98.8456 22.7518L98.9136 23.172H99.3392V22.672ZM98.9432 20.224L98.8734 19.7289L98.3681 19.8001L98.4496 20.3038L98.9432 20.224ZM104.307 19.468L104.67 19.1244L104.493 18.9369L104.237 18.9729L104.307 19.468ZM105.567 20.8H106.067V20.601L105.93 20.4564L105.567 20.8ZM105.567 43.156H105.067V43.5478L105.448 43.6415L105.567 43.156ZM107.907 43.732H108.407V43.3402L108.027 43.2465L107.907 43.732ZM107.907 46V46.5H108.407V46H107.907ZM100.084 45.914L99.6877 43.646L98.7026 43.818L99.0986 46.086L100.084 45.914ZM99.3165 44.2171L101.332 43.7131L101.09 42.7429L99.0739 43.2469L99.3165 44.2171ZM101.711 43.228V22.672H100.711V43.228H101.711ZM101.211 22.172H99.3392V23.172H101.211V22.172ZM99.8328 22.5922L99.4368 20.1442L98.4496 20.3038L98.8456 22.7518L99.8328 22.5922ZM99.013 20.7191L104.377 19.9631L104.237 18.9729L98.8734 19.7289L99.013 20.7191ZM103.944 19.8116L105.204 21.1436L105.93 20.4564L104.67 19.1244L103.944 19.8116ZM105.067 20.8V43.156H106.067V20.8H105.067ZM105.448 43.6415L107.788 44.2175L108.027 43.2465L105.687 42.6705L105.448 43.6415ZM107.407 43.732V46H108.407V43.732H107.407ZM107.907 45.5H99.5912V46.5H107.907V45.5ZM109.822 46L109.329 46.086L109.401 46.5H109.822V46ZM109.426 43.732L109.304 43.2469L108.853 43.3598L108.933 43.818L109.426 43.732ZM111.442 43.228L111.563 43.7131L111.942 43.6184V43.228H111.442ZM111.442 22.672H111.942V22.172H111.442V22.672ZM109.57 22.672L109.076 22.7518L109.144 23.172H109.57V22.672ZM109.174 20.224L109.104 19.7289L108.599 19.8001L108.68 20.3038L109.174 20.224ZM114.538 19.468L114.901 19.1244L114.723 18.9369L114.468 18.9729L114.538 19.468ZM115.798 20.8H116.298V20.601L116.161 20.4564L115.798 20.8ZM115.798 43.156H115.298V43.5478L115.678 43.6415L115.798 43.156ZM118.138 43.732H118.638V43.3402L118.257 43.2465L118.138 43.732ZM118.138 46V46.5H118.638V46H118.138ZM110.314 45.914L109.918 43.646L108.933 43.818L109.329 46.086L110.314 45.914ZM109.547 44.2171L111.563 43.7131L111.32 42.7429L109.304 43.2469L109.547 44.2171ZM111.942 43.228V22.672H110.942V43.228H111.942ZM111.442 22.172H109.57V23.172H111.442V22.172ZM110.063 22.5922L109.667 20.1442L108.68 20.3038L109.076 22.7518L110.063 22.5922ZM109.243 20.7191L114.607 19.9631L114.468 18.9729L109.104 19.7289L109.243 20.7191ZM114.174 19.8116L115.434 21.1436L116.161 20.4564L114.901 19.1244L114.174 19.8116ZM115.298 20.8V43.156H116.298V20.8H115.298ZM115.678 43.6415L118.018 44.2175L118.257 43.2465L115.917 42.6705L115.678 43.6415ZM117.638 43.732V46H118.638V43.732H117.638ZM118.138 45.5H109.822V46.5H118.138V45.5Z" fill="black" mask="url(#path-28-outside-1_308_3674)"/>
</svg>
