<svg width="226" height="48" viewBox="0 0 226 48" fill="none" xmlns="http://www.w3.org/2000/svg">
<path d="M42.433 6.45816C57.4154 6.21406 73.215 5.84785 89.0147 5.7258C97.4594 5.60375 105.904 5.60379 114.349 5.23763C120.886 4.99353 127.424 4.5053 134.234 4.38325C151.669 3.77298 169.103 3.40681 186.809 3.52886C196.616 3.52886 206.15 3.2848 215.957 3.0407C218.409 3.0407 221.678 2.67449 222.495 4.13913C223.584 5.60376 226.581 6.82432 223.857 8.89922C217.864 13.5372 211.326 17.9311 204.243 22.2029C202.064 23.5455 202.609 24.3999 204.243 25.8645C209.419 30.5025 217.591 34.2862 223.857 38.5581C225.764 39.7786 225.764 40.6329 223.857 41.6094C222.767 42.2196 221.405 42.7079 220.86 43.4402C220.316 44.2945 218.953 44.5386 217.319 44.4166C213.233 44.2945 209.147 45.1489 205.061 45.0268C202.881 45.0268 200.702 45.0268 198.795 45.6371C197.433 46.1253 195.799 46.0033 194.437 46.0033C179.999 46.0033 165.561 46.1253 150.851 46.1253C141.59 46.1253 132.6 46.3694 123.611 46.4915C108.083 46.7356 92.2837 46.4915 76.484 46.7356C65.5877 46.8577 54.4188 47.1017 43.5225 47.4679C40.2536 47.59 36.9848 47.3459 33.7159 47.3459C26.9056 47.3459 20.3678 48.2002 13.5576 47.9561C11.6507 47.8341 9.74391 47.9561 7.83705 47.712C4.56815 47.4679 2.66133 46.2474 2.93374 44.7827C4.29578 39.1683 4.02337 33.5539 2.93374 27.9394C2.11651 24.1558 2.93364 20.3722 1.29919 16.5885C0.209554 14.3916 0.20952 12.1946 0.754337 9.99765C1.02675 8.77712 2.11641 8.41101 4.02327 8.28895C5.93013 8.1669 7.83709 7.67869 9.74395 7.67869C20.0955 7.80074 30.447 5.96995 42.433 6.45816Z" fill="#FAC95D"/>
<path d="M78.308 35.108C77.18 35.108 76.148 34.904 75.212 34.496C74.3 34.088 73.532 33.572 72.908 32.948C72.308 32.3 71.876 31.664 71.612 31.04L76.22 29.276L77.156 31.616C77.3 31.64 77.492 31.664 77.732 31.688C77.996 31.712 78.26 31.724 78.524 31.724C78.764 31.724 79.016 31.676 79.28 31.58C79.568 31.46 79.808 31.28 80 31.04C80.216 30.8 80.324 30.476 80.324 30.068C80.324 29.564 80.108 29.18 79.676 28.916C79.268 28.628 78.8 28.4 78.272 28.232C77.744 28.064 77.312 27.896 76.976 27.728C75.296 27.056 74.12 26.288 73.448 25.424C72.776 24.536 72.44 23.576 72.44 22.544C72.44 21.584 72.716 20.708 73.268 19.916C73.82 19.124 74.564 18.5 75.5 18.044C76.436 17.564 77.492 17.324 78.668 17.324C79.844 17.324 80.84 17.516 81.656 17.9C82.472 18.284 83.132 18.752 83.636 19.304C84.164 19.856 84.548 20.384 84.788 20.888L80.216 22.724L79.352 20.888C79.352 20.888 79.268 20.864 79.1 20.816C78.956 20.744 78.752 20.708 78.488 20.708C78.128 20.708 77.828 20.768 77.588 20.888C77.372 20.984 77.204 21.14 77.084 21.356C76.964 21.548 76.904 21.788 76.904 22.076C76.904 22.46 77.12 22.796 77.552 23.084C78.008 23.372 78.572 23.66 79.244 23.948C79.94 24.212 80.636 24.536 81.332 24.92C82.22 25.376 83 25.976 83.672 26.72C84.368 27.44 84.716 28.4 84.716 29.6C84.716 30.776 84.416 31.784 83.816 32.624C83.216 33.44 82.424 34.064 81.44 34.496C80.48 34.904 79.436 35.108 78.308 35.108ZM95.0879 35.144C93.7199 35.144 92.4119 34.832 91.1639 34.208C89.9159 33.56 88.8959 32.588 88.1039 31.292C87.3119 29.996 86.9159 28.364 86.9159 26.396C86.9159 24.284 87.3119 22.568 88.1039 21.248C88.9199 19.904 89.9399 18.92 91.1639 18.296C92.4119 17.648 93.6719 17.324 94.9439 17.324C95.9519 17.324 96.9239 17.504 97.8599 17.864C98.7959 18.2 99.5639 18.74 100.164 19.484C100.788 20.204 101.1 21.128 101.1 22.256C101.1 23.264 100.884 24.128 100.452 24.848C100.044 25.568 99.4679 26.156 98.7239 26.612C98.0039 27.068 97.1759 27.404 96.2399 27.62C95.3039 27.836 94.3199 27.932 93.2879 27.908L91.4519 27.872C91.5959 28.952 91.9919 29.864 92.6399 30.608C93.2879 31.352 94.3439 31.724 95.8079 31.724C96.9119 31.724 97.7999 31.52 98.4719 31.112C99.1439 30.68 99.6959 30.26 100.128 29.852L100.956 32.984C100.74 33.272 100.356 33.584 99.8039 33.92C99.2519 34.256 98.5679 34.544 97.7519 34.784C96.9599 35.024 96.0719 35.144 95.0879 35.144ZM91.4879 24.848L92.6759 24.884C93.1319 24.908 93.5879 24.884 94.0439 24.812C94.5239 24.716 94.9559 24.572 95.3399 24.38C95.7479 24.188 96.0719 23.936 96.3119 23.624C96.5519 23.288 96.6719 22.88 96.6719 22.4C96.6719 21.848 96.5159 21.44 96.2039 21.176C95.8919 20.888 95.4959 20.744 95.0159 20.744C94.4399 20.744 93.8879 20.936 93.3599 21.32C92.8559 21.68 92.4359 22.172 92.0999 22.796C91.7639 23.42 91.5599 24.104 91.4879 24.848ZM103.408 35L103.012 32.732L105.028 32.228V11.672H103.156L102.76 9.224L108.124 8.468L109.384 9.8V32.156L111.724 32.732V35H103.408ZM113.638 35L113.242 32.732L115.258 32.228V11.672H113.386L112.99 9.224L118.354 8.468L119.614 9.8V32.156L121.954 32.732V35H113.638Z" fill="#6E6F6B"/>
</svg>
